<?xml version="1.0" encoding="UTF-8"?>
<svg width="96px" height="94px" viewBox="0 0 96 94" version="1.1" xmlns="http://www.w3.org/2000/svg" xmlns:xlink="http://www.w3.org/1999/xlink">
    <!-- Generator: Sketch 61.2 (89653) - https://sketch.com -->
    <title>Group</title>
    <desc>Created with Sketch.</desc>
    <g id="Page-1" stroke="none" stroke-width="1" fill="none" fill-rule="evenodd">
        <g id="HOME---NEW" transform="translate(-802.000000, -2038.000000)" fill="#333F48" fill-rule="nonzero">
            <g id="SERVICE" transform="translate(131.000000, 1888.000000)">
                <g id="Service3" transform="translate(596.000000, 150.000000)">
                    <g id="Group" transform="translate(75.000000, 0.000000)">
                        <path d="M69.5342625,36.5 C68.888624,35.8333333 67.9201663,35.8333333 67.2745278,36.5 L58.235589,45.8333333 C56.7829024,44.8333333 55.3302158,44.3333333 53.55471,44.3333333 C51.2949752,44.3333333 49.1966502,45.3333333 47.5825539,47 C45.9684577,48.6666667 45,50.8333333 45,53.1666667 C45,55.5 45.9684577,57.6666667 47.5825539,59.3333333 C49.1966502,61 51.2949752,62 53.55471,62 C55.8144447,62 57.9127697,61 59.526866,59.3333333 C61.1409622,57.6666667 62.1094199,55.5 62.1094199,53.1666667 C62.1094199,51.3333333 61.625191,49.5 60.4953237,48.1666667 L69.3728529,39 C70.179901,38.1666667 70.179901,37.1666667 69.5342625,36.5 Z M57.4285409,57 C55.4916254,59 51.9406137,59 49.8422887,57 C48.8738309,56 48.2281924,54.5 48.2281924,53.1666667 C48.2281924,51.6666667 48.7124213,50.3333333 49.8422887,49.3333333 C51.7792041,47.3333333 55.3302158,47.3333333 57.4285409,49.3333333 C58.3969986,50.3333333 59.0426371,51.8333333 59.0426371,53.1666667 C58.8812275,54.6666667 58.3969986,56 57.4285409,57 Z" id="Shape"></path>
                        <path d="M7,51.5 C7,52.4 7.66321244,53 8.65803109,53 L37.3419689,53 C38.3367876,53 39,52.4 39,51.5 C39,50.6 38.3367876,50 37.3419689,50 L8.65803109,50 C7.66321244,50 7,50.6 7,51.5 Z" id="Path"></path>
                        <path d="M1.65803109,39 L30.3419689,39 C31.3367876,39 32,38.4 32,37.5 C32,36.6 31.3367876,36 30.3419689,36 L1.65803109,36 C0.663212435,36 0,36.6 0,37.5 C0,38.4 0.663212435,39 1.65803109,39 Z" id="Path"></path>
                        <path d="M32,65.5 C32,64.6 31.3367876,64 30.3419689,64 L1.65803109,64 C0.663212435,64 0,64.6 0,65.5 C0,66.4 0.663212435,67 1.65803109,67 L30.3419689,67 C31.3367876,67 32,66.4 32,65.5 Z" id="Path"></path>
                        <path d="M84.1643836,22.959292 L85.8082192,21.2955752 C86.630137,21.7946903 87.4520548,21.9610619 88.4383562,21.9610619 C91.5616438,21.9610619 94.0273973,19.4654867 94.0273973,16.3044248 C94.0273973,13.1433628 91.7260274,10.6477876 88.6027397,10.6477876 C85.4794521,10.6477876 83.0136986,13.1433628 83.0136986,16.3044248 C83.0136986,17.1362832 83.1780822,18.1345133 83.6712329,18.8 L81.8630137,20.6300885 C74.9589041,14.4743363 66.0821918,10.6477876 56.2191781,10.3150442 L56.2191781,3.32743363 L62.1369863,3.32743363 C63.1232877,3.32743363 63.7808219,2.6619469 63.7808219,1.66371681 C63.7808219,0.665486726 63.1232877,0 62.1369863,0 L47.1780822,0 C46.1917808,0 45.5342466,0.665486726 45.5342466,1.66371681 C45.5342466,2.6619469 46.1917808,3.32743363 47.1780822,3.32743363 L52.9315068,3.32743363 L52.9315068,10.3150442 C42.0821918,10.8141593 32.0547945,15.3061947 24.4931507,23.4584071 C23.8356164,24.1238938 23.8356164,25.1221239 24.4931507,25.7876106 C25.1506849,26.4530973 26.1369863,26.4530973 26.7945205,25.7876106 C34.1917808,17.9681416 44.0547945,13.6424779 54.5753425,13.6424779 C64.6027397,13.6424779 73.8082192,17.6353982 80.7123288,24.1238938 C80.7123288,24.1238938 80.7123288,24.1238938 80.7123288,24.1238938 C80.7123288,24.1238938 80.7123288,24.1238938 80.7123288,24.1238938 C88.109589,31.1115044 92.7123288,41.0938053 92.7123288,52.0743363 C92.7123288,73.3699115 75.6164384,90.6725664 54.5753425,90.6725664 C44.3835616,90.6725664 34.8493151,86.679646 27.6164384,79.359292 C26.9589041,78.6938053 25.9726027,78.6938053 25.3150685,79.359292 C24.6575342,80.0247788 24.6575342,81.0230088 25.3150685,81.6884956 C33.2054795,89.6743363 43.5616438,94 54.5753425,94 C77.4246575,94 96,75.2 96,52.0743363 C96,40.7610619 91.5616438,30.4460177 84.1643836,22.959292 Z M88.6027397,13.9752212 C89.9178082,13.9752212 90.9041096,14.9734513 90.9041096,16.3044248 C90.9041096,17.6353982 89.9178082,18.6336283 88.6027397,18.6336283 C88.109589,18.6336283 87.6164384,18.4672566 87.1232877,18.1345133 C87.1232877,17.9681416 86.9589041,17.9681416 86.9589041,17.8017699 C86.9589041,17.8017699 86.7945205,17.6353982 86.630137,17.6353982 C86.3013699,17.3026549 86.3013699,16.8035398 86.3013699,16.3044248 C86.3013699,14.9734513 87.2876712,13.9752212 88.6027397,13.9752212 Z" id="Shape"></path>
                        <path d="M34.7748856,78.5 C34.2848996,79.3333333 34.4482283,80.3333333 35.2648715,80.8333333 C40.9813746,84.8333333 47.6778495,87 54.7009818,87 C73.6471062,87 89,71.3333333 89,52 C89,32.6666667 73.6471062,17 54.7009818,17 C47.5145209,17 40.4913886,19.3333333 34.6115569,23.6666667 C33.9582423,24.1666667 33.7949136,25.3333333 34.2848996,26 C34.7748856,26.6666667 35.7548575,26.8333333 36.5715008,26.3333333 C41.7980179,22.3333333 48.1678355,20.3333333 54.7009818,20.3333333 C71.8504909,20.3333333 85.7334268,34.5 85.7334268,52 C85.7334268,69.5 71.8504909,83.6666667 54.7009818,83.6666667 C48.3311642,83.6666667 42.2880038,81.8333333 37.2248154,78.1666667 C36.2448435,77.6666667 35.2648715,77.8333333 34.7748856,78.5 Z" id="Path"></path>
                    </g>
                </g>
            </g>
        </g>
    </g>
</svg>