<?xml version="1.0" encoding="UTF-8"?>
<svg width="59px" height="60px" viewBox="0 0 59 60" version="1.1" xmlns="http://www.w3.org/2000/svg" xmlns:xlink="http://www.w3.org/1999/xlink">
    <!-- Generator: Sketch 64 (93537) - https://sketch.com -->
    <title>Group</title>
    <desc>Created with Sketch.</desc>
    <g id="Page-1" stroke="none" stroke-width="1" fill="none" fill-rule="evenodd">
        <g id="BECOME-PARTNER-v4" transform="translate(-154.000000, -1168.000000)" fill="#333F48" fill-rule="nonzero">
            <g id="OUR-PROCESS" transform="translate(147.000000, 871.000000)">
                <g id="INCON" transform="translate(0.000000, 129.000000)">
                    <g id="noun_Target_2459863" transform="translate(7.000000, 154.000000)">
                        <g id="Group" transform="translate(0.000000, 14.000000)">
                            <path d="M57.5123948,53.5967548 L49.1887019,45.2734375 C48.4947322,44.5791861 47.4707032,44.3967379 46.6040039,44.7316332 L45.5220384,43.6496676 C47.1572172,41.4606182 48.138146,38.7557749 48.138146,35.8195613 C48.138146,30.575139 45.0397198,26.05234 40.5838717,23.9512282 C40.7544415,22.8900616 40.8458534,21.7980018 40.8458534,20.6926082 C40.8458534,9.49444108 31.7394081,0.384615385 20.5461238,0.384615385 C9.34833231,0.384615385 0.238131,9.49444108 0.238131,20.6926082 C0.238131,25.636268 2.03575723,30.3928786 5.29822715,34.0842848 C9.14926385,38.4743089 14.7066556,40.9923378 20.5461238,40.9923378 C21.3400503,40.9923378 22.1213942,40.9338379 22.8881835,40.8438815 C24.8648775,45.5951397 29.5525184,48.9460637 35.011268,48.9460637 C37.6497239,48.9460637 40.1040415,48.1565974 42.1640249,46.8115704 L43.3451022,47.9882812 C43.0025541,48.8625394 43.1845797,49.8847844 43.8810847,50.5806791 L52.2051532,58.9047476 C52.6780348,59.3772536 53.2989032,59.6138822 53.9201472,59.6138822 C54.5413912,59.6138822 55.1630108,59.3772536 55.6358925,58.9047476 L57.5127705,57.0282452 C58.4581581,56.082482 58.4581581,54.542518 57.5123948,53.5967548 Z M20.5461238,1.92307692 C30.8913011,1.92307692 39.3073918,10.3432993 39.3073918,20.6926082 C39.3073918,21.5910457 39.2461688,22.4804688 39.1244741,23.3473558 C39.06527,23.3278715 39.0044226,23.3147255 38.9449838,23.2960862 C38.9004751,23.2820951 38.8548395,23.2711088 38.8100961,23.2575872 C38.4728534,23.1557993 38.1321833,23.0680965 37.7881798,22.99415 C37.690101,22.9729285 37.5915996,22.9538668 37.4927227,22.934852 C37.1841665,22.8759296 36.8733098,22.8287447 36.5601994,22.7921236 C36.4556415,22.7797758 36.3522104,22.7647986 36.2469482,22.7548922 C35.8392804,22.7171443 35.4292649,22.6923077 35.0153996,22.6923077 C35.0146015,22.6923077 35.0138502,22.6924016 35.0130521,22.6924016 C35.0124417,22.6924016 35.0118783,22.6923077 35.0118783,22.6923077 C35.0069955,22.6923077 35.0028638,22.692965 34.9985915,22.692965 C34.5966045,22.6934815 34.1981388,22.7173321 33.8019268,22.7535776 C33.6818753,22.7646109 33.5637018,22.7806209 33.4446364,22.7948468 C33.1525597,22.8296368 32.8628305,22.8738638 32.5750732,22.9279504 C32.4607966,22.9495475 32.3465201,22.9699238 32.2333233,22.9944318 C31.8852352,23.069505 31.5407152,23.1573956 31.2007024,23.260592 C31.1653489,23.2713436 31.1288687,23.2791373 31.0936561,23.2901705 C30.7098388,23.4102689 30.3326416,23.5499925 29.9611722,23.7054444 C29.8901836,23.7351638 29.8218243,23.7693905 29.751493,23.8002836 C29.4632192,23.9269551 29.179218,24.0633921 28.8998178,24.2111911 C28.7991098,24.2644325 28.7000451,24.3195989 28.6008865,24.3753756 C28.3505015,24.5162729 28.1047645,24.6663255 27.8625958,24.8243596 C27.8409049,24.8384916 27.8178524,24.8504638 27.7963023,24.8646898 C26.8049505,24.4258001 25.7840202,24.0922664 24.7380654,23.8692064 C27.0357573,22.4549279 28.5760968,19.9239878 28.5760968,17.0335036 C28.5760968,12.6066707 24.9740836,9.00465746 20.5468751,9.00465746 C16.1196665,9.00465746 12.5176533,12.6066707 12.5176533,17.0335036 C12.5176533,19.9251145 14.0591666,22.4568998 16.3583609,23.8708496 C11.7600661,24.8451115 7.83174954,27.8446138 5.69218562,32.1234131 C3.16767762,28.8618352 1.77659254,24.8533278 1.77659254,20.6926082 C1.77659254,10.3432993 10.1964393,1.92307692 20.5461238,1.92307692 Z M20.5172025,23.523137 C16.9518574,23.5068922 14.0561148,20.6029804 14.0561148,17.0335036 C14.0561148,13.4547776 16.9677735,10.543119 20.546875,10.543119 C24.1259765,10.543119 27.0376352,13.4547777 27.0376352,17.0335036 C27.0376352,20.6029804 24.1418927,23.5068923 20.5765475,23.523137 L20.5172025,23.523137 Z M22.3674128,39.3659856 C21.7705829,39.4245794 21.1606069,39.4538762 20.5461238,39.4538762 C20.21367,39.4538762 19.8822491,39.4446271 19.5520958,39.4271147 C19.4414344,39.421199 19.331712,39.4090389 19.2212853,39.4011982 C19.0028264,39.3857516 18.7841797,39.3714318 18.5670354,39.3483793 C18.4313495,39.3339656 18.2970722,39.3127442 18.1619498,39.2953726 C17.9715201,39.2709585 17.7806678,39.2486572 17.5915058,39.2184683 C17.4482141,39.1956036 17.3064717,39.166025 17.1639781,39.1398738 C16.9844878,39.1069148 16.8045279,39.0760685 16.6263522,39.0379451 C16.4801026,39.0066763 16.3356371,38.9690692 16.1903734,38.9343262 C16.0186768,38.8932918 15.8464168,38.8541354 15.6761757,38.808312 C15.5274847,38.7683105 15.3808125,38.7222994 15.2332952,38.6786358 C15.0686412,38.6299485 14.9033768,38.5828575 14.7402251,38.529663 C14.5921914,38.4813983 14.4462235,38.4275935 14.2995043,38.3757135 C14.1396861,38.3191856 13.9794453,38.2640192 13.8213173,38.2032188 C13.6752085,38.1470665 13.5312125,38.0857495 13.3866062,38.0259351 C13.2306848,37.9614256 13.0743878,37.8979491 12.9202506,37.829261 C12.7775222,37.7656436 12.6370005,37.6973781 12.4958685,37.6302395 C12.3433275,37.5576545 12.1904579,37.4856801 12.0398419,37.4089635 C11.9009635,37.3382097 11.7642917,37.2632304 11.6271973,37.1890492 C11.4779428,37.1082949 11.3285945,37.0277755 11.1814998,36.9428897 C11.0472225,36.865422 10.9150579,36.7841044 10.7826585,36.7033032 C10.6366906,36.6141919 10.4907696,36.5249867 10.3471023,36.4317907 C10.2179895,36.3480786 10.0909894,36.2608453 9.96384846,36.1738937 C9.82112008,36.0762844 9.67872038,35.9781117 9.53857431,35.8764177 C9.41481377,35.7866021 9.293166,35.6938756 9.17151823,35.6010083 C9.03296846,35.4951828 8.894982,35.388559 8.75920231,35.2786958 C8.64013677,35.1823542 8.52294931,35.0834772 8.40609046,34.9840838 C8.27261131,34.8705584 8.13997715,34.7559062 8.00945585,34.63839 C7.89602438,34.5362735 7.78433,34.4319973 7.67319908,34.3269698 C7.544321,34.2051343 7.41661669,34.0818432 7.29093123,33.9561108 C7.18294592,33.8480786 7.076557,33.7381684 6.97101308,33.6272722 C6.90603408,33.5590068 6.84274538,33.4888633 6.77870538,33.4195179 C9.03334408,28.3258525 14.0229681,25.0615984 19.6228967,25.0615984 L20.5172495,25.0615984 C20.5272499,25.0615984 20.5368747,25.0631008 20.5468751,25.0631008 C20.5568755,25.0631008 20.5665002,25.0615984 20.5765006,25.0615984 L21.4689755,25.0615984 C23.1614334,25.0615984 24.80619,25.3568208 26.3739484,25.9397535 C26.3533842,25.9577354 26.3359188,25.9785812 26.3154955,25.9967039 C26.1363338,26.1554892 25.9629001,26.3193921 25.7934102,26.487004 C25.765334,26.5147045 25.7362249,26.5411375 25.7084305,26.5690728 C25.6191313,26.6590293 25.5329778,26.7514741 25.4464958,26.8437311 C25.3948976,26.8988035 25.3441915,26.9542047 25.2935792,27.0101223 C25.1781289,27.1376388 25.0648382,27.2665638 24.9546932,27.398212 C24.9043627,27.4582142 24.8556755,27.5192025 24.8064248,27.5800968 C24.7098484,27.6998195 24.6136475,27.8196363 24.5214845,27.9424578 C24.4840652,27.9923658 24.4489465,28.0434945 24.4122785,28.0938719 C24.3250921,28.2135478 24.2355582,28.3315804 24.1525035,28.4539793 C24.1221737,28.4985819 24.0950835,28.5453442 24.0652702,28.5903225 C23.9455004,28.7716438 23.8278903,28.9542328 23.7173228,29.1410474 C23.706806,29.1587945 23.6976977,29.1772459 23.6873217,29.19504 C23.6500902,29.2586574 23.6161922,29.324012 23.5800407,29.3881928 C23.5221042,29.4907318 23.4638861,29.5925666 23.4086728,29.6967489 C23.3034575,29.8958644 23.2049092,30.0982194 23.1100231,30.3024525 C23.0911492,30.3430643 23.0703502,30.3825963 23.0518988,30.4234429 C23.0284708,30.4752289 23.005606,30.5272027 22.9828352,30.5793173 C22.9308615,30.6981011 22.8836296,30.8188568 22.8351302,30.9394717 C22.7518406,31.1466156 22.6741382,31.3559662 22.6014594,31.5673356 C22.5806605,31.6278074 22.5585,31.6875279 22.5385462,31.7483283 C22.5027702,31.8577221 22.4678863,31.9670689 22.4349273,32.0776365 C22.3513092,32.3575062 22.2784895,32.6407562 22.2136045,32.9263538 C22.2029468,32.9732569 22.1902702,33.0194089 22.1800821,33.0664998 C22.1626166,33.1478644 22.1468883,33.2295576 22.1309722,33.3114855 C22.0639275,33.6539867 22.0096532,33.9995865 21.9701212,34.348332 C21.9669755,34.3761734 21.9625622,34.4036862 21.9596043,34.4315745 C21.9528905,34.4951919 21.9507777,34.5600301 21.9449558,34.6239292 C21.9086634,35.018451 21.8843902,35.4151795 21.8843902,35.8150537 C21.8843902,35.8159458 21.8844841,35.8168848 21.8844841,35.8177768 C21.8844841,35.8183872 21.8843902,35.8189505 21.8843902,35.8189505 C21.8843902,35.8225188 21.8848127,35.8253358 21.8848127,35.8282936 C21.8852352,36.2319708 21.9097432,36.6311876 21.9456131,37.0278692 C21.9536415,37.1153372 21.9623743,37.2022888 21.9720929,37.2892405 C22.050077,37.9954177 22.1774527,38.6901855 22.3674128,39.3659856 Z M24.0028264,39.4200722 C23.9698205,39.3200684 23.9380822,39.2197829 23.9079402,39.1188402 C23.8308481,38.8598633 23.7638502,38.5967548 23.70474,38.3305476 C23.6840819,38.236976 23.6614051,38.1440148 23.6430945,38.0497859 C23.5893835,37.7757381 23.5494759,37.4971361 23.515531,37.2166091 C23.5044038,37.1233662 23.4883938,37.0313908 23.4795202,36.9375845 C23.4447772,36.5768668 23.4247764,36.2119235 23.4240252,35.842426 C23.4240252,35.8340688 23.4229453,35.8258526 23.4229453,35.8174955 C23.4229453,35.8090445 23.4242129,35.8008752 23.4242129,35.7924241 C23.425105,35.3613281 23.4536506,34.9336595 23.5021502,34.5099346 C23.515484,34.3922776 23.5387243,34.2777663 23.5555325,34.1611892 C23.6020131,33.8420692 23.6569447,33.5247803 23.7295765,33.2122333 C23.7572302,33.0924166 23.7899544,32.9746188 23.8213171,32.8563045 C23.9040432,32.5456355 23.998366,32.2387695 24.1062574,31.9368333 C24.1440053,31.8311955 24.1813306,31.7254638 24.2220364,31.6212346 C24.3489425,31.296152 24.4917648,30.9779241 24.6473105,30.6657997 C24.6833213,30.5936843 24.7149657,30.5191275 24.7524318,30.4478572 C25.1481275,29.6934627 25.6292253,28.9842342 26.1834245,28.3303598 C26.2717847,28.2263653 26.3667178,28.1283805 26.4586462,28.0275785 C26.6509069,27.8162561 26.8499285,27.6106145 27.0584339,27.4130954 C27.1731331,27.3045467 27.289945,27.1982986 27.4089635,27.094398 C27.6248872,26.9059402 27.8501068,26.7267316 28.0811484,26.5535795 C28.2053784,26.4604305 28.3259932,26.3627742 28.4539793,26.274555 C28.5372218,26.2172289 28.6225772,26.1641283 28.7070405,26.1091028 C28.9160624,25.9729005 29.1291221,25.8426139 29.3471115,25.7198393 C29.4381008,25.6685698 29.5293718,25.6179106 29.621488,25.5692233 C29.8617787,25.4423641 30.1072809,25.3243315 30.3571495,25.2142335 C30.4241003,25.1847488 30.4896896,25.1520245 30.55711,25.1238075 C30.8811597,24.9883565 31.2119233,24.8657227 31.5500112,24.7596624 C31.5866792,24.7482065 31.6243802,24.7400372 31.6611891,24.7289101 C31.9547212,24.6400335 32.2536057,24.5638335 32.556387,24.4981972 C32.6584565,24.4761775 32.7613243,24.4575853 32.8640512,24.4382888 C33.1153752,24.3909631 33.369657,24.3523701 33.6263802,24.3216177 C33.7324405,24.3089881 33.8380783,24.2945744 33.9447021,24.2848088 C34.2922738,24.2528827 34.6428973,24.2318021 34.9985445,24.2314265 C35.0033803,24.2314265 35.0082162,24.2308631 35.0130521,24.2308631 C35.4092642,24.2308631 35.8008282,24.2512395 36.1869459,24.2903488 C36.2278395,24.2944335 36.2677002,24.3036827 36.3084998,24.3081899 C36.6560245,24.3471115 37.0004037,24.3966439 37.3379751,24.4657545 C37.3616849,24.4705904 37.3846905,24.4783372 37.4083533,24.4833138 C37.7624981,24.5581523 38.1118539,24.6461838 38.4533691,24.7526198 C38.4537447,24.7527137 38.4540733,24.7529484 38.4544489,24.7530423 C43.168241,26.2229567 46.5996845,30.6282865 46.5996845,35.8195612 C46.5996845,38.7426288 45.5032583,41.4085505 43.7110314,43.4493783 C43.5105074,43.6797625 43.3030818,43.9030104 43.085468,44.1153188 C42.9425988,44.2543851 42.792734,44.3859393 42.6429162,44.5175875 C42.4505145,44.6860445 42.2540283,44.8488675 42.0508282,45.0031456 C40.0968111,46.5044696 37.6602407,47.4076022 35.011268,47.4076022 C29.8790565,47.4076022 25.5216628,44.0509972 24.0028264,39.4200722 Z M44.3690373,45.0089675 C44.4246732,44.9521108 44.487915,44.9039401 44.542518,44.8460036 L45.3620793,45.6655649 L44.2795973,46.7480469 L43.4247295,45.8961839 C43.5802753,45.7669772 43.7183086,45.6168777 43.867657,45.4800181 C44.0368183,45.3248478 44.2082332,45.1727295 44.3690373,45.0089675 Z M56.4246545,55.9405048 L54.5485277,57.8170072 C54.2025992,58.1618089 53.6391978,58.1633113 53.2925181,57.8170072 L44.9688252,49.4929387 C44.6518179,49.1759315 44.6202675,48.6741286 44.9128606,48.3022836 C44.9185416,48.294396 44.9267578,48.2866023 44.9330962,48.2789494 L45.7971662,47.4091515 L46.8445295,46.3616004 L46.8752348,46.3353083 C46.8914796,46.3207068 46.9050482,46.3075138 46.9328426,46.2868088 C47.092473,46.1628605 47.2836539,46.1020132 47.4740836,46.1020132 C47.7020734,46.1020132 47.929312,46.1891526 48.100586,46.3611778 L48.1009615,46.3611778 L56.4242788,54.6844952 C56.7705829,55.0307993 56.7705829,55.5942007 56.4246545,55.9405048 Z" id="Shape"></path>
                            <path d="M45.2535306,35.8195613 C45.2535306,30.1720252 40.6588041,25.5769231 35.011268,25.5769231 C29.3637319,25.5769231 24.7690054,30.1720252 24.7690054,35.8195613 C24.7690054,41.4670974 29.3637319,46.0614483 35.011268,46.0614483 C40.6588041,46.0614483 45.2535306,41.4670974 45.2535306,35.8195613 Z M26.3074669,35.8195613 C26.3074669,31.0201322 30.2118389,27.1153846 35.011268,27.1153846 C39.8106971,27.1153846 43.7150691,31.0201322 43.7150691,35.8195613 C43.7150691,40.6189904 39.8106971,44.5229868 35.011268,44.5229868 C30.2118389,44.5229868 26.3074669,40.6189904 26.3074669,35.8195613 Z" id="Shape"></path>
                            <path d="M38.1933594,41.859976 C38.3293269,41.859976 38.4671725,41.8239183 38.591872,41.7480469 C38.7721605,41.6383715 38.9471905,41.5219352 39.1162109,41.3972356 C39.4583834,41.1448318 39.5316256,40.6633113 39.2795973,40.3215145 C39.0286958,39.9789664 38.5464242,39.9060998 38.2042518,40.1577525 C38.071289,40.2554087 37.9345703,40.3478065 37.7933443,40.4334435 C37.4301382,40.6535457 37.3144531,41.1268029 37.5353065,41.4903846 C37.6799128,41.7285156 37.9334435,41.859976 38.1933594,41.859976 Z" id="Path"></path>
                            <path d="M35.7804988,41.9749098 C35.7804988,41.5497295 35.4360727,41.2056791 35.011268,41.2056791 C32.0410156,41.2056791 29.6247746,38.7898137 29.6247746,35.8195613 C29.6247746,35.394381 29.2803485,35.0503305 28.8555438,35.0503305 C28.4307392,35.0503305 28.0863131,35.394381 28.0863131,35.8195613 C28.0863131,39.6379207 31.1929086,42.7441406 35.011268,42.7441406 C35.4360727,42.7441406 35.7804988,42.4000902 35.7804988,41.9749098 Z" id="Path"></path>
                        </g>
                    </g>
                </g>
            </g>
        </g>
    </g>
</svg>