<?xml version="1.0" encoding="UTF-8"?>
<svg width="64px" height="40px" viewBox="0 0 64 40" version="1.1" xmlns="http://www.w3.org/2000/svg" xmlns:xlink="http://www.w3.org/1999/xlink">
    <!-- Generator: Sketch 64 (93537) - https://sketch.com -->
    <title>Shape</title>
    <desc>Created with Sketch.</desc>
    <g id="Page-1" stroke="none" stroke-width="1" fill="none" fill-rule="evenodd">
        <g id="BECOME-PARTNER-v4" transform="translate(-148.000000, -1094.000000)" fill="#333F48" fill-rule="nonzero">
            <g id="OUR-PROCESS" transform="translate(147.000000, 871.000000)">
                <g id="INCON" transform="translate(0.000000, 129.000000)">
                    <g id="STEP2" transform="translate(1.000000, 80.000000)">
                        <g id="Group" transform="translate(0.000000, 14.000000)">
                            <path d="M63.295047,38.0334975 C63.3363009,37.9014778 63.3618391,37.773399 63.3755904,37.6374384 C63.3814838,37.5743842 63.4129154,37.5192118 63.4129154,37.4541872 C63.4129154,37.3931034 63.3834483,37.3399015 63.3775549,37.2807882 C63.365768,37.1487685 63.3382654,37.0226601 63.298976,36.8926108 C63.2596865,36.7625616 63.2125392,36.6423645 63.1496761,36.5241379 C63.120209,36.470936 63.11628,36.4118227 63.082884,36.3605911 L39.5092163,0.884729064 C39.2066876,0.427586207 38.7430721,0.141871921 38.2460606,0.045320197 C38.1222989,0.0197044335 37.9965726,0.0433497537 37.8728109,0.0433497537 C37.7470846,0.0433497537 37.6233229,0.0197044335 37.4995611,0.045320197 C37.0005852,0.141871921 36.5408986,0.427586207 36.2364054,0.884729064 L24.1156113,19.1251232 L19.8527064,12.7093596 C19.5501776,12.2522167 19.0865622,11.964532 18.5875862,11.8699507 C18.4638245,11.844335 18.3400627,11.8679803 18.2163009,11.8679803 C18.0925392,11.8679803 17.966813,11.844335 17.8430512,11.8699507 C17.3440752,11.964532 16.8843887,12.2502463 16.5798955,12.7093596 L0.864117032,36.3605911 C0.828756531,36.4118227 0.824827586,36.4729064 0.797324974,36.5241379 C0.73446186,36.6423645 0.685350052,36.7605911 0.648025078,36.8926108 C0.608735632,37.0206897 0.58123302,37.1487685 0.569446186,37.2807882 C0.563552769,37.3399015 0.534085684,37.3931034 0.534085684,37.4541872 C0.534085684,37.5192118 0.565517241,37.5743842 0.571410658,37.6374384 C0.585161964,37.773399 0.610700104,37.9014778 0.651954023,38.0334975 C0.689278997,38.1536946 0.732497388,38.262069 0.789467085,38.3724138 C0.846436782,38.4807882 0.91322884,38.5773399 0.993772205,38.6758621 C1.08217346,38.782266 1.17253918,38.8748768 1.28058516,38.9635468 C1.3277325,39.0029557 1.35719958,39.0581281 1.41024033,39.0935961 C1.47703239,39.1369458 1.54971787,39.1566502 1.62043887,39.1940887 C1.68723093,39.2275862 1.74812957,39.2610837 1.82277952,39.28867 C2.04280042,39.3714286 2.27067921,39.4246305 2.49855799,39.4246305 C2.49855799,39.4246305 2.49855799,39.4246305 2.50052247,39.4246305 L2.50052247,39.4246305 L61.4504075,39.4246305 L61.4504075,39.4246305 C61.452372,39.4246305 61.452372,39.4246305 61.452372,39.4246305 C61.6802508,39.4246305 61.9061651,39.3714286 62.1281505,39.28867 C62.2008359,39.2610837 62.2617346,39.2275862 62.3304911,39.1921182 C62.4012121,39.1566502 62.4738976,39.1389163 62.5406897,39.0935961 C62.5937304,39.0561576 62.6231975,39.0009852 62.6703448,38.9635468 C62.7783908,38.8748768 62.8687565,38.782266 62.9571578,38.6758621 C63.0337722,38.5773399 63.1025287,38.4807882 63.1614629,38.3724138 C63.2203971,38.2640394 63.257722,38.1517241 63.295047,38.0334975 Z M23.2953933,23.8383158 L37.7717538,1.92786907 L61.4160156,37.0581281 L14.1274919,37.0581281 L23.2953933,23.8383158 Z M11.9655846,37.0204741 L2.47541756,37.0204741 L18.1761853,13.4529903 L23.1316614,20.4226587 L11.9655846,37.0204741 Z" id="Shape"></path>
                        </g>
                    </g>
                </g>
            </g>
        </g>
    </g>
</svg>