<?xml version="1.0" encoding="UTF-8"?>
<svg width="60px" height="60px" viewBox="0 0 60 60" version="1.1" xmlns="http://www.w3.org/2000/svg" xmlns:xlink="http://www.w3.org/1999/xlink">
    <!-- Generator: Sketch 64 (93537) - https://sketch.com -->
    <title>noun_Phone Search_1771763 2</title>
    <desc>Created with Sketch.</desc>
    <g id="Page-1" stroke="none" stroke-width="1" fill="none" fill-rule="evenodd">
        <g id="BECOME-PARTNER-v4" transform="translate(-147.000000, -1002.000000)" fill="#333F48" fill-rule="nonzero">
            <g id="OUR-PROCESS" transform="translate(147.000000, 871.000000)">
                <g id="INCON" transform="translate(0.000000, 129.000000)">
                    <g id="STEP1">
                        <g id="noun_Phone-Search_1771763-2" transform="translate(0.000000, 2.000000)">
                            <g id="noun_Phone-Search_1771763">
                                <path d="M46.2286833,53.2234082 C46.1918494,56.061096 43.8889335,58.333907 41.0791166,58.3056573 L19.5079676,58.3056573 C16.6981506,58.333907 14.3952348,56.061096 14.3584009,53.2234082 L14.3584009,47.2941176 L12.6810176,47.2941176 L12.6810176,53.2234082 C12.6965207,55.0363502 13.4245126,56.768811 14.7048289,58.0396345 C15.9851451,59.3104579 17.7128982,60.0155341 19.5079676,59.9997403 L41.0791166,59.9997403 C42.874186,60.0155341 44.6019391,59.3104579 45.8822553,58.0396345 C47.1625715,56.768811 47.8905634,55.0363502 47.9060665,53.2234082 L47.9060665,49.8352422 L46.2286833,49.8352422 L46.2286833,53.2234082 Z" id="Path"></path>
                                <path d="M47.9060665,12.7058824 L47.9060665,6.84425511 C47.8875822,3.05220794 44.8337529,-0.00934313439 41.0791166,2.14257721e-05 L19.5079676,2.14257721e-05 C15.7533313,-0.00934313439 12.6995019,3.05220794 12.6810176,6.84425511 L12.6810176,10.1647145 L14.3584009,10.1647145 L14.3584009,6.84425511 C14.376871,3.98784123 16.6797146,1.68475907 19.5079676,1.69415487 L21.067934,1.69415487 C21.097681,2.52131698 21.4120643,3.31211812 21.9569472,3.93038261 C22.647227,4.64913366 23.5908018,5.06321026 24.582052,5.08237871 L36.0050321,5.08237871 C36.9904306,5.05878302 37.9271876,4.64505469 38.6133632,3.93038261 C39.1643384,3.31451521 39.4847568,2.52345885 39.5191501,1.69415487 L41.0958904,1.69415487 C43.917604,1.694094 46.2102407,3.99446132 46.2286833,6.84425511 L46.2286833,12.7058824 L47.9060665,12.7058824 Z M37.3888734,2.7783865 C37.0154846,3.14353926 36.5240305,3.36013069 36.0050321,3.38826679 L24.5904389,3.38826679 C24.0685058,3.36214691 23.573742,3.14541037 23.1982108,2.7783865 C22.9377867,2.47427305 22.7792634,2.09476659 22.7453173,1.69415487 L37.8417668,1.69415487 C37.8078207,2.09476659 37.6492974,2.47427305 37.3888734,2.7783865 L37.3888734,2.7783865 Z" id="Shape"></path>
                                <path d="M42.7705628,26.6083968 C42.7705628,19.3200982 36.8233282,13.4117647 29.4870426,13.4117647 C22.150757,13.4117647 16.2035225,19.3200982 16.2035225,26.6083968 C16.2035225,33.8966955 22.150757,39.8050289 29.4870426,39.8050289 C32.2504761,39.8045884 34.9434569,38.9387741 37.1831821,37.3306604 L47.2039376,47.2941176 L50.7240705,43.7970101 L40.6285951,33.7675697 C42.0286112,31.6390909 42.773024,29.1510142 42.7705628,26.6083968 Z M37.3077151,35.1284724 C36.8959994,35.5021599 36.4606274,35.8492813 36.0042697,36.1677072 C31.0463219,39.50337 24.3548533,38.5907865 20.4851223,34.0512036 C16.6153913,29.5116206 16.8114202,22.8044014 20.9397611,18.4955265 C25.068102,14.1866517 31.801596,13.6613174 36.5563756,17.2771482 C41.3111552,20.8929791 42.5586769,27.4875753 39.4496827,32.5716249 C39.163104,33.0509871 38.8412063,33.5086206 38.4866275,33.9407755 C38.1218413,34.3633419 37.7279205,34.7601979 37.3077151,35.1284724 L37.3077151,35.1284724 Z M47.2703552,42.6505527 L48.4160588,43.7970101 L47.2454486,44.9599633 L46.0914428,43.9289765 L47.2703552,42.6505527 Z M46.0914428,41.4546079 L44.9872502,42.6835443 L38.5198363,36.258434 C38.929369,35.8900735 39.314821,35.4961232 39.6738421,35.0789851 L46.0914428,41.4546079 Z" id="Shape"></path>
                                <path d="M28.8845401,16.9411765 C23.4373481,16.9411765 19.0215264,21.3656566 19.0215264,26.8235294 C19.0215264,32.2814022 23.4373481,36.7058824 28.8845401,36.7058824 C34.3317322,36.7058824 38.7475538,32.2814022 38.7475538,26.8235294 C38.7475538,21.3656566 34.3317322,16.9411765 28.8845401,16.9411765 Z M28.8845401,35.0588235 C24.3452134,35.0588235 20.665362,31.3717568 20.665362,26.8235294 C20.665362,22.2753021 24.3452134,18.5882353 28.8845401,18.5882353 C33.4238668,18.5882353 37.1037182,22.2753021 37.1037182,26.8235294 C37.1037182,31.3717568 33.4238668,35.0588235 28.8845401,35.0588235 L28.8845401,35.0588235 Z" id="Shape"></path>
                                <path d="M29.5890411,20.4705882 L29.5890411,22.0588235 C32.2153658,22.0588235 34.3444227,24.192055 34.3444227,26.8235294 L35.9295499,26.8235294 C35.9295499,23.3148969 33.0908074,20.4705882 29.5890411,20.4705882 Z" id="Path"></path>
                                <polygon id="Path" points="15.0361454 35.2941176 16.2035225 34.1397764 13.0795557 31.0588235 0 31.0588235 0 32.6846562 12.4054366 32.6846562"></polygon>
                                <rect id="Rectangle" x="0" y="27.5294118" width="11.9765166" height="1.41176471"></rect>
                                <rect id="Rectangle" x="0" y="24" width="7.74951076" height="1.41176471"></rect>
                                <polygon id="Path" points="44.3835616 26.3750706 45.5697965 27.5294118 48.2430018 24.9199503 59.1780822 24.9199503 59.1780822 23.2941176 47.5579929 23.2941176"></polygon>
                                <rect id="Rectangle" x="49.3150685" y="20.4705882" width="9.8630137" height="1.41176471"></rect>
                                <rect id="Rectangle" x="49.3150685" y="16.9411765" width="9.8630137" height="1.41176471"></rect>
                                <rect id="Rectangle" x="12.6810176" y="40.2352941" width="1.40900196" height="8.47058824"></rect>
                                <rect id="Rectangle" x="12.6810176" y="37.4117647" width="1.40900196" height="2.82352941"></rect>
                                <rect id="Rectangle" x="45.7925636" y="28.9411765" width="1.40900196" height="8.47058824"></rect>
                                <rect id="Rectangle" x="45.7925636" y="12.7058824" width="1.40900196" height="9.17647059"></rect>
                                <rect id="Rectangle" x="12.6810176" y="9.17647059" width="1.40900196" height="17.6470588"></rect>
                            </g>
                        </g>
                    </g>
                </g>
            </g>
        </g>
    </g>
</svg>