<?xml version="1.0" encoding="UTF-8"?>
<svg width="46px" height="70px" viewBox="0 0 46 70" version="1.1" xmlns="http://www.w3.org/2000/svg" xmlns:xlink="http://www.w3.org/1999/xlink">
    <!-- Generator: Sketch 64 (93537) - https://sketch.com -->
    <title>Group</title>
    <desc>Created with Sketch.</desc>
    <g id="Page-1" stroke="none" stroke-width="1" fill="none" fill-rule="evenodd">
        <g id="BECOME-PARTNER-v4" transform="translate(-157.000000, -1251.000000)" fill="#333F48" fill-rule="nonzero">
            <g id="OUR-PROCESS" transform="translate(147.000000, 871.000000)">
                <g id="INCON" transform="translate(0.000000, 129.000000)">
                    <g id="noun_success_1894306" transform="translate(10.000000, 244.000000)">
                        <g id="Group" transform="translate(-0.000000, 7.000000)">
                            <path d="M25.4194675,42.5272249 L18.3249825,42.5272249 C17.8575824,42.5272249 17.478621,42.9061897 17.478621,43.3735897 L17.478621,47.5545692 C17.478621,48.0219725 17.8575824,48.4009307 18.3249825,48.4009307 L25.4194675,48.4009307 C25.8868675,48.4009307 26.265829,48.0219725 26.265829,47.5545692 L26.265829,43.3735897 C26.265829,42.9061897 25.8868675,42.5272249 25.4194675,42.5272249 Z M24.573106,46.7082077 L19.1713472,46.7082077 L19.1713472,44.2199513 L24.573106,44.2199513 L24.573106,46.7082077 Z" id="Shape"></path>
                            <path d="M21.8720198,35.4728291 C22.0902206,35.4728291 22.3075973,35.4641521 22.522909,35.447622 C22.989068,35.4120798 23.3378616,35.0050154 23.3023227,34.5392701 C23.2663668,34.0731077 22.8638496,33.7272065 22.3939709,33.7598564 C22.2208134,33.7730804 22.0472423,33.7801061 21.8720198,33.7801061 C21.4046197,33.7801061 21.025655,34.1590676 21.025655,34.6264676 C21.025655,35.0938676 21.4046197,35.4728291 21.8720198,35.4728291 Z" id="Path"></path>
                            <path d="M19.32632,38.5247772 C19.6718076,38.5247772 19.9966317,38.3111201 20.1214364,37.9676975 C20.2813698,37.5284003 20.0549023,37.0428156 19.6160154,36.8828822 C17.0244449,35.9394051 15.2833693,33.4507349 15.2833693,30.6901403 C15.2833693,30.222737 14.9044078,29.8437755 14.4370078,29.8437755 C13.9696077,29.8437755 13.590643,30.222737 13.590643,30.6901403 C13.590643,34.1594812 15.7792859,37.2874679 19.0366211,38.4731185 C19.132499,38.5082438 19.2300283,38.5247772 19.32632,38.5247772 Z" id="Path"></path>
                            <path d="M24.0590047,20.9668912 L25.079351,20.9668912 C25.546751,20.9668912 25.9257125,20.5879297 25.9257125,20.1205297 C25.9257125,19.6531264 25.546751,19.2741649 25.079351,19.2741649 L24.0590047,19.2741649 C23.5916047,19.2741649 23.2126432,19.6531264 23.2126432,20.1205297 C23.2126432,20.5879297 23.5916047,20.9668912 24.0590047,20.9668912 Z" id="Path"></path>
                            <path d="M39.1740912,56.1545683 L5.41671858,56.1545683 L5.41671858,53.5113392 L22.1650214,53.5113392 C22.6324214,53.5113392 23.0113829,53.1323744 23.0113829,52.6649777 L23.0113829,50.7333871 L29.3772855,50.7333871 C29.8446856,50.7333871 30.223647,50.3544224 30.223647,49.8870257 L30.223647,41.0407195 C30.223647,40.5733195 29.8446856,40.194358 29.3772855,40.194358 L27.7940253,40.194358 C28.7949458,39.5693477 29.6914668,38.7813099 30.4583812,37.8645887 C35.9320451,37.048031 40.0204594,32.3488731 40.0204594,26.7773656 L40.0204594,25.0395959 C40.0204594,21.8591266 37.4326018,19.2712725 34.2521325,19.2712725 L33.0693742,19.2712725 L33.0693742,16.064767 C33.0693742,15.597367 32.6904127,15.2184039 32.2230127,15.2184039 L11.5214372,15.2184039 C11.0540372,15.2184039 10.6750757,15.597367 10.6750757,16.064767 L10.6750757,19.2712725 L9.49190367,19.2712725 C6.31143266,19.2712725 3.72399388,21.8591267 3.72399388,25.0395959 L3.72399388,26.7773656 C3.72399388,32.3487706 7.81224922,37.0477729 13.2857609,37.8645358 C14.0523609,38.7811544 14.9488852,39.5692452 15.9500142,40.194358 L14.3671643,40.194358 C13.8997643,40.194358 13.5208029,40.5733195 13.5208029,41.0407195 L13.5208029,49.8870256 C13.5208029,50.3544223 13.8997643,50.7333871 14.3671643,50.7333871 L21.3186598,50.7333871 L21.3186598,51.8186161 L4.57035709,51.8186161 C4.10295541,51.8186161 3.72399388,52.1975743 3.72399388,52.6649776 L3.72399388,57.0009298 C3.72399388,57.4683331 4.10295541,57.8472913 4.57035709,57.8472913 L38.327728,57.8472913 L38.327728,60.0785021 L22.1650214,60.0785021 C21.6976213,60.0785021 21.3186599,60.4574603 21.3186599,60.9248636 L21.3186599,62.5936204 C19.8195989,62.9739222 18.7027062,64.3236925 18.7027062,65.9393941 C18.7027062,67.8486667 20.2557489,69.4017094 22.1650214,69.4017094 C24.0742971,69.4017094 25.6277502,67.8486667 25.6277502,65.9393942 C25.6277502,64.3236926 24.5105464,62.9739223 23.0113829,62.5936205 L23.0113829,61.7712252 L39.1740912,61.7712252 C39.6414946,61.7712252 40.0204594,61.3922604 40.0204594,60.9248637 L40.0204594,57.0009299 C40.0204594,56.5335332 39.6414946,56.1545683 39.1740912,56.1545683 Z M31.9083648,35.6411317 C32.0492893,35.3570653 32.1774498,35.0681409 32.2930084,34.7741564 C32.328448,34.6839638 32.3662604,34.595009 32.3993206,34.5039858 C32.532081,34.1382484 32.6479507,33.766776 32.741297,33.3883308 C32.7576219,33.32226 32.7682118,33.254743 32.7832957,33.1883115 C32.8568026,32.8649335 32.9148681,32.5375778 32.9593952,32.2066083 C32.9737048,32.1000875 32.9878091,31.9939308 32.9991204,31.8866886 C33.0407584,31.4915081 33.0693742,31.0934849 33.0693742,30.6901402 L33.0693742,20.9639988 L34.2521325,20.9639988 C36.4994564,20.9639988 38.3277297,22.792272 38.3277297,25.0395959 L38.3277297,26.7773656 C38.3277297,30.9397499 35.6431736,34.535964 31.8324785,35.8121183 C31.8612531,35.7565347 31.880573,35.6971289 31.9083648,35.6411317 Z M5.41671858,26.7773656 L5.41671858,25.0395959 C5.41671858,22.792272 7.24499348,20.9639988 9.49190367,20.9639988 L10.6750757,20.9639988 L10.6750757,30.6901403 C10.6750757,31.0934849 10.7036948,31.4915082 10.7453295,31.8866887 C10.7566441,31.9939309 10.7707452,32.1000876 10.7850547,32.2066084 C10.8295321,32.5371643 10.8875447,32.8641097 10.960949,33.1871235 C10.9761885,33.2541243 10.9868809,33.3222104 11.0033084,33.3888471 C11.0966548,33.7670871 11.2124218,34.1382485 11.3450763,34.5038304 C11.3781398,34.595009 11.4161078,34.6841691 11.451597,34.7745205 C11.567053,35.0681939 11.6951109,35.3568072 11.83588,35.6405625 C11.8637743,35.6967649 11.8830942,35.7563295 11.9119714,35.8121183 C8.10127299,34.535964 5.41671858,30.9397499 5.41671858,26.7773656 Z M14.3973322,36.5588854 C13.0695193,34.8669864 12.3677987,32.8374529 12.3677987,30.6901403 L12.3677987,20.9668912 L19.7585914,20.9668912 C20.2259914,20.9668912 20.6049561,20.5879297 20.6049561,20.1205297 C20.6049561,19.6531264 20.2259914,19.2741649 19.7585914,19.2741649 L12.3677987,19.2741649 L12.3677987,16.9111286 L31.3766511,16.9111286 L31.3766511,20.1176341 L31.3766511,30.6901404 C31.3766511,31.2269669 31.3327925,31.7564599 31.2462667,32.275105 C30.9866861,33.8311427 30.3429781,35.2899622 29.3471176,36.5588855 C29.3470647,36.5589351 29.3470149,36.5590907 29.346962,36.5591436 C28.2453055,37.9583984 26.7864893,39.01754 25.1277035,39.6219894 C23.0465113,40.3819806 20.7000067,40.3819806 18.6163326,39.6219894 C16.9570835,39.0173844 15.4978537,37.9581932 14.3973322,36.5588854 Z M15.2135292,49.0406642 L15.2135292,41.8870811 L28.5309241,41.8870811 L28.5309241,49.0406642 L15.2135292,49.0406642 Z M23.9350272,65.9393942 C23.9350272,66.9151043 23.1411484,67.7089864 22.1650214,67.7089864 C21.189308,67.7089864 20.3954293,66.9151042 20.3954293,65.9393942 C20.3954293,64.9632673 21.189308,64.1693917 22.1650214,64.1693917 C23.1411484,64.1693917 23.9350272,64.9632673 23.9350272,65.9393942 Z" id="Shape"></path>
                            <path d="M44.2654909,46.7115137 C42.6802153,46.7115137 41.3904233,45.418826 41.3904233,43.8298306 C41.3904233,43.3624306 41.0114585,42.9834692 40.5440618,42.9834692 C40.0766585,42.9834692 39.6977003,43.3624306 39.6977003,43.8298306 C39.6977003,45.418826 38.4050093,46.7115137 36.816014,46.7115137 C36.3486172,46.7115137 35.9696525,47.0904751 35.9696525,47.5578718 C35.9696525,48.0252752 36.3486172,48.40424 36.816014,48.40424 C38.4050093,48.40424 39.6977003,49.6940321 39.6977003,51.2793077 C39.6977003,51.7467044 40.0766585,52.1256691 40.5440618,52.1256691 C41.0114585,52.1256691 41.3904233,51.7467044 41.3904233,51.2793077 C41.3904233,49.694032 42.6802153,48.40424 44.2654909,48.40424 C44.7328943,48.40424 45.1118524,48.0252753 45.1118524,47.5578718 C45.1118524,47.0904752 44.7328943,46.7115137 44.2654909,46.7115137 Z M40.5436448,48.6340135 C40.2465132,48.2182688 39.8815998,47.8537725 39.4650344,47.5574616 C39.8815997,47.2603234 40.2465132,46.8954167 40.5436448,46.4788446 C40.8399557,46.8954167 41.2044521,47.2603234 41.6201967,47.5574616 C41.204452,47.8537725 40.8399556,48.2182688 40.5436448,48.6340135 Z" id="Shape"></path>
                            <path d="M36.8160139,14.6117339 C38.4050092,14.6117339 39.6977002,15.9015276 39.6977002,17.4872169 C39.6977002,17.9546169 40.0766584,18.33358 40.5440617,18.33358 C41.0114584,18.33358 41.3904232,17.9546169 41.3904232,17.4872169 C41.3904232,15.9015276 42.6802153,14.6117339 44.2654908,14.6117339 C44.7328942,14.6117339 45.1118523,14.2327724 45.1118523,13.7653724 C45.1118523,13.2979724 44.7328942,12.9190093 44.2654908,12.9190093 C42.6802152,12.9190093 41.3904232,11.6263232 41.3904232,10.0373279 C41.3904232,9.56992785 41.0114584,9.19096641 40.5440617,9.19096641 C40.0766584,9.19096641 39.6977002,9.56992785 39.6977002,10.0373279 C39.6977002,11.6263232 38.4050092,12.9190093 36.8160139,12.9190093 C36.3486172,12.9190093 35.9696524,13.2979724 35.9696524,13.7653724 C35.9696524,14.2327724 36.3486172,14.6117339 36.8160139,14.6117339 Z M40.5436448,12.6863434 C40.8399557,13.1029121 41.2044521,13.4678222 41.6206137,13.7649588 C41.2044521,14.0612681 40.8399557,14.4257661 40.5436448,14.8419211 C40.2465132,14.4257661 39.8815998,14.0612681 39.4650344,13.7649588 C39.8815997,13.4678221 40.2465131,13.1029121 40.5436448,12.6863434 Z" id="Shape"></path>
                            <path d="M4.57035709,10.8869971 C6.15935243,10.8869971 7.45203848,12.1767891 7.45203848,13.7620664 C7.45203848,14.2294664 7.83099992,14.6084278 8.29839996,14.6084278 C8.7658,14.6084278 9.14476144,14.2294664 9.14476144,13.7620664 C9.14476144,12.176789 10.4345568,10.8869971 12.0202461,10.8869971 C12.4876462,10.8869971 12.8666076,10.508034 12.8666076,10.0406339 C12.8666076,9.57323388 12.4876462,9.19427244 12.0202461,9.19427244 C10.4345568,9.19427244 9.14476144,7.9015864 9.14476144,6.31258941 C9.14476144,5.84518937 8.7658,5.46622793 8.29839996,5.46622793 C7.83099992,5.46622793 7.45203848,5.84518937 7.45203848,6.31258941 C7.45203848,7.9015864 6.15935243,9.19427244 4.57035709,9.19427244 C4.10295541,9.19427244 3.72399397,9.57323388 3.72399397,10.0406339 C3.72399397,10.508034 4.10295541,10.8869971 4.57035709,10.8869971 Z M8.29798632,8.96160486 C8.59429727,9.37817353 8.95879366,9.74308529 9.37495199,10.0402202 C8.95879366,10.3365311 8.59429727,10.7010275 8.29798632,11.1171842 C8.00085141,10.7010275 7.63594138,10.3365311 7.21937263,10.0402202 C7.63594129,9.74308529 8.00085141,9.37817361 8.29798632,8.96160486 Z" id="Shape"></path>
                            <path d="M19.6118854,6.65435891 C21.8811105,6.65435891 23.7271549,8.49668359 23.7271549,10.761365 C23.7271549,11.228765 24.1061163,11.6077264 24.5735197,11.6077264 C25.0409197,11.6077264 25.4198811,11.228765 25.4198811,10.761365 C25.4198811,8.49668359 27.2622058,6.65435891 29.5264734,6.65435891 C29.9938735,6.65435891 30.3728349,6.27539582 30.3728349,5.80799578 C30.3728349,5.34059574 29.9938735,4.96163344 29.5264734,4.96163344 C27.2622057,4.96163344 25.4198811,3.11558831 25.4198811,0.846362348 C25.4198811,0.378962309 25.0409197,0 24.5735197,0 C24.1061163,0 23.7271549,0.378962309 23.7271549,0.846362348 C23.7271549,3.11558822 21.8811105,4.96163344 19.6118854,4.96163344 C19.1444854,4.96163344 18.7655207,5.34059574 18.7655207,5.80799578 C18.7655207,6.27539582 19.1444854,6.65435891 19.6118854,6.65435891 Z M24.5726923,3.86400758 C25.0557951,4.65623251 25.7223871,5.32365192 26.5133736,5.80758206 C25.7223871,6.29027451 25.0557952,6.95686656 24.5726923,7.74826501 C24.0891725,6.95686656 23.4217532,6.29027451 22.629529,5.80758206 C23.4217532,5.32365192 24.0891725,4.6562326 24.5726923,3.86400758 Z" id="Shape"></path>
                            <path d="M4.57366313,45.6122333 C5.04106317,45.6122333 5.42002461,45.2332718 5.42002461,44.7658718 C5.42002461,43.1801825 6.70981834,41.8903871 8.29509392,41.8903871 C8.76249396,41.8903871 9.1414554,41.5114257 9.1414554,41.0440256 C9.1414554,40.5766256 8.76249396,40.1976641 8.29509392,40.1976641 C6.70981825,40.1976641 5.42002461,38.9049765 5.42002461,37.3159811 C5.42002461,36.8485811 5.04106317,36.4696196 4.57366313,36.4696196 C4.10626309,36.4696196 3.7273,36.8485811 3.7273,37.3159811 C3.7273,38.9049765 2.43461396,40.1976641 0.845618622,40.1976641 C0.378218582,40.1976641 -0.000744506838,40.5766256 -0.000744506838,41.0440256 C-0.000744506838,41.5114257 0.378218582,41.8903871 0.845618622,41.8903871 C2.43461396,41.8903871 3.7273,43.1801825 3.7273,44.7658718 C3.72729992,45.2332717 4.10626309,45.6122333 4.57366313,45.6122333 Z M4.57324941,39.9649982 C4.86955871,40.3815669 5.23405675,40.746477 5.65021178,41.0436119 C5.23405675,41.3399229 4.86955871,41.7044192 4.57324941,42.1205743 C4.27611285,41.7044192 3.91120274,41.3399229 3.49463407,41.0436119 C3.91120282,40.746477 4.27611285,40.3815669 4.57324941,39.9649982 Z" id="Shape"></path>
                        </g>
                    </g>
                </g>
            </g>
        </g>
    </g>
</svg>