<?xml version="1.0" encoding="UTF-8"?>
<svg width="33px" height="35px" viewBox="0 0 33 35" version="1.1" xmlns="http://www.w3.org/2000/svg" xmlns:xlink="http://www.w3.org/1999/xlink">
    <!-- Generator: Sketch 61.1 (89650) - https://sketch.com -->
    <title>noun_bills_298594</title>
    <desc>Created with Sketch.</desc>
    <g id="Page-1" stroke="none" stroke-width="1" fill="none" fill-rule="evenodd">
        <g id="MY-ACCOUNT" transform="translate(-46.000000, -450.000000)" fill="#333F48" fill-rule="nonzero">
            <g id="HEADER-SIDE" transform="translate(-6.000000, 108.000000)">
                <g id="SEARCH-SIDE" transform="translate(6.000000, 73.000000)">
                    <g id="SHIPPING-ADDERES" transform="translate(0.000000, 240.000000)">
                        <g id="noun_bills_298594" transform="translate(46.000000, 29.000000)">
                            <path d="M6.5,8.5 L11.5,8.5 C12.053,8.5 12.5,8.053 12.5,7.5 C12.5,6.947 12.053,6.5 11.5,6.5 L6.5,6.5 C5.947,6.5 5.5,6.947 5.5,7.5 C5.5,8.053 5.947,8.5 6.5,8.5 Z M6.5,12.5 L11.5,12.5 C12.053,12.5 12.5,12.053 12.5,11.5 C12.5,10.947 12.053,10.5 11.5,10.5 L6.5,10.5 C5.947,10.5 5.5,10.947 5.5,11.5 C5.5,12.053 5.947,12.5 6.5,12.5 Z M19.5,15.5 C19.5,14.947 19.053,14.5 18.5,14.5 L6.5,14.5 C5.947,14.5 5.5,14.947 5.5,15.5 C5.5,16.053 5.947,16.5 6.5,16.5 L18.5,16.5 C19.053,16.5 19.5,16.053 19.5,15.5 Z M24.5,16.559 L24.5,9.5 C24.5,9.234 24.395,8.98 24.207,8.793 L16.207,0.793 C16.019,0.605 15.766,0.5 15.5,0.5 L5.5,0.5 C2.743,0.5 0.5,2.742 0.5,5.5 L0.5,21.5 C0.5,24.258 2.743,26.5 5.5,26.5 L14.559,26.5 C15.059,30.992 18.875,34.5 23.5,34.5 C28.463,34.5 32.5,30.463 32.5,25.5 C32.5,20.875 28.993,17.059 24.5,16.559 Z M16.5,3.914 L21.086,8.5 L19.5,8.5 C17.846,8.5 16.5,7.154 16.5,5.5 L16.5,3.914 Z M5.5,24.5 C3.846,24.5 2.5,23.154 2.5,21.5 L2.5,5.5 C2.5,3.846 3.846,2.5 5.5,2.5 L14.5,2.5 L14.5,5.5 C14.5,8.258 16.743,10.5 19.5,10.5 L22.5,10.5 L22.5,16.559 C18.335,17.022 15.021,20.336 14.559,24.5 L5.5,24.5 Z M23.5,32.5 C19.641,32.5 16.5,29.359 16.5,25.5 C16.5,21.641 19.641,18.5 23.5,18.5 C27.359,18.5 30.5,21.641 30.5,25.5 C30.5,29.359 27.359,32.5 23.5,32.5 Z M13.5,18.5 L6.5,18.5 C5.947,18.5 5.5,18.947 5.5,19.5 C5.5,20.053 5.947,20.5 6.5,20.5 L13.5,20.5 C14.053,20.5 14.5,20.053 14.5,19.5 C14.5,18.947 14.053,18.5 13.5,18.5 Z M24.5,24.5 L22.5,24.5 C21.948,24.5 21.5,24.052 21.5,23.5 C21.5,22.948 21.948,22.5 22.5,22.5 L24.5,22.5 C24.854,22.5 25.175,22.688 25.358,23.003 C25.544,23.322 25.879,23.5 26.223,23.5 C26.394,23.5 26.567,23.456 26.725,23.364 C27.203,23.087 27.364,22.474 27.086,21.997 C26.541,21.06 25.574,20.5 24.5,20.5 C24.5,19.947 24.053,19.5 23.5,19.5 C22.947,19.5 22.5,19.947 22.5,20.5 C20.846,20.5 19.5,21.846 19.5,23.5 C19.5,25.154 20.846,26.5 22.5,26.5 L24.5,26.5 C25.052,26.5 25.5,26.948 25.5,27.5 C25.5,28.052 25.052,28.5 24.5,28.5 L22.5,28.5 C22.146,28.5 21.825,28.312 21.642,27.997 C21.365,27.519 20.751,27.357 20.275,27.636 C19.797,27.913 19.636,28.526 19.914,29.003 C20.459,29.94 21.426,30.5 22.5,30.5 C22.5,31.053 22.947,31.5 23.5,31.5 C24.053,31.5 24.5,31.053 24.5,30.5 C26.154,30.5 27.5,29.154 27.5,27.5 C27.5,25.846 26.154,24.5 24.5,24.5 Z" id="Shape"></path>
                        </g>
                    </g>
                </g>
            </g>
        </g>
    </g>
</svg>