<?xml version="1.0" encoding="UTF-8"?>
<svg width="62px" height="62px" viewBox="0 0 62 62" version="1.1" xmlns="http://www.w3.org/2000/svg" xmlns:xlink="http://www.w3.org/1999/xlink">
    <!-- Generator: Sketch 62 (91390) - https://sketch.com -->
    <title>noun_Check_1956618</title>
    <desc>Created with Sketch.</desc>
    <g id="Page-1" stroke="none" stroke-width="1" fill="none" fill-rule="evenodd">
        <g id="THANKS-PAGE-ORDER" transform="translate(-103.000000, -197.000000)" fill="#333F48" fill-rule="nonzero">
            <g id="noun_Check_1956618" transform="translate(103.000000, 197.000000)">
                <path d="M31,62 C13.8791429,62 0,48.1208571 0,31 C0,13.8791429 13.8791429,0 31,0 C48.1208571,0 62,13.8791429 62,31 C62,48.1208571 48.1208571,62 31,62 Z M31.0803109,59.1088083 C46.5600226,59.1088083 59.1088083,46.5600226 59.1088083,31.0803109 C59.1088083,15.6005992 46.5600226,3.05181347 31.0803109,3.05181347 C15.6005992,3.05181347 3.05181347,15.6005992 3.05181347,31.0803109 C3.05181347,46.5600226 15.6005992,59.1088083 31.0803109,59.1088083 Z M38.9111361,24.0446277 C39.4897436,23.4669894 40.4278515,23.4669894 41.006459,24.0446278 C41.5850664,24.6222662 41.5850664,25.558803 41.0064589,26.1364414 L29.1684767,37.9545976 C28.8908634,38.2324475 28.513917,38.388601 28.1208153,38.388601 C27.7277136,38.388601 27.3507672,38.2324475 27.0731539,37.9545976 L21.1541628,32.0455195 C20.5755554,31.4678811 20.5755554,30.5313443 21.1541628,29.9537059 C21.7327702,29.3760675 22.6708782,29.3760675 23.2494856,29.9537058 L28.1208153,34.8198317 L38.9111361,24.0446277 L38.9111361,24.0446277 Z" id="Shape"></path>
            </g>
        </g>
    </g>
</svg>