<?xml version="1.0" encoding="UTF-8"?>
<svg width="11px" height="11px" viewBox="0 0 11 11" version="1.1" xmlns="http://www.w3.org/2000/svg" xmlns:xlink="http://www.w3.org/1999/xlink">
    <!-- Generator: Sketch 61 (89581) - https://sketch.com -->
    <title>Close</title>
    <desc>Created with Sketch.</desc>
    <g id="Page-1" stroke="none" stroke-width="1" fill="none" fill-rule="evenodd">
        <g id="CATEGORY-LIST-cart" transform="translate(-1402.000000, -204.000000)" fill="#03162C" fill-rule="nonzero">
            <g id="CART-SIDE" transform="translate(1085.000000, 107.000000)">
                <g id="ITEM-CART" transform="translate(13.000000, 91.000000)">
                    <g id="Close" transform="translate(304.000000, 6.000000)">
                        <g id="Group">
                            <path d="M0.516054619,10.2666667 C0.379676525,10.2674468 0.248595876,10.2138913 0.151768091,10.117822 C0.0546356285,10.0214549 0,9.89027599 0,9.75343017 C0,9.61658435 0.0546356285,9.48540542 0.151768091,9.38903836 L9.38720119,0.150936031 C9.58839108,-0.0503120104 9.91458435,-0.0503120104 10.1157742,0.150936031 C10.3169641,0.352184073 10.3169641,0.678471617 10.1157742,0.879719659 L0.880341147,10.117822 C0.783513361,10.2138913 0.652432712,10.2674468 0.516054619,10.2666667 L0.516054619,10.2666667 Z" id="Path"></path>
                            <path d="M10.4839454,10.2666667 C10.3475673,10.2674468 10.2164866,10.2138913 10.1196589,10.117822 L0.884225748,0.879719654 C0.68303586,0.678471611 0.683035862,0.352184071 0.884225754,0.150936031 C1.08541565,-0.0503120084 1.41160891,-0.0503120108 1.6127988,0.150936026 L10.8482319,9.38903836 C10.9453644,9.48540541 11,9.61658435 11,9.75343017 C11,9.89027599 10.9453644,10.0214549 10.8482319,10.117822 C10.7514041,10.2138913 10.6203235,10.2674468 10.4839454,10.2666667 Z" id="Path"></path>
                        </g>
                    </g>
                </g>
            </g>
        </g>
    </g>
</svg>