<?xml version="1.0" encoding="UTF-8"?>
<svg width="11px" height="11px" viewBox="0 0 11 11" version="1.1" xmlns="http://www.w3.org/2000/svg" xmlns:xlink="http://www.w3.org/1999/xlink">
    <!-- Generator: Sketch 63.1 (92452) - https://sketch.com -->
    <title>Path</title>
    <desc>Created with Sketch.</desc>
    <g id="Page-1" stroke="none" stroke-width="1" fill="none" fill-rule="evenodd">
        <path d="M5.5,13 C5.32192024,13 5.17755802,12.8556223 5.17755802,12.6775234 L5.17755802,5.82167044 L-1.67755804,5.82167044 C-1.85563782,5.82167044 -2,5.67729274 -2,5.49919378 C-2,5.32109488 -1.85563782,5.17671718 -1.67755804,5.17671718 L5.17755802,5.17671718 L5.17755802,-1.67752338 C5.17755802,-1.8556223 5.32192024,-2 5.5,-2 C5.67807976,-2 5.82244198,-1.8556223 5.82244198,-1.67752338 L5.82244198,5.17671718 L12.677558,5.17671718 C12.8556378,5.17671718 13,5.32109488 13,5.49919378 C13,5.67729274 12.8556378,5.82167044 12.677558,5.82167044 L5.82244198,5.82167044 L5.82244198,12.6775234 C5.82244198,12.8556223 5.67807976,13 5.5,13 Z" id="Path" fill="#333F48" fill-rule="nonzero" transform="translate(5.500000, 5.500000) rotate(-45.000000) translate(-5.500000, -5.500000) "></path>
    </g>
</svg>