<?xml version="1.0" encoding="UTF-8"?>
<svg width="99px" height="96px" viewBox="0 0 99 96" version="1.1" xmlns="http://www.w3.org/2000/svg" xmlns:xlink="http://www.w3.org/1999/xlink">
    <!-- Generator: Sketch 61.2 (89653) - https://sketch.com -->
    <title>Shape</title>
    <desc>Created with Sketch.</desc>
    <g id="Page-1" stroke="none" stroke-width="1" fill="none" fill-rule="evenodd">
        <g id="HOME---NEW" transform="translate(-210.000000, -2037.000000)" fill="#333F48" fill-rule="nonzero">
            <g id="SERVICE" transform="translate(131.000000, 1888.000000)">
                <g id="service-1" transform="translate(0.000000, 149.000000)">
                    <path d="M145.375,89.2354668 L147.625,89.2354668 L147.625,91.4903112 L145.375,91.4903112 L145.375,89.2354668 Z M143.125,89.2354668 L79,89.2354668 L79,91.4903112 L143.125,91.4903112 L143.125,89.2354668 Z M152.125,89.2354668 L152.125,91.4903112 L178,91.4903112 L178,89.2354668 L152.125,89.2354668 Z M109.375,96 L111.625,96 L111.625,93.7451556 L109.375,93.7451556 L109.375,96 Z M113.875,96 L178,96 L178,93.7451556 L113.875,93.7451556 L113.875,96 Z M79,96 L104.875,96 L104.875,93.7451556 L79,93.7451556 L79,96 Z M144.25,55.4128009 L112.75,55.4128009 L112.75,57.6676453 L144.25,57.6676453 L144.25,55.4128009 Z M144.25,59.9224897 L112.75,59.9224897 L112.75,62.1773341 L144.25,62.1773341 L144.25,59.9224897 Z M144.25,64.4321785 L112.75,64.4321785 L112.75,66.6870229 L144.25,66.6870229 L144.25,64.4321785 Z M144.25,68.9418673 L112.75,68.9418673 L112.75,71.1967117 L144.25,71.1967117 L144.25,68.9418673 Z M144.25,73.4515561 L112.75,73.4515561 L112.75,75.7064005 L144.25,75.7064005 L144.25,73.4515561 Z M141.6175,31.1619495 L139.62625,32.2104521 L144.12625,40.9141515 L138.8725,38.1519671 L138.14125,44.0483852 L133.64125,35.3446858 L131.63875,36.3819143 L139.51375,51.5006459 L140.7625,41.6582501 L149.515,46.2806812 L141.6175,31.1619495 Z M115.3825,31.1619495 L107.5075,46.2806812 L116.26,41.6582501 L117.475,51.5006459 L125.35,36.3819143 L123.3475,35.3446858 L118.8475,44.0483852 L118.1275,38.1519671 L112.8625,40.9141515 L117.3625,32.2104521 L115.3825,31.1619495 Z M97,86.9806224 L97,84.725778 L99.25,84.725778 L99.25,82.4709336 L97,82.4709336 L97,80.2160893 L94.75,80.2160893 L94.75,82.4709336 L92.5,82.4709336 L92.5,84.725778 L94.75,84.725778 L94.75,86.9806224 L97,86.9806224 Z M93.79375,10.1242513 L95.38,8.5233118 L97,10.1242513 L98.58625,8.5233118 L97,6.93364651 L98.5975,5.34398121 L97,3.74304169 L95.4025,5.34398121 L93.81625,3.74304169 L92.21875,5.34398121 L93.79375,6.93364651 L92.19625,8.5233118 L93.79375,10.1242513 Z M160,10.3159131 L162.25,10.3159131 L162.25,8.0610687 L164.5,8.0610687 L164.5,5.80622431 L162.25,5.80622431 L162.25,3.55137992 L160,3.55137992 L160,5.80622431 L157.75,5.80622431 L157.75,8.0610687 L160,8.0610687 L160,10.3159131 Z M158.875,86.7889607 L160.46125,85.1880211 L162.0475,86.7889607 L163.645,85.1880211 L162.08125,83.5983558 L163.67875,82.0086905 L162.08125,80.407751 L160.495,82.0086905 L158.875,80.407751 L157.2775,82.0086905 L158.875,83.5983558 L157.2775,85.1880211 L158.875,86.7889607 Z M120.625,17.4524956 C120.625,13.093889 124.150758,9.56054022 128.5,9.56054022 C132.849242,9.56054022 136.375,13.093889 136.375,17.4524956 C136.375,21.8111022 132.849242,25.344451 128.5,25.344451 C124.150758,25.344451 120.625,21.8111022 120.625,17.4524956 L120.625,17.4524956 Z M122.875,17.4524956 C122.875,20.565786 125.393398,23.0896066 128.5,23.0896066 C131.606602,23.0896066 134.125,20.565786 134.125,17.4524956 C134.125,14.3392052 131.606602,11.8153846 128.5,11.8153846 C125.393398,11.8153846 122.875,14.3392052 122.875,17.4524956 Z M152.125,59.9224897 L154.375,59.9224897 L154.375,57.6676453 L152.125,57.6676453 L152.125,59.9224897 Z M102.625,79.0886671 L102.625,24.9724016 C102.625,20.613795 106.150758,17.0804463 110.5,17.0804463 L112.75,17.0804463 C112.345744,16.8557273 111.88223,16.7612502 111.4225,16.8098649 L111.4225,16.4378156 C111.293534,16.4143776 111.165864,16.3842728 111.04,16.3476218 L111.32125,15.4795068 L111.22,14.5662948 L111.625,14.5662948 L111.74875,14.2055197 C112.514415,14.453235 113.353789,14.2727766 113.950688,13.7321214 C114.547587,13.1914662 114.811329,12.3727527 114.642563,11.5843821 C114.473798,10.7960116 113.898165,10.1577564 113.1325,9.9100411 L113.25625,9.549266 C113.147509,9.47949677 113.042374,9.40423837 112.94125,9.32378156 L113.54875,8.63605402 L113.83,7.76793893 L114.19,7.92577804 L114.4375,7.64392249 C114.881551,8.04571273 115.466993,8.25373045 116.064421,8.22199644 C116.66185,8.19026242 117.222069,7.92138991 117.62125,7.47480916 C118.448727,6.54945984 118.373261,5.12763632 117.4525,4.29547857 L117.71125,4.01362302 C117.64375,3.88960658 117.565,3.78813858 117.50875,3.66412214 L118.3525,3.29207281 L118.96,2.6156195 C119.052113,2.70796981 119.138523,2.80586127 119.21875,2.90874927 L119.5675,2.75091016 C119.936428,3.58804281 120.773648,4.11868677 121.686491,4.09396221 C122.599334,4.06923766 123.406731,3.49404891 123.73,2.63816794 C123.958134,2.08590896 123.958134,1.46547095 123.73,0.913211979 L124.0675,0.766647093 C124.0675,0.63135643 124.0675,0.507339988 124.0675,0.372049325 L124.97875,0.372049325 L125.81125,0 C125.8675,0.124016442 125.89,0.248032883 125.935,0.372049325 L126.25,0.372049325 C126.25,1.6173655 127.257359,2.62689372 128.5,2.62689372 C129.742641,2.62689372 130.75,1.6173655 130.75,0.372049325 L131.1325,0.372049325 C131.1325,0.248032883 131.2,0.124016442 131.25625,0 L132.08875,0.372049325 L133,0.372049325 C133,0.507339988 133,0.63135643 133,0.766647093 L133.3375,0.913211979 C133.109366,1.46547095 133.109366,2.08590896 133.3375,2.63816794 C133.660769,3.49404891 134.468166,4.06923766 135.381009,4.09396221 C136.293852,4.11868677 137.131072,3.58804281 137.5,2.75091016 L137.84875,2.90874927 C137.928977,2.80586127 138.015387,2.70796981 138.1075,2.6156195 L138.715,3.29207281 L139.5475,3.66412214 C139.498805,3.78612971 139.438529,3.90316752 139.3675,4.01362302 L139.615,4.29547857 C139.012114,4.83521603 138.742353,5.65628222 138.907332,6.44938943 C139.072311,7.24249665 139.646967,7.88715304 140.414832,8.14052276 C141.182697,8.39389249 142.027114,8.21748266 142.63,7.67774516 L142.8775,7.9596007 L143.2375,7.8017616 L143.51875,8.66987669 L144.12625,9.35760423 C144.025126,9.43806104 143.919991,9.51331944 143.81125,9.58308867 L143.935,9.94386377 C143.363746,10.1286651 142.889864,10.5345651 142.61875,11.071286 C142.205685,11.8838651 142.321693,12.8657881 142.912686,13.5592322 C143.503679,14.2526764 144.453286,14.5210969 145.31875,14.2393423 L145.4425,14.6001174 L145.83625,14.6001174 L145.735,15.5133294 L146.01625,16.3814445 C145.890386,16.4180955 145.762716,16.4482002 145.63375,16.4716383 L145.63375,16.8436876 C145.159065,16.7668815 144.672367,16.8501553 144.25,17.0804463 L146.5,17.0804463 C150.849242,17.0804463 154.375,20.613795 154.375,24.9724016 L154.375,53.1579565 L152.125,53.1579565 L152.125,24.9724016 C152.125,21.8591112 149.606602,19.3352907 146.5,19.3352907 L143.0575,19.3352907 C143.108369,19.7475399 143.271882,20.1376954 143.53,20.4627129 C143.906894,20.9285393 144.453431,21.2247108 145.04875,21.2857311 L145.04875,21.6577804 C145.171832,21.7073118 145.292024,21.7637729 145.40875,21.8268937 L144.9475,22.6160893 L144.8575,23.5293012 L144.475,23.4503817 L144.25,23.8449794 C143.732515,23.5451729 143.117259,23.4640438 142.54,23.619495 C141.965798,23.7749479 141.476377,24.1519249 141.17875,24.6679977 C140.879588,25.1865967 140.798633,25.803178 140.95375,26.3816794 C141.121849,26.9361533 141.496513,27.4044828 142,27.6894891 L141.80875,28.0164416 C141.89875,28.1179096 141.98875,28.2081033 142.0675,28.3095713 L141.33625,28.850734 L140.875,29.6399295 C140.765533,29.5712406 140.660339,29.49594 140.56,29.4144451 L140.25625,29.6399295 C139.904965,29.154479 139.375193,28.8292535 138.784072,28.7361632 C138.192952,28.6430728 137.589178,28.7897862 137.10625,29.1438638 C136.624698,29.4939598 136.301102,30.0209348 136.20625,30.6095126 C136.113271,31.2011468 136.258987,31.8055443 136.61125,32.2893717 L136.3075,32.5148561 C136.3075,32.6388726 136.3975,32.762889 136.42,32.8869055 L135.53125,33.0785672 L134.78875,33.6197299 C134.71,33.5069877 134.65375,33.3942454 134.58625,33.2815032 L134.215,33.3604228 C134.095188,32.7732607 133.747058,32.2580541 133.2475,31.9285966 C132.744128,31.6048949 132.132865,31.4953609 131.54875,31.6241926 C130.334616,31.8833934 129.559352,33.0790635 129.81625,34.2961832 L129.445,34.3751028 C129.455857,34.5026456 129.455857,34.6308834 129.445,34.7584263 L128.5,34.5667645 L127.61125,34.7584263 C127.600393,34.6308834 127.600393,34.5026456 127.61125,34.3751028 L127.24,34.2961832 C127.497848,33.0757734 126.719663,31.8769587 125.501875,31.6185556 C124.284087,31.3601525 123.087848,32.140013 122.83,33.3604228 L122.47,33.2815032 C122.4025,33.3942454 122.34625,33.5069877 122.2675,33.6197299 L121.525,33.0785672 L120.625,32.864357 C120.655758,32.7383928 120.693313,32.6141939 120.7375,32.4923077 L120.43375,32.2668233 C120.768333,31.7840016 120.901545,31.1893264 120.805,30.6095126 C120.710148,30.0209348 120.386552,29.4939598 119.905,29.1438638 C119.422212,28.790842 118.819113,28.6448131 118.22875,28.7379918 C117.641437,28.8330481 117.115594,29.1573404 116.76625,29.6399295 L116.45125,29.4144451 C116.350911,29.49594 116.245717,29.5712406 116.13625,29.6399295 L115.675,28.850734 L115,28.3546682 C115.07875,28.2532002 115.16875,28.1630065 115.25875,28.0615385 L115,27.6894891 C115.514964,27.3912218 115.891131,26.9007463 116.04625,26.3253083 C116.201367,25.7468069 116.120412,25.1302256 115.82125,24.6116265 C115.523623,24.0955538 115.034202,23.7185768 114.46,23.5631239 C113.875311,23.4245009 113.259585,23.5259897 112.75,23.8449794 L112.55875,23.5067528 L112.17625,23.5969466 L112.08625,22.6837346 L111.625,21.894539 C111.741726,21.8314183 111.861918,21.7749572 111.985,21.7254257 L111.985,21.3533764 C113.027747,21.2214283 113.840422,20.3836004 113.9425,19.3352907 L110.5,19.3352907 C107.393398,19.3352907 104.875,21.8591112 104.875,24.9724016 L104.875,79.0886671 C104.875,82.2019575 107.393398,84.725778 110.5,84.725778 L146.5,84.725778 C149.606602,84.725778 152.125,82.2019575 152.125,79.0886671 L152.125,62.1773341 L154.375,62.1773341 L154.375,79.0886671 C154.375,83.4472737 150.849242,86.9806224 146.5,86.9806224 L110.5,86.9806224 C106.150758,86.9806224 102.625,83.4472737 102.625,79.0886671 Z M116.62,10.4061069 C117.437833,12.4099299 116.69095,14.7126143 114.85375,15.8515561 C116.387174,17.3385804 116.638271,19.712522 115.45,21.4886671 C117.47817,22.2197381 118.681881,24.3128872 118.29625,26.4380505 C119.338317,26.3675478 120.372404,26.6624988 121.22125,27.2723429 C122.061685,27.9032503 122.648458,28.8153069 122.875,29.8428655 C123.796575,29.3559044 124.858201,29.2044862 125.87875,29.4144451 C126.918498,29.6230826 127.848791,30.1992654 128.5,31.0379331 C129.822466,29.300935 132.212999,28.7930509 134.125,29.8428655 C134.372955,28.8251271 134.975369,27.9295556 135.82375,27.3174398 C136.672596,26.7075957 137.706683,26.4126447 138.74875,26.4831474 C138.387334,24.3893569 139.563918,22.3341888 141.55,21.5901351 C140.361729,19.81399 140.612826,17.4400484 142.14625,15.9530241 C140.30905,14.8140823 139.562167,12.5113979 140.38,10.5075749 C139.344092,10.3683265 138.391206,9.86488662 137.69125,9.0870229 C137.004902,8.30898498 136.607531,7.31740031 136.56625,6.27974163 C136.173643,6.38637454 135.769231,6.44318991 135.3625,6.44885496 C134.730088,6.45061112 134.104696,6.31603546 133.52875,6.05425719 C132.582197,5.62062303 131.814893,4.87158864 131.3575,3.93470346 C129.708498,5.33438591 127.291502,5.33438591 125.6425,3.93470346 C125.185107,4.87158864 124.417803,5.62062303 123.47125,6.05425719 C122.893921,6.31180997 122.269442,6.4461892 121.6375,6.44885496 C121.229332,6.44111221 120.824214,6.37660903 120.43375,6.25719319 C120.397615,7.30268286 119.999913,8.30306239 119.30875,9.0870229 C118.588981,9.8213461 117.640202,10.2868113 116.62,10.4061069 Z" id="Shape"></path>
                </g>
            </g>
        </g>
    </g>
</svg>