<?xml version="1.0" encoding="UTF-8"?>
<svg width="16px" height="18px" viewBox="0 0 16 18" version="1.1" xmlns="http://www.w3.org/2000/svg" xmlns:xlink="http://www.w3.org/1999/xlink">
    <!-- Generator: Sketch 61.2 (89653) - https://sketch.com -->
    <title>086__empty</title>
    <desc>Created with Sketch.</desc>
    <g id="Page-1" stroke="none" stroke-width="1" fill="none" fill-rule="evenodd">
        <g id="CART" transform="translate(-1340.000000, -604.000000)" fill="#333F48" fill-rule="nonzero">
            <g id="PRODUCTS-ORIZZONTALI" transform="translate(429.000000, 40.000000)">
                <g id="CART">
                    <g id="ITEM-PRODUCT--1" transform="translate(0.000000, 546.000000)">
                        <g id="086__empty" transform="translate(911.000000, 18.000000)">
                            <path d="M15,7.5 L1,7.5 C0.7,7.5 0.5,7.3 0.5,7 L0.5,5 C0.5,4.2 1.2,3.5 2,3.5 L14,3.5 C14.8,3.5 15.5,4.2 15.5,5 L15.5,7 C15.5,7.2 15.3,7.5 15,7.5 Z M1.5,6.5 L14.5,6.5 L14.5,5 C14.5,4.7 14.3,4.5 14,4.5 L2,4.5 C1.7,4.5 1.5,4.7 1.5,5 L1.5,6.5 Z" id="Shape"></path>
                            <path d="M12,17.5 L4,17.5 C2.6,17.5 1.5,16.4 1.5,15 L1.5,7 C1.5,6.7 1.7,6.5 2,6.5 C2.3,6.5 2.5,6.7 2.5,7 L2.5,15 C2.5,15.8 3.2,16.5 4,16.5 L12,16.5 C12.8,16.5 13.5,15.8 13.5,15 L13.5,7 C13.5,6.7 13.7,6.5 14,6.5 C14.3,6.5 14.5,6.7 14.5,7 L14.5,15 C14.5,16.4 13.4,17.5 12,17.5 Z" id="Path"></path>
                            <path d="M10.5,4 L9.5,4 L9.5,2 C9.5,1.7 9.3,1.5 9,1.5 L7,1.5 C6.7,1.5 6.5,1.7 6.5,2 L6.5,4 L5.5,4 L5.5,2 C5.5,1.2 6.2,0.5 7,0.5 L9,0.5 C9.8,0.5 10.5,1.2 10.5,2 L10.5,4 Z" id="Path"></path>
                            <path d="M5,14.5 C4.7,14.5 4.5,14.3 4.5,14 L4.5,10 C4.5,9.7 4.7,9.5 5,9.5 C5.3,9.5 5.5,9.7 5.5,10 L5.5,14 C5.5,14.3 5.3,14.5 5,14.5 Z" id="Path"></path>
                            <path d="M8,14.5 C7.7,14.5 7.5,14.3 7.5,14 L7.5,10 C7.5,9.7 7.7,9.5 8,9.5 C8.3,9.5 8.5,9.7 8.5,10 L8.5,14 C8.5,14.3 8.3,14.5 8,14.5 Z" id="Path"></path>
                            <path d="M11,14.5 C10.7,14.5 10.5,14.3 10.5,14 L10.5,10 C10.5,9.7 10.7,9.5 11,9.5 C11.3,9.5 11.5,9.7 11.5,10 L11.5,14 C11.5,14.3 11.3,14.5 11,14.5 Z" id="Path"></path>
                        </g>
                    </g>
                </g>
            </g>
        </g>
    </g>
</svg>