<?xml version="1.0" encoding="UTF-8"?>
<svg width="101px" height="103px" viewBox="0 0 101 103" version="1.1" xmlns="http://www.w3.org/2000/svg" xmlns:xlink="http://www.w3.org/1999/xlink">
    <!-- Generator: Sketch 61.2 (89653) - https://sketch.com -->
    <title>Group</title>
    <desc>Created with Sketch.</desc>
    <g id="Page-1" stroke="none" stroke-width="1" fill="none" fill-rule="evenodd">
        <g id="HOME---NEW" transform="translate(-504.000000, -2033.000000)" fill="#333F48" fill-rule="nonzero">
            <g id="SERVICE" transform="translate(131.000000, 1888.000000)">
                <g id="service-2" transform="translate(298.000000, 146.000000)">
                    <g id="Group" transform="translate(76.000000, 0.000000)">
                        <path d="M49.5,101 C22.2062727,101 0,78.3459504 0,50.5 C0,22.6540496 22.2062727,0 49.5,0 C76.7937273,0 99,22.6540496 99,50.5 C99,78.3459504 76.7937273,101 49.5,101 Z M49.5,1.66942149 C23.1079091,1.66942149 1.63636364,23.5747355 1.63636364,50.5 C1.63636364,77.4252645 23.1079091,99.3305785 49.5,99.3305785 C75.8920909,99.3305785 97.3636364,77.4252645 97.3636364,50.5 C97.3636364,23.5747355 75.8920909,1.66942149 49.5,1.66942149 Z" id="Shape" stroke="#333F48"></path>
                        <g transform="translate(5.000000, 5.000000)">
                            <g transform="translate(24.679107, 26.852459)" id="Shape">
                                <path d="M19.9415412,36.5755666 C19.7868854,36.5755666 19.6322297,36.5310922 19.4981399,36.4429826 C19.2620431,36.2885809 19.1189043,36.0225738 19.1189043,35.7364273 L19.1189043,16.4169221 C19.1189043,16.078749 19.3179824,15.7724631 19.6240033,15.6423965 L38.2123068,7.7251168 C38.4665016,7.61686783 38.7560698,7.64455943 38.9855855,7.80147848 C39.2142785,7.95671926 39.3516589,8.21936988 39.3516589,8.49964242 L39.3516589,27.015252 C39.3516589,27.3433555 39.1640977,27.6404109 38.8728842,27.7780297 L20.2854034,36.4992049 C20.1759927,36.5503924 20.0591782,36.5755666 19.9415412,36.5755666 Z M20.7641781,16.9757889 L20.7641781,34.4273699 L37.7072077,26.4782029 L37.7072077,9.75919057 L20.7641781,16.9757889 Z"></path>
                                <g>
                                    <path d="M19.8757302,36.7786383 C19.7580931,36.7786383 19.6404561,36.752625 19.5302227,36.7014375 L0.611219219,27.7780297 C0.320005755,27.6404109 0.134089815,27.3433555 0.134089815,27.0160912 L0.134089815,8.43251127 C0.134089815,8.15307787 0.270647541,7.89126639 0.498517963,7.73518648 C0.726388385,7.57826742 1.01595657,7.54973668 1.26932874,7.65546824 L20.1883322,15.5719088 C20.4968211,15.7011363 20.6983671,16.0082613 20.6983671,16.3481127 L20.6983671,35.9378207 C20.6983671,36.2239672 20.5552283,36.4908135 20.3191315,36.644376 C20.184219,36.7333248 20.0312086,36.7786383 19.8757302,36.7786383 Z M1.77936362,26.4798811 L19.0530933,34.627085 L19.0530933,16.9128535 L1.77936362,9.68450717 L1.77936362,26.4798811 Z"></path>
                                    <path d="M19.9415412,17.2560615 C19.8345984,17.2560615 19.7284782,17.235083 19.6281165,17.1922869 L0.643302058,9.20787602 C0.332345309,9.07697029 0.130799268,8.76648873 0.13405012,8.42328074 C0.137380363,8.08007275 0.345507499,7.77378689 0.658932159,7.64959426 L19.4454911,0.199715164 C19.6363429,0.122514344 19.8510511,0.123353484 20.0443708,0.200554303 L38.8309297,7.71756455 C39.1427091,7.84259631 39.349191,8.14804303 39.3533443,8.48957275 C39.3565947,8.83110246 39.1575166,9.14074488 38.8482051,9.27332889 L20.2599016,17.1906086 C20.157072,17.2342439 20.0493066,17.2560615 19.9415412,17.2560615 Z M3.16961999,8.45600717 L19.9407185,15.5089734 L36.3383399,8.5248166 L19.742463,1.88470697 L3.16961999,8.45600717 Z"></path>
                                </g>
                            </g>
                            <g>
                                <g id="Shape">
                                    <path d="M44.4223927,8.35195389 C42.1930467,8.35195389 40.3791324,6.50165164 40.3791324,4.22758402 C40.3791324,1.95351639 42.1930467,0.103214139 44.4223927,0.103214139 C46.6517388,0.103214139 48.4656531,1.95351639 48.4656531,4.22758402 C48.4656531,6.50165164 46.6517388,8.35195389 44.4223927,8.35195389 Z M44.4223927,1.78149283 C43.1004152,1.78149283 42.0244062,2.87908709 42.0244062,4.22758402 C42.0244062,5.57608094 43.1004152,6.6736752 44.4223927,6.6736752 C45.7443702,6.6736752 46.8203793,5.57608094 46.8203793,4.22758402 C46.8203793,2.87908709 45.7443702,1.78149283 44.4223927,1.78149283 Z"></path>
                                    <path d="M15.9418805,20.384373 C14.9061807,20.384373 13.8704808,19.9824252 13.0823947,19.1776906 C12.318165,18.3989693 11.8977975,17.3626322 11.8977975,16.2616814 C11.8977975,15.1598914 12.3189876,14.1243934 13.0823947,13.344833 C14.658567,11.7362029 17.2243715,11.7362029 18.8005438,13.344833 L18.8005438,13.344833 C20.3767161,14.9534631 20.3767161,17.5690605 18.8005438,19.1776906 C18.0124576,19.9824252 16.9775804,20.384373 15.9418805,20.384373 Z M15.9418805,13.8164293 C15.3281934,13.8164293 14.7136836,14.0547449 14.2456032,14.5322152 C13.7923303,14.9945809 13.5430713,15.6088309 13.5430713,16.2625205 C13.5430713,16.9153709 13.7931529,17.5296209 14.2456032,17.9919867 C15.181764,18.9469273 16.7028197,18.945249 17.6373352,17.9919867 C18.5718507,17.0378852 18.5718507,15.4863166 17.6373352,14.5322152 C17.1700774,14.0547449 16.5555677,13.8164293 15.9418805,13.8164293 Z"></path>
                                    <path d="M4.14444472,49.4378945 C1.91509871,49.4378945 0.101184339,47.5875922 0.101184339,45.3135246 C0.101184339,43.039457 1.91509871,41.1891547 4.14444472,41.1891547 C6.37379072,41.1891547 8.18770509,43.039457 8.18770509,45.3135246 C8.18770509,47.5875922 6.37379072,49.4378945 4.14444472,49.4378945 Z M4.14444472,42.8674334 C2.82246721,42.8674334 1.74645814,43.9650277 1.74645814,45.3135246 C1.74645814,46.6620215 2.82246721,47.7596158 4.14444472,47.7596158 C5.46642222,47.7596158 6.54243129,46.6620215 6.54243129,45.3135246 C6.54243129,43.9650277 5.46724486,42.8674334 4.14444472,42.8674334 Z"></path>
                                    <path d="M15.9418805,78.4880594 C14.9061807,78.4880594 13.8704808,78.0861117 13.0823947,77.281377 C12.318165,76.5026557 11.8977975,75.4663186 11.8977975,74.3645287 C11.8977975,73.2627387 12.3189876,72.2272408 13.0823947,71.4485195 C14.658567,69.8398893 17.2243715,69.8398893 18.8005438,71.4485195 C20.3767161,73.0571496 20.3767161,75.6727469 18.8005438,77.281377 C18.0124576,78.0861117 16.9775804,78.4880594 15.9418805,78.4880594 Z M15.9418805,71.9209549 C15.3273708,71.9209549 14.7136836,72.1592705 14.2456032,72.6367408 L14.2456032,72.6367408 C13.7923303,73.0991066 13.5430713,73.7133566 13.5430713,74.366207 C13.5430713,75.0198965 13.7931529,75.6341465 14.2456032,76.0965123 C15.181764,77.0514529 16.7028197,77.0497746 17.6373352,76.0965123 C18.5718507,75.1424109 18.5718507,73.5908422 17.6373352,72.6367408 C17.1700774,72.1592705 16.5555677,71.9209549 15.9418805,71.9209549 Z"></path>
                                    <path d="M44.4223927,90.523835 C42.1930467,90.523835 40.3791324,88.6735328 40.3791324,86.3994652 C40.3791324,84.1253975 42.1930467,82.2750953 44.4223927,82.2750953 C46.6517388,82.2750953 48.4656531,84.1253975 48.4656531,86.3994652 C48.4656531,88.6735328 46.6517388,90.523835 44.4223927,90.523835 Z M44.4223927,83.953374 C43.1004152,83.953374 42.0244062,85.0509682 42.0244062,86.3994652 C42.0244062,87.7479621 43.1004152,88.8455564 44.4223927,88.8455564 C45.7443702,88.8455564 46.8203793,87.7479621 46.8203793,86.3994652 C46.8203793,85.0509682 45.7443702,83.953374 44.4223927,83.953374 Z"></path>
                                    <path d="M72.902905,78.4880594 C71.8672051,78.4880594 70.8315052,78.0861117 70.0434191,77.281377 L70.0434191,77.281377 C68.4672468,75.6727469 68.4672468,73.0571496 70.0434191,71.4485195 C71.6195914,69.8398893 74.1853959,69.8398893 75.7615682,71.4485195 C76.5257979,72.2272408 76.9461653,73.2635779 76.9461653,74.3645287 C76.9461653,75.4663186 76.5249752,76.5018166 75.7615682,77.281377 C74.9743047,78.0861117 73.9386048,78.4880594 72.902905,78.4880594 Z M71.2074503,76.0956732 C72.1427885,77.0497746 73.6638441,77.0497746 74.5991822,76.0956732 C75.0524552,75.6333074 75.3017142,75.0190574 75.3017142,74.3653678 C75.3017142,73.7125174 75.0516325,73.0982674 74.5991822,72.6359016 C73.6638441,71.6818002 72.1427885,71.6834785 71.2074503,72.6359016 C70.2729348,73.5900031 70.2729348,75.1415717 71.2074503,76.0956732 L71.2074503,76.0956732 Z"></path>
                                    <path d="M84.7003408,49.4378945 C82.4709948,49.4378945 80.6570804,47.5875922 80.6570804,45.3135246 C80.6570804,43.039457 82.4709948,41.1891547 84.7003408,41.1891547 C86.9296868,41.1891547 88.7436012,43.039457 88.7436012,45.3135246 C88.7436012,47.5875922 86.9296868,49.4378945 84.7003408,49.4378945 Z M84.7003408,42.8674334 C83.3783633,42.8674334 82.3023542,43.9650277 82.3023542,45.3135246 C82.3023542,46.6620215 83.3783633,47.7596158 84.7003408,47.7596158 C86.0223183,47.7596158 87.0983273,46.6620215 87.0983273,45.3135246 C87.0983273,43.9650277 86.0223183,42.8674334 84.7003408,42.8674334 Z"></path>
                                    <path d="M72.902905,20.384373 C71.8672051,20.384373 70.8315052,19.9824252 70.0434191,19.1776906 C68.4672468,17.5690605 68.4672468,14.9534631 70.0434191,13.344833 C71.6195914,11.7362029 74.1853959,11.7362029 75.7615682,13.344833 C76.5257979,14.1235543 76.9461653,15.1598914 76.9461653,16.2616814 C76.9461653,17.3634713 76.5249752,18.3989693 75.7615682,19.1776906 C74.9743047,19.9824252 73.9386048,20.384373 72.902905,20.384373 Z M72.902905,13.8164293 C72.2883952,13.8164293 71.6747081,14.0547449 71.2066277,14.5322152 C70.2721121,15.4863166 70.2721121,17.0378852 71.2066277,17.9919867 C72.1436111,18.9469273 73.6646667,18.945249 74.5983596,17.9919867 L74.5983596,17.9919867 C75.0516325,17.5296209 75.3008915,16.9153709 75.3008915,16.2625205 C75.3008915,15.6088309 75.0508099,14.9945809 74.5983596,14.5322152 C74.1311018,14.0547449 73.5165921,13.8164293 72.902905,13.8164293 Z"></path>
                                </g>
                                <g transform="translate(10.694280, 10.908811)" id="Path">
                                    <path d="M33.728113,10.1678514 C33.2731948,10.1678514 32.9054761,9.79191701 32.9054761,9.32871209 L32.9054761,1.12696414 C32.9054761,0.663759221 33.2731948,0.287824795 33.728113,0.287824795 C34.1830312,0.287824795 34.5507499,0.663759221 34.5507499,1.12696414 L34.5507499,9.32871209 C34.5507499,9.79191701 34.1830312,10.1678514 33.728113,10.1678514 Z"></path>
                                    <path d="M16.3449726,17.511999 C16.1343776,17.511999 15.9237825,17.4297633 15.7633683,17.2661311 L10.0781247,11.466 C9.75647367,11.1378965 9.75647367,10.6075605 10.0781247,10.279457 C10.3997757,9.95135348 10.9196822,9.95135348 11.2413333,10.279457 L16.9265769,16.0795881 C17.2482279,16.4076916 17.2482279,16.9380277 16.9265769,17.2661311 C16.7661627,17.4297633 16.5555677,17.511999 16.3449726,17.511999 Z"></path>
                                    <path d="M9.14525445,35.2438525 L1.10397872,35.2438525 C0.649060516,35.2438525 0.281341821,34.867918 0.281341821,34.4047131 C0.281341821,33.9415082 0.649060516,33.5655738 1.10397872,33.5655738 L9.14525445,33.5655738 C9.60017265,33.5655738 9.96789135,33.9415082 9.96789135,34.4047131 C9.96789135,34.867918 9.60017265,35.2438525 9.14525445,35.2438525 Z"></path>
                                    <path d="M10.659729,58.774998 C10.4491339,58.774998 10.2385389,58.6927623 10.0781247,58.5291301 C9.75647367,58.2010266 9.75647367,57.6706906 10.0781247,57.3425871 L15.7633683,51.5424559 C16.0850194,51.2143525 16.6049259,51.2143525 16.9265769,51.5424559 C17.2482279,51.8705594 17.2482279,52.4008955 16.9265769,52.728999 L11.2413333,58.5291301 C11.0809191,58.6936014 10.870324,58.774998 10.659729,58.774998 Z"></path>
                                    <path d="M33.728113,68.5224406 C33.2731948,68.5224406 32.9054761,68.1465061 32.9054761,67.6833012 L32.9054761,59.4815533 C32.9054761,59.0183484 33.2731948,58.6424139 33.728113,58.6424139 C34.1830312,58.6424139 34.5507499,59.0183484 34.5507499,59.4815533 L34.5507499,67.6833012 C34.5507499,68.1465061 34.1830312,68.5224406 33.728113,68.5224406 Z"></path>
                                    <path d="M56.796497,58.774998 C56.585902,58.774998 56.3753069,58.6927623 56.2148927,58.5291301 L50.5296491,52.728999 C50.2079981,52.4008955 50.2079981,51.8705594 50.5296491,51.5424559 C50.8513001,51.2143525 51.3712067,51.2143525 51.6928577,51.5424559 L57.3781013,57.3425871 C57.6997524,57.6706906 57.6997524,58.2010266 57.3781013,58.5291301 C57.2176871,58.6936014 57.0070921,58.774998 56.796497,58.774998 Z"></path>
                                    <path d="M66.3522473,35.2438525 L58.3109716,35.2438525 C57.8560534,35.2438525 57.4883347,34.867918 57.4883347,34.4047131 C57.4883347,33.9415082 57.8560534,33.5655738 58.3109716,33.5655738 L66.3522473,33.5655738 C66.8071655,33.5655738 67.1748842,33.9415082 67.1748842,34.4047131 C67.1748842,34.867918 66.8071655,35.2438525 66.3522473,35.2438525 Z"></path>
                                    <path d="M51.1112534,17.511999 C50.9006584,17.511999 50.6900633,17.4297633 50.5296491,17.2661311 C50.2079981,16.9380277 50.2079981,16.4076916 50.5296491,16.0795881 L56.2148927,10.279457 C56.5365438,9.95135348 57.0564503,9.95135348 57.3781013,10.279457 C57.6997524,10.6075605 57.6997524,11.1378965 57.3781013,11.466 L51.6928577,17.2661311 C51.5324435,17.4297633 51.3218484,17.511999 51.1112534,17.511999 Z"></path>
                                </g>
                            </g>
                        </g>
                    </g>
                </g>
            </g>
        </g>
    </g>
</svg>