<?xml version="1.0" encoding="UTF-8"?>
<svg width="30px" height="30px" viewBox="0 0 30 30" version="1.1" xmlns="http://www.w3.org/2000/svg" xmlns:xlink="http://www.w3.org/1999/xlink">
    <!-- Generator: Sketch 61.1 (89650) - https://sketch.com -->
    <title>noun_dollar_2986941</title>
    <desc>Created with Sketch.</desc>
    <g id="Page-1" stroke="none" stroke-width="1" fill="none" fill-rule="evenodd">
        <g id="CART" transform="translate(-45.000000, -450.000000)" fill="#000000">
            <g id="HEADER-SIDE" transform="translate(-6.000000, 107.000000)">
                <g id="SEARCH-SIDE" transform="translate(6.000000, 73.000000)">
                    <g id="PAYMENT" transform="translate(5.000000, 270.000000)">
                        <g id="noun_dollar_2986941" transform="translate(40.000000, 0.000000)">
                            <g id="Group">
                                <path d="M10.7712766,19.3882979 L8.85638298,19.3882979 C9.17553191,20.3457447 9.65425532,21.2234043 10.5319149,21.8617021 C11.4095745,22.6595745 12.8457447,23.0585106 14.2819149,23.1382979 L14.2819149,24.2553191 L15.6382979,24.2553191 L15.6382979,23.1382979 C17.6329787,22.9787234 19.5478723,22.1808511 20.4255319,20.7446809 C21.7819149,18.75 21.3031915,16.037234 18.9893617,15.0797872 C17.9521277,14.6010638 16.7553191,14.2819149 15.6382979,13.962766 L15.6382979,8.45744681 C16.356383,8.61702128 17.0744681,8.85638298 17.5531915,9.25531915 C17.8723404,9.49468085 18.1914894,9.81382979 18.3510638,10.2925532 L20.3457447,10.2925532 C19.9468085,8.93617021 19.1489362,8.13829787 17.7925532,7.57978723 C17.1542553,7.34042553 16.4361702,7.18085106 15.6382979,7.10106383 L15.6382979,5.74468085 L14.2819149,5.74468085 L14.2819149,7.10106383 C12.9255319,7.10106383 11.5691489,7.42021277 10.6914894,8.05851064 C9.09574468,9.25531915 8.53723404,11.4893617 9.57446809,13.2446809 C10.4521277,14.6010638 12.5265957,15.2393617 14.2819149,15.6382979 L14.2819149,21.7021277 C13.3244681,21.6223404 12.4468085,21.3031915 11.8085106,20.7446809 C11.4095745,20.4255319 11.0106383,19.9468085 10.7712766,19.3882979 Z M14.2819149,13.643617 C13.1648936,13.3244681 11.8085106,13.0053191 11.25,12.2074468 C10.4521277,11.1702128 10.7712766,9.89361702 11.8085106,9.09574468 C12.3670213,8.69680851 13.3244681,8.45744681 14.2819149,8.37765957 L14.2819149,13.643617 Z M15.6382979,15.9574468 C16.4361702,16.1968085 17.6329787,16.5159574 18.1914894,16.8351064 C19.787234,17.8723404 19.4680851,19.787234 18.1914894,20.9042553 C17.5531915,21.3829787 16.5957447,21.7021277 15.6382979,21.7819149 L15.6382979,15.9574468 Z" id="Shape"></path>
                                <path d="M15,0 C23.2978723,0 30,6.70212766 30,15 C30,23.2978723 23.2978723,30 15,30 C6.70212766,30 0,23.2978723 0,15 C0,6.70212766 6.70212766,0 15,0 Z M15,1.59574468 C7.57978723,1.59574468 1.59574468,7.57978723 1.59574468,15 C1.59574468,22.4202128 7.57978723,28.4042553 15,28.4042553 C22.4202128,28.4042553 28.4042553,22.4202128 28.4042553,15 C28.4042553,7.57978723 22.4202128,1.59574468 15,1.59574468 Z" id="Shape" fill-rule="nonzero"></path>
                            </g>
                        </g>
                    </g>
                </g>
            </g>
        </g>
    </g>
</svg>