<?xml version="1.0" encoding="UTF-8"?>
<svg width="344px" height="107px" viewBox="0 0 344 107" version="1.1" xmlns="http://www.w3.org/2000/svg" xmlns:xlink="http://www.w3.org/1999/xlink">
    <title>glasses-thanks</title>
    <g id="Page-1" stroke="none" stroke-width="1" fill="none" fill-rule="evenodd">
        <g id="glasses-thanks" fill="#333F48">
            <path d="M259.528889,2.56242497 C203.762667,9.16672051 190.633333,18.3698044 172,18.3698044 C153.366667,18.3698044 140.233511,9.16672051 84.4711111,2.56242497 C28.7048889,-4.04570359 0,4.21445711 0,4.21445711 L3.05777778,24.7402857 C3.05777778,24.7402857 11.5736889,21.0567523 17.9032889,51.9930665 C19.0652444,63.8141039 26.1631111,100.879419 66.4111111,105.923675 C145.412622,115.820536 155.530044,54.4730312 159.765067,44.327024 C164.000089,34.1810169 172,34.1810169 172,34.1810169 C172,34.1810169 179.999911,34.1810169 184.234933,44.323191 C188.469956,54.4691982 198.587378,115.816703 277.588889,105.919842 C317.836889,100.879419 324.938578,63.8141039 326.096711,51.9892334 C332.426311,21.0529193 340.942222,24.7364527 340.942222,24.7364527 L344,4.21062409 C344,4.21445711 315.291289,-4.04570359 259.528889,2.56242497 Z M144.235378,45.0322999 C138.119822,88.9242258 111.058489,103.788682 68.2343111,100.722265 C25.4101333,97.6481821 24.4698667,49.2792874 24.4698667,49.2792874 C24.4698667,49.2792874 20.7049778,13.8890026 45.408,11.0525669 C82.3536,4.6820857 113.409156,13.1760607 126.3512,17.1854009 C139.293244,21.2024071 145.175644,28.04435 144.235378,45.0322999 Z M319.530133,49.2792874 C319.530133,49.2792874 318.589867,97.6481821 275.769511,100.722265 C232.941511,103.788682 205.884,88.9242258 199.768444,45.0322999 C198.824356,28.04435 204.706756,21.2024071 217.6488,17.1892339 C230.594667,13.1798937 261.650222,4.68591872 298.592,11.0564 C323.295022,13.8890026 319.530133,49.2792874 319.530133,49.2792874 Z" id="Shape" fill-rule="nonzero"></path>
            <rect id="Rectangle" x="49" y="51" width="66" height="5" rx="2.5"></rect>
            <g id="Group" transform="translate(34.000000, 40.000000)">
                <rect id="Rectangle" transform="translate(8.982311, 8.431304) rotate(-44.000000) translate(-8.982311, -8.431304) " x="-1.0176893" y="6.4313043" width="20" height="4" rx="2"></rect>
                <rect id="Rectangle" transform="translate(8.982311, 19.568696) scale(1, -1) rotate(-44.000000) translate(-8.982311, -19.568696) " x="-1.0176893" y="17.5686957" width="20" height="4" rx="2"></rect>
            </g>
            <g id="Group" transform="translate(122.000000, 54.000000) scale(-1, 1) translate(-122.000000, -54.000000) translate(113.000000, 40.000000)">
                <rect id="Rectangle" transform="translate(8.982311, 8.431304) rotate(-44.000000) translate(-8.982311, -8.431304) " x="-1.0176893" y="6.4313043" width="20" height="4" rx="2"></rect>
                <rect id="Rectangle" transform="translate(8.982311, 19.568696) scale(1, -1) rotate(-44.000000) translate(-8.982311, -19.568696) " x="-1.0176893" y="17.5686957" width="20" height="4" rx="2"></rect>
            </g>
        </g>
    </g>
</svg>