<?xml version="1.0" encoding="UTF-8"?>
<svg width="12px" height="12px" viewBox="0 0 12 12" version="1.1" xmlns="http://www.w3.org/2000/svg" xmlns:xlink="http://www.w3.org/1999/xlink">
    <!-- Generator: Sketch 61.2 (89653) - https://sketch.com -->
    <title>noun_edit_1218875</title>
    <desc>Created with Sketch.</desc>
    <g id="Page-1" stroke="none" stroke-width="1" fill="none" fill-rule="evenodd">
        <g id="CART" transform="translate(-368.000000, -683.000000)" fill="#333F48" fill-rule="nonzero">
            <g id="HEADER-SIDE" transform="translate(-6.000000, 107.000000)">
                <g id="SEARCH-SIDE" transform="translate(6.000000, 73.000000)">
                    <g id="CHOSE-CART" transform="translate(0.000000, 407.000000)">
                        <g id="CHOOSE" transform="translate(53.000000, 93.000000)">
                            <g id="noun_edit_1218875" transform="translate(315.000000, 3.000000)">
                                <path d="M10.5642,10.0476 C10.5642,10.5762 10.1346,11.022 9.606,11.022 L1.9386,11.022 C1.41,11.022 0.9804,10.5762 0.9804,10.0476 L0.9804,2.3802 C0.9804,1.8516 1.41,1.4376 1.9386,1.4376 L6.411,1.4376 L6.411,0.7992 L1.9386,0.7992 C1.0578,0.7992 0.3414,1.5 0.3414,2.3808 L0.3414,10.0476 C0.3414,10.9284 1.0578,11.6604 1.9386,11.6604 L9.6054,11.6604 C10.4862,11.6604 11.2026,10.9278 11.2026,10.0476 L11.2026,5.5908 L10.5636,5.5908 L10.5636,10.0476 L10.5642,10.0476 Z" id="Path"></path>
                                <path d="M11.2842,0.702 C10.8018,0.219 9.96,0.219 9.477,0.702 L5.1912,4.9878 C5.1504,5.0286 5.121,5.0802 5.1072,5.136 L4.656,6.9426 C4.629,7.0512 4.6608,7.1664 4.74,7.2462 C4.8006,7.3068 4.8822,7.3398 4.9656,7.3398 C4.9914,7.3398 5.0172,7.3368 5.043,7.3302 L6.8502,6.8784 C6.9066,6.8646 6.9576,6.8352 6.9984,6.7944 L11.2842,2.5086 C11.5254,2.2674 11.6586,1.9464 11.6586,1.605 C11.6586,1.2636 11.526,0.9432 11.2842,0.702 Z M6.6096,6.2802 L5.4048,6.5814 L5.706,5.3766 L9.2514,1.8312 L10.155,2.7348 L6.6096,6.2802 Z M10.8324,2.0568 L10.6068,2.2824 L9.7032,1.3788 L9.9288,1.1532 C10.17,0.912 10.5912,0.912 10.8324,1.1532 C10.953,1.2738 11.0196,1.434 11.0196,1.605 C11.0196,1.776 10.953,1.9362 10.8324,2.0568 Z" id="Shape"></path>
                            </g>
                        </g>
                    </g>
                </g>
            </g>
        </g>
    </g>
</svg>