<?xml version="1.0" encoding="UTF-8"?>
<svg width="121px" height="99px" viewBox="0 0 121 99" version="1.1" xmlns="http://www.w3.org/2000/svg" xmlns:xlink="http://www.w3.org/1999/xlink">
    <!-- Generator: Sketch 62 (91390) - https://sketch.com -->
    <title>noun_FAQ_550254</title>
    <desc>Created with Sketch.</desc>
    <g id="Page-1" stroke="none" stroke-width="1" fill="none" fill-rule="evenodd">
        <g id="NEED-HELP" transform="translate(-1086.000000, -331.000000)" fill="#333F48" fill-rule="nonzero">
            <g id="HEADER-SIDE" transform="translate(-3.000000, 109.000000)">
                <g id="SEARCH-SIDE" transform="translate(152.000000, 161.000000)">
                    <g id="FAQS" transform="translate(820.000000, 0.000000)">
                        <g id="noun_FAQ_550254" transform="translate(117.000000, 61.000000)">
                            <path d="M121,63.7141058 C121,73.813602 114.762887,82.790932 105.531959,86.5314861 L105.531959,96.0075567 C105.531959,97.2544081 104.783505,98.2518892 103.660825,98.7506297 C103.286598,98.8753149 102.912371,99 102.538144,99 C101.789691,99 101.041237,98.7506297 100.417526,98.127204 L90.5628866,88.2770781 L75.9680412,88.2770781 C66.6123711,88.2770781 58.2546392,83.1649874 54.0134021,74.8110831 C53.514433,73.9382872 53.8886598,72.8161209 54.8865979,72.3173804 C55.7597938,71.8186398 56.8824742,72.1926952 57.3814433,73.1901763 C60.9989691,80.2972292 68.1092784,84.6612091 75.9680412,84.6612091 L91.3113402,84.6612091 C91.8103093,84.6612091 92.3092784,84.9105793 92.6835052,85.1599496 L101.789691,94.2619647 L101.789691,85.2846348 C101.789691,84.5365239 102.28866,83.7884131 103.037113,83.5390428 C111.519588,80.6712846 117.257732,72.8161209 117.257732,63.8387909 C117.257732,53.8639798 110.147423,45.2607053 100.292784,43.3904282 C99.2948454,43.1410579 98.5463918,42.268262 98.7958763,41.2707809 C99.0453608,40.2732997 99.9185567,39.5251889 100.916495,39.7745592 C112.642268,41.7695214 121,51.8690176 121,63.7141058 Z M0,31.6700252 C0,14.2141058 14.2206186,0 31.6845361,0 L58.7536082,0 C76.2175258,0 90.4381443,14.2141058 90.4381443,31.6700252 C90.4381443,49.1259446 76.2175258,63.3400504 58.7536082,63.3400504 L39.1690722,63.3400504 L26.071134,76.4319899 C25.4474227,77.0554156 24.5742268,77.429471 23.7010309,77.429471 C21.8298969,77.429471 20.3329897,75.9332494 20.3329897,74.0629723 L20.3329897,61.220403 C8.10824742,56.4823678 0,44.8866499 0,31.6700252 Z M3.74226804,31.6700252 C3.74226804,43.6397985 11.4762887,54.3627204 22.8278351,58.1032746 C23.5762887,58.3526448 24.0752577,59.1007557 24.0752577,59.8488665 L24.0752577,73.1901763 L37.0484536,60.2229219 C37.4226804,59.8488665 37.9216495,59.7241814 38.4206186,59.7241814 L58.628866,59.7241814 C73.9721649,59.7241814 86.571134,47.2556675 86.571134,31.7947103 C86.571134,16.4584383 74.0969072,3.86523929 58.628866,3.86523929 L31.5597938,3.86523929 C16.2164948,3.74055416 3.74226804,16.209068 3.74226804,31.6700252 Z M43.7845361,44.8866499 C43.4103093,45.2607053 43.285567,45.7594458 43.285567,46.2581864 C43.285567,46.756927 43.5350515,47.2556675 43.7845361,47.6297229 C44.1587629,48.0037783 44.657732,48.1284635 45.156701,48.1284635 C45.6556701,48.1284635 46.1546392,47.8790932 46.528866,47.6297229 C46.9030928,47.2556675 47.0278351,46.756927 47.0278351,46.2581864 C47.0278351,45.7594458 46.7783505,45.2607053 46.528866,44.8866499 C45.7804124,44.2632242 44.5329897,44.2632242 43.7845361,44.8866499 Z M38.5453608,25.5604534 C39.543299,25.5604534 40.4164948,24.6876574 40.4164948,23.6901763 C40.4164948,22.1939547 41.0402062,20.9471033 42.1628866,19.9496222 C43.285567,19.0768262 44.7824742,18.7027708 46.1546392,18.9521411 C47.9010309,19.3261965 49.3979381,20.8224181 49.7721649,22.5680101 C50.1463918,24.4382872 49.5226804,26.1838791 48.0257732,27.3060453 C45.0319588,29.675063 43.285567,33.0415617 43.285567,36.6574307 C43.285567,37.6549118 44.1587629,38.5277078 45.156701,38.5277078 C46.1546392,38.5277078 47.0278351,37.6549118 47.0278351,36.6574307 C47.0278351,34.2884131 48.2752577,31.9193955 50.3958763,30.1738035 C53.0154639,28.1788413 54.1381443,24.9370277 53.514433,21.6952141 C52.8907216,18.4534005 50.271134,15.8350126 47.0278351,15.2115869 C44.4082474,14.7128463 41.9134021,15.336272 39.9175258,16.9571788 C37.9216495,18.5780856 36.7989691,20.9471033 36.7989691,23.5654912 C36.6742268,24.6876574 37.4226804,25.5604534 38.5453608,25.5604534 Z" id="Shape"></path>
                        </g>
                    </g>
                </g>
            </g>
        </g>
    </g>
</svg>