<?xml version="1.0" encoding="UTF-8"?>
<svg width="25px" height="23px" viewBox="0 0 25 23" version="1.1" xmlns="http://www.w3.org/2000/svg" xmlns:xlink="http://www.w3.org/1999/xlink">
    <!-- Generator: Sketch 61.2 (89653) - https://sketch.com -->
    <title>LinkedIn-black</title>
    <desc>Created with Sketch.</desc>
    <g id="Page-1" stroke="none" stroke-width="1" fill="none" fill-rule="evenodd">
        <g id="CARRER" transform="translate(-1012.000000, -784.000000)" fill="#333F48">
            <g id="FAQS-QUESTION-OPEN" transform="translate(332.000000, 745.000000)">
                <path d="M705,61.7272727 L699.474659,61.7272727 L699.474659,53.7377275 C699.474659,51.646475 698.61036,50.218835 696.709784,50.218835 C695.256056,50.218835 694.447613,51.1822373 694.071319,52.1107127 C693.930209,52.4439742 693.952258,52.9082119 693.952258,53.3724496 L693.952258,61.7272727 L688.478363,61.7272727 C688.478363,61.7272727 688.548918,47.574572 688.478363,46.2880951 L693.952258,46.2880951 L693.952258,48.7111539 C694.275635,47.6517024 696.024812,46.1396555 698.816145,46.1396555 C702.279222,46.1396555 705,48.3604289 705,53.1425137 L705,61.7272727 L705,61.7272727 Z M682.942733,44.3569246 L682.907455,44.3569246 C681.143579,44.3569246 680,43.1766839 680,41.6806452 C680,40.1555007 681.177387,39 682.97654,39 C684.774224,39 685.879586,40.1525901 685.914864,41.6762793 C685.914864,43.172318 684.774224,44.3569246 682.942733,44.3569246 L682.942733,44.3569246 L682.942733,44.3569246 Z M680.630586,46.2880951 L685.503293,46.2880951 L685.503293,61.7272727 L680.630586,61.7272727 L680.630586,46.2880951 L680.630586,46.2880951 Z" id="LinkedIn"></path>
            </g>
        </g>
    </g>
</svg>