<?xml version="1.0" encoding="UTF-8"?>
<svg width="85px" height="85px" viewBox="0 0 85 85" version="1.1" xmlns="http://www.w3.org/2000/svg" xmlns:xlink="http://www.w3.org/1999/xlink">
    <!-- Generator: Sketch 61.2 (89653) - https://sketch.com -->
    <title>noun_Adressbook_1345315</title>
    <desc>Created with Sketch.</desc>
    <g id="Page-1" stroke="none" stroke-width="1" fill="none" fill-rule="evenodd">
        <g id="NEED-HELP-EMAIL" transform="translate(-268.000000, -597.000000)" fill="#333F48" fill-rule="nonzero">
            <g id="HEADER-SIDE" transform="translate(-3.000000, 107.000000)">
                <g id="SEARCH-SIDE" transform="translate(143.000000, 135.000000)">
                    <g id="ACCOUNTING" transform="translate(0.000000, 300.000000)">
                        <g id="noun_Adressbook_1345315" transform="translate(128.000000, 55.000000)">
                            <g id="Group">
                                <path d="M74.375,0 L23.375,0 C17.5185,0 12.75,4.76425 12.75,10.625 L12.75,21.25 L2.125,21.25 C0.952,21.25 0,22.202 0,23.375 C0,24.548 0.952,25.5 2.125,25.5 L12.75,25.5 L12.75,34 L2.125,34 C0.952,34 0,34.952 0,36.125 C0,37.298 0.952,38.25 2.125,38.25 L12.75,38.25 L12.75,46.75 L2.125,46.75 C0.952,46.75 0,47.702 0,48.875 C0,50.048 0.952,51 2.125,51 L12.75,51 L12.75,59.5 L2.125,59.5 C0.952,59.5 0,60.452 0,61.625 C0,62.798 0.952,63.75 2.125,63.75 L12.75,63.75 L12.75,74.375 C12.75,80.23575 17.5185,85 23.375,85 L74.375,85 C80.2315,85 85,80.23575 85,74.375 L85,10.625 C85,4.76425 80.2315,0 74.375,0 Z M80.75,74.375 C80.75,77.88975 77.88975,80.75 74.375,80.75 L23.375,80.75 C19.86025,80.75 17,77.88975 17,74.375 L17,10.625 C17,7.11025 19.86025,4.25 23.375,4.25 L74.375,4.25 C77.88975,4.25 80.75,7.11025 80.75,10.625 L80.75,74.375 Z" id="Shape"></path>
                                <path d="M56.1186667,39.2991111 C58.2171111,37.3695556 59.5555556,34.6293333 59.5555556,31.5555556 C59.5555556,25.7331111 54.8182222,21 49,21 C43.1817778,21 38.4444444,25.7331111 38.4444444,31.5555556 C38.4444444,34.6293333 39.7828889,37.3695556 41.8813333,39.2991111 C34.9273333,42.1237778 30,48.93 30,56.8888889 C30,58.0542222 30.9457778,59 32.1111111,59 C33.2764444,59 34.2222222,58.0542222 34.2222222,56.8888889 C34.2222222,48.74 40.8511111,42.1111111 49,42.1111111 C57.1488889,42.1111111 63.7777778,48.74 63.7777778,56.8888889 C63.7777778,58.0542222 64.7235556,59 65.8888889,59 C67.0542222,59 68,58.0542222 68,56.8888889 C68,48.93 63.0726667,42.1237778 56.1186667,39.2991111 Z M42.6666667,31.5555556 C42.6666667,28.0637778 45.5082222,25.2222222 49,25.2222222 C52.4917778,25.2222222 55.3333333,28.0637778 55.3333333,31.5555556 C55.3333333,35.0473333 52.4917778,37.8888889 49,37.8888889 C45.5082222,37.8888889 42.6666667,35.0473333 42.6666667,31.5555556 Z" id="Shape"></path>
                            </g>
                        </g>
                    </g>
                </g>
            </g>
        </g>
    </g>
</svg>