<?xml version="1.0" encoding="UTF-8"?>
<svg width="94px" height="94px" viewBox="0 0 94 94" version="1.1" xmlns="http://www.w3.org/2000/svg" xmlns:xlink="http://www.w3.org/1999/xlink">
    <!-- Generator: Sketch 61.2 (89653) - https://sketch.com -->
    <title>noun_support_1323859</title>
    <desc>Created with Sketch.</desc>
    <g id="Page-1" stroke="none" stroke-width="1" fill="none" fill-rule="evenodd">
        <g id="NEED-HELP-EMAIL" transform="translate(-683.000000, -591.000000)" fill="#333F48">
            <g id="HEADER-SIDE" transform="translate(-3.000000, 107.000000)">
                <g id="SEARCH-SIDE" transform="translate(143.000000, 135.000000)">
                    <g id="ACCOUNTING-Copy" transform="translate(420.000000, 299.000000)">
                        <g id="noun_support_1323859" transform="translate(123.000000, 50.000000)">
                            <g id="Group">
                                <path d="M91.383812,36.5555556 C89.9425587,36.5555556 88.772846,37.7253333 88.772846,39.1666667 L88.772846,41.454 C88.772846,18.5963333 70.0313316,0 46.997389,0 C23.9634465,0 5.22193211,18.5963333 5.22193211,41.454 L5.22193211,39.1666667 C5.22193211,37.7253333 4.05221932,36.5555556 2.61096606,36.5555556 C1.16971279,36.5555556 0,37.7253333 0,39.1666667 L0,65.2777778 C0,66.7191111 1.16971279,67.8888889 2.61096606,67.8888889 C4.05221932,67.8888889 5.22193211,66.7191111 5.22193211,65.2777778 L5.22193211,69.1944444 C5.22193211,70.6357778 6.39164491,71.8055556 7.83289817,71.8055556 C9.27415144,71.8055556 10.4438642,70.6357778 10.4438642,69.1944444 L10.4438642,41.454 C10.4438642,21.479 26.8407311,5.22222222 46.997389,5.22222222 C67.154047,5.22222222 83.5509138,21.4737778 83.5509138,41.454 L83.5509138,67.7948889 L51.8067885,88.7777778 L41.4046997,88.7777778 C39.9634465,88.7777778 38.7937337,89.9475556 38.7937337,91.3888889 C38.7937337,92.8302222 39.9634465,94 41.4046997,94 L52.5953003,94 C53.1070496,94 53.6083551,93.8485556 54.0365535,93.5665556 L87.6083551,71.3721111 C88.3394256,70.8864444 88.7780679,70.0717778 88.7780679,69.1944444 L88.7780679,65.2777778 C88.7780679,66.7191111 89.9477807,67.8888889 91.3890339,67.8888889 C92.8302872,67.8888889 94,66.7191111 94,65.2777778 L94,39.1666667 C93.9947781,37.7253333 92.8250653,36.5555556 91.383812,36.5555556 Z" id="Path" fill-rule="nonzero"></path>
                                <g id="Settings" transform="translate(23.000000, 22.000000)">
                                    <path d="M24.4995093,32 C20.3645227,32 17,28.6352572 17,24.5 C17,20.3637613 20.3645227,17 24.4995093,17 C28.6344958,17 32,20.3637613 32,24.5 C32,28.6352572 28.6344958,32 24.4995093,32 L24.4995093,32 Z M24.4995073,15 C19.2615257,15 15,19.2617467 15,24.5 C15,29.7382533 19.2615257,34 24.4995073,34 C29.737489,34 34,29.7382533 34,24.5 C34,19.2617467 29.737489,15 24.4995073,15 L24.4995073,15 Z" id="Fill-1016"></path>
                                    <path d="M46.8740314,26.8500393 L41.2810275,27.5815377 C40.8668428,27.6359467 40.5292471,27.9392263 40.4314955,28.3452785 C40.0334349,30.002737 39.3783984,31.5816047 38.4855332,33.0405712 C38.2678595,33.3962447 38.2920455,33.8496528 38.5459981,34.1801369 L41.9864514,38.6557786 C40.9978501,39.8759501 39.8842881,40.9903265 38.6639047,41.9797637 L34.1895015,38.5409152 C33.85896,38.2870066 33.4044654,38.2628249 33.0487302,38.4814683 C31.5895105,39.3751861 30.0083531,40.0311164 28.3495991,40.4311231 C27.9444843,40.5288578 27.641152,40.8663949 27.5867336,41.2805076 L26.8541004,46.8735484 C25.2658888,47.0418132 23.7431809,47.0418132 22.1549693,46.8755635 L21.4233439,41.2845379 C21.3689255,40.8704252 21.0655932,40.5328881 20.6594706,40.436161 C18.9987011,40.0371619 17.4155283,39.3812315 15.9532853,38.4865062 C15.5975501,38.2698779 15.1440632,38.2930521 14.8135217,38.5469606 L10.3371031,41.9868167 C9.79594213,41.5465071 9.26989743,41.0769778 8.76904645,40.5893122 L8.41230349,40.2316236 C7.92152999,39.729852 7.45292695,39.2059137 7.01455637,38.6658543 L10.4540019,34.1922278 C10.7079545,33.8617436 10.7321405,33.4083355 10.513459,33.0516545 C9.61656291,31.5896653 8.95951091,30.0057597 8.55943477,28.3432633 C8.46168316,27.9372112 8.12408743,27.6339316 7.71091056,27.5795226 L2.11790657,26.8480242 C2.04937967,26.1820181 2.01007748,25.508959 2,24.8439604 L2,24.1719089 C2.01007748,23.495827 2.04937967,22.8197452 2.11891432,22.1517239 L7.71091056,21.4202255 C8.12408743,21.3658165 8.46168316,21.0625369 8.55943477,20.6564848 C8.95951091,18.994996 9.61656291,17.4110904 10.513459,15.9480936 C10.7321405,15.5924201 10.7079545,15.139012 10.4540019,14.8075203 L7.01455637,10.3338938 C7.45292695,9.79484196 7.91951449,9.27291887 8.40524925,8.77618511 L8.76199221,8.41950407 C9.26788194,7.92478546 9.79594213,7.45424862 10.3371031,7.01393898 L14.8135217,10.4527875 C15.1440632,10.706696 15.5965423,10.7308778 15.9532853,10.5132419 C17.4155283,9.61851659 18.9987011,8.96258621 20.6594706,8.56459466 C21.0655932,8.4678676 21.3689255,8.12932289 21.4233439,7.71621774 L22.1549693,2.12519214 C23.7431809,1.95793494 25.2658888,1.95793494 26.8541004,2.12720729 L27.5867336,7.72024803 C27.641152,8.13335319 27.9444843,8.47089032 28.3495991,8.56862496 C30.0083531,8.96863166 31.5895105,9.62456203 33.0487302,10.5192873 C33.4034577,10.7369232 33.8569445,10.713749 34.1895015,10.4588329 L38.6639047,7.02099199 C39.8842881,8.01042921 40.9978501,9.12480555 41.9864514,10.3439695 L38.5459981,14.8196112 C38.2920455,15.1500953 38.2678595,15.604511 38.4855332,15.9601845 C39.3783984,17.4181434 40.0334349,18.9980187 40.4314955,20.6544696 C40.5292471,21.0605218 40.8668428,21.3638014 41.2810275,21.4182104 L46.8740314,22.1497088 C46.9576746,22.9446843 47,23.7326068 47,24.5003778 C47,25.2681489 46.9576746,26.0560714 46.8740314,26.8500393 L46.8740314,26.8500393 Z M48.7633288,21.1150124 C48.7008879,20.6659042 48.3463847,20.313465 47.8962059,20.2540539 L42.204012,19.5099037 C41.8122457,18.1182724 41.2573272,16.7790036 40.5473137,15.5142504 L44.0490402,10.9597293 C44.3249887,10.6012483 44.3270029,10.1007847 44.0540757,9.73928279 C42.6864184,7.9317733 41.0760472,6.32062278 39.2682822,4.95315878 C38.9067291,4.67926319 38.4072019,4.68027016 38.0476631,4.95718665 L33.4935052,8.45640419 C32.2285732,7.74548402 30.8881079,7.18863012 29.4942656,6.79591218 L28.7490032,1.10351601 C28.6895836,0.654407803 28.3381017,0.299954689 27.88893,0.237522606 C25.6048012,-0.0776587137 23.4042628,-0.0796726518 21.1221482,0.234501699 C20.6729765,0.296933782 20.3194804,0.651386896 20.2610679,1.10150207 L19.5158055,6.79087734 C18.119949,7.18258831 16.7764624,7.73843524 15.5085091,8.45036237 L10.9543511,4.95013787 C10.5938052,4.67422835 10.0952851,4.67221441 9.73272496,4.94510303 C8.91192913,5.56640294 8.11429687,6.25315585 7.35493485,6.99629903 L6.98431784,7.36787062 C6.25214782,8.11504167 5.56731204,8.9085333 4.9479385,9.72719916 C4.67400419,10.089708 4.67601842,10.5891647 4.95196695,10.9486526 L8.4516792,15.5011598 C7.7386443,16.7699409 7.18070457,18.1142446 6.78692399,19.5119176 L1.09573725,20.2570748 C0.645558433,20.315479 0.291055206,20.6689251 0.228614297,21.1180333 C0.091647141,22.1088909 0.0151066716,23.1269366 0,24.156059 L0,24.8569095 C0.0151066716,25.8719343 0.091647141,26.8889731 0.228614297,27.8808376 C0.291055206,28.3299458 0.645558433,28.682385 1.09573725,28.7417962 L6.78692399,29.4859463 C7.18070457,30.8846264 7.7386443,32.2289301 8.4516792,33.4967041 L4.95196695,38.0492113 C4.67601842,38.4086993 4.67400419,38.9091629 4.9479385,39.2706648 C5.56731204,40.0893307 6.25214782,40.8838293 6.99136762,41.6370421 L7.36299174,42.0096207 C8.11429687,42.7447081 8.91192913,43.432468 9.73272496,44.0527609 C10.094278,44.3256496 10.5938052,44.3236356 10.9543511,44.0477261 L15.5085091,40.5475016 C16.7764624,41.2594287 18.119949,41.8162826 19.5158055,42.2079936 L20.2610679,47.8973689 C20.3194804,48.3464771 20.6729765,48.7019372 21.1221482,48.7633623 C22.2601842,48.9204494 23.3951988,49 24.4959716,49 C25.602787,49 26.7438443,48.9194425 27.88893,48.7613483 C28.3381017,48.6989162 28.6895836,48.3434562 28.7490032,47.894348 L29.4942656,42.2019518 C30.8881079,41.8102408 32.2285732,41.2533869 33.4935052,40.5424668 L38.0476631,44.0416843 C38.4072019,44.3175938 38.9067291,44.3196077 39.2682822,44.0457122 C41.0760472,42.6782482 42.6864184,41.0670976 44.0540757,39.2595882 C44.3270029,38.8980863 44.3249887,38.3976226 44.0490402,38.0381347 L40.5473137,33.4836135 C41.2573272,32.2198674 41.8122457,30.8805985 42.204012,29.4879603 L47.8962059,28.7438101 C48.3463847,28.6854059 48.7008879,28.3319598 48.7633288,27.8828516 C48.9204382,26.7409486 49,25.6020666 49,24.4994355 C49,23.3968043 48.9204382,22.2579223 48.7633288,21.1150124 L48.7633288,21.1150124 Z" id="Fill-1017"></path>
                                </g>
                            </g>
                        </g>
                    </g>
                </g>
            </g>
        </g>
    </g>
</svg>