<?xml version="1.0" encoding="UTF-8"?>
<svg width="92px" height="67px" viewBox="0 0 92 67" version="1.1" xmlns="http://www.w3.org/2000/svg" xmlns:xlink="http://www.w3.org/1999/xlink">
    <!-- Generator: Sketch 61.2 (89653) - https://sketch.com -->
    <title>noun_Email_2820270</title>
    <desc>Created with Sketch.</desc>
    <g id="Page-1" stroke="none" stroke-width="1" fill="none" fill-rule="evenodd">
        <g id="NEED-HELP-EMAIL" transform="translate(-1087.000000, -305.000000)" fill="#333F48" fill-rule="nonzero">
            <g id="HEADER-SIDE" transform="translate(-3.000000, 107.000000)">
                <g id="SEARCH-SIDE" transform="translate(143.000000, 135.000000)">
                    <g id="GENERAL-INQUIRIES" transform="translate(820.000000, 0.000000)">
                        <g id="noun_Email_2820270" transform="translate(127.000000, 63.000000)">
                            <path d="M92,64.9446377 L92,2.0553625 C92,0.920296573 91.0610364,0 89.9029472,0 L2.0970528,0 C0.938963569,0 0,0.920296573 0,2.0553625 L0,64.9446375 C0,66.0797034 0.938963569,67 2.0970528,67 L89.9029472,67 C91.0610364,67 92,66.0797036 92,64.9446377 Z M4.1941056,6.44960316 L32.7475069,32.9697257 L4.1941056,60.4613281 L4.1941056,6.44960316 Z M51.0316981,34.989335 C49.6196689,36.3732924 47.8594961,37.1450569 46.0747486,37.162368 C44.2244682,37.1781756 42.4755589,36.4204615 40.9529429,34.9281156 L7.77473622,4.11072499 L84.4856034,4.11072499 L51.0316981,34.989335 Z M35.7936348,35.7988599 L38.0275132,37.8736669 C40.2658713,40.0685291 43.0991452,41.2728431 46.0163832,41.2728431 C46.0491497,41.2728431 46.0819161,41.2728431 46.1157066,41.2728431 C49.0042739,41.245746 51.8037574,40.04645 53.9520079,37.9389006 L56.3812049,35.6967441 L84.6237088,62.8892752 L7.65698188,62.8892752 L35.7936348,35.7988599 Z M59.4366764,32.8766423 L87.8058944,6.6925986 L87.8058944,60.1912356 L59.4366764,32.8766423 Z" id="Shape"></path>
                        </g>
                    </g>
                </g>
            </g>
        </g>
    </g>
</svg>