<?xml version="1.0" encoding="UTF-8"?>
<svg width="31px" height="31px" viewBox="0 0 31 31" version="1.1" xmlns="http://www.w3.org/2000/svg" xmlns:xlink="http://www.w3.org/1999/xlink">
    <!-- Generator: Sketch 61.2 (89653) - https://sketch.com -->
    <title>noun_37216</title>
    <desc>Created with Sketch.</desc>
    <g id="Page-1" stroke="none" stroke-width="1" fill="none" fill-rule="evenodd">
        <g id="NEED-HELP-EMAIL---FORM" transform="translate(-95.000000, -132.000000)" fill="#000000" fill-rule="nonzero">
            <g id="noun_37216" transform="translate(95.000000, 132.000000)">
                <polygon id="Path" points="17.0502023 22 18 21.2906537 13.5004974 15.5 18 9.7093463 17.0502023 9 12 15.5"></polygon>
                <path d="M15.5001985,0 C6.95367537,0 0,6.95318942 0,15.4996031 C0,24.0464137 6.95367537,31 15.5001985,31 C24.0471185,31 31,24.0464137 31,15.4996031 C31,6.95318942 24.0471185,0 15.5001985,0 Z M15.5001985,29.8953804 C7.64154108,29.8953804 1.27134096,23.4506415 1.27134096,15.5003969 C1.27134096,7.55015236 7.64154108,1.10501652 15.5001985,1.10501652 C23.3584589,1.10501652 29.7294529,7.55015236 29.7294529,15.5003969 C29.7294529,23.4506415 23.3584589,29.8953804 15.5001985,29.8953804 Z" id="Shape"></path>
            </g>
        </g>
    </g>
</svg>