<?xml version="1.0" encoding="UTF-8"?>
<svg width="113px" height="85px" viewBox="0 0 113 85" version="1.1" xmlns="http://www.w3.org/2000/svg" xmlns:xlink="http://www.w3.org/1999/xlink">
    <!-- Generator: Sketch 61.2 (89653) - https://sketch.com -->
    <title>noun_agreement_1995339</title>
    <desc>Created with Sketch.</desc>
    <g id="Page-1" stroke="none" stroke-width="1" fill="none" fill-rule="evenodd">
        <g id="NEED-HELP-EMAIL" transform="translate(-251.000000, -291.000000)" fill="#333F48" fill-rule="nonzero">
            <g id="HEADER-SIDE" transform="translate(-3.000000, 107.000000)">
                <g id="SEARCH-SIDE" transform="translate(143.000000, 135.000000)">
                    <g id="SALES">
                        <g id="noun_agreement_1995339" transform="translate(112.000000, 50.000000)">
                            <path d="M72.6409583,9.11315102 L74.3959871,12.1612895 C69.0265546,10.3326581 60.5845647,8.41593026 54.4545359,11.5320288 C54.147783,11.2954268 53.8774885,11.0890294 53.6599957,10.9291972 C50.4340618,8.53926534 41.7305776,10.4194961 35.8796437,12.0832611 L38.0369713,8.22841059 L23.1846006,-0.103 L-0.458,42.1367483 L14.3931135,50.4681589 L15.9683649,47.6528469 C16.6334152,49.0913367 17.4530991,50.709795 18.2891264,51.9960037 C17.7284224,52.5107389 17.342467,52.8543152 17.1802902,52.9726162 C14.3566552,54.6363812 16.0349957,57.9626529 17.26075,60.3903403 L17.527273,60.9201778 C18.668796,63.2031353 21.3993994,63.9355947 23.7427902,63.9355947 C23.8949095,63.9355947 24.0394856,63.9255265 24.1878333,63.9192339 C24.3776681,65.885044 25.0112888,68.5103193 26.9724957,69.7902354 C27.5407428,70.1614992 28.8230704,70.798311 30.9112529,70.798311 C31.1425747,70.798311 31.3952687,70.7781746 31.6454483,70.7630724 C32.163408,73.3367483 33.7361451,76.2149864 34.8034943,77.0934342 C35.9123305,78.0071206 37.3568348,78.4627053 39.1307213,78.4627053 C39.3746149,78.4627053 39.634852,78.4375349 39.8900603,78.4211741 C40.2420718,80.6676345 41.6300029,83.0198107 44.8735374,83.6692077 C45.616533,83.8177132 46.3519856,83.897 47.1075532,83.897 C49.6508362,83.897 52.4342414,83.0072255 56.5364325,80.9331825 C57.1637672,81.6820026 57.9532787,82.3527944 58.9275963,82.85872 C60.0427184,83.4376397 61.2584152,83.7434604 62.4439397,83.7434604 C64.6075532,83.7434604 66.417898,82.7391605 67.2878693,81.0577761 C67.5267342,80.5958988 67.6537098,80.1088511 67.7316552,79.6155107 C68.5073376,79.8042889 69.2930776,79.9062292 70.0675029,79.9062292 C72.918796,79.9062292 75.2948736,78.6061767 76.4225675,76.4276765 C76.9442989,75.422118 77.1479626,74.2844148 77.0574454,73.1215412 C78.0355345,73.3669528 79.0211667,73.4965805 79.9866839,73.4965805 C79.9866839,73.4965805 79.9866839,73.4965805 79.9866839,73.4965805 C83.1397011,73.4965805 85.7357859,72.1197583 86.9288534,69.8141474 C87.7183649,68.2875611 87.8164253,66.5696796 87.3412098,64.8807441 C87.650477,64.907173 87.9584871,64.9398946 88.2664971,64.9398946 C91.6860374,64.9398946 94.5574454,63.33528 95.949148,60.6483372 C97.4992557,57.6543152 96.7977471,54.0020865 94.4845287,51.2069109 C94.8956279,50.5738747 95.292898,49.8439324 95.6537098,49.0863026 L96.7914612,51.0621809 L111.542,42.5495433 L87.3902399,0.600513372 L72.6409583,9.11315102 Z M13.7479505,44.897 L5.542,40.2905532 L25.3360495,4.897 L33.542,9.50344678 L13.7479505,44.897 Z M18.542,44.0284298 L33.356734,17.2425717 C40.8158745,14.7690004 49.6835065,13.039902 51.4250954,14.3430456 C54.9718987,16.9986273 72.3291529,31.5114256 73.9310155,32.8512241 C74.3763932,33.3921994 75.0912431,34.6372008 73.8411914,36.0604207 C72.3304004,37.7844633 69.8714665,37.2851988 69.1453886,37.0880209 L51.867978,25.1385351 L51.3751931,25.0968244 C51.0358578,25.0702812 42.9367207,24.4231333 36.4930911,27.2455578 L37.9776834,30.726506 C39.3075787,30.14382 40.7435163,29.7393526 42.1619881,29.4511695 C34.9847953,36.5584213 26.2830884,45.121756 21.3265462,49.897 C20.3571948,48.2348915 19.2730681,45.8346299 18.542,44.0284298 Z M64.4495019,79.2546508 C64.0908364,80.0018061 62.5450726,80.1382432 61.3036311,79.4456627 C59.9257276,78.6751182 59.2868924,77.2899573 59.6358969,76.5648918 C59.8351555,76.1542813 60.3858339,75.897 61.0729742,75.897 C61.6333135,75.897 62.2250512,76.0620239 62.7829753,76.3712812 C63.011217,76.4999218 63.2116833,76.6480535 63.3988656,76.8039815 C63.5365352,76.9443168 63.6754124,77.0833526 63.822743,77.2158915 C64.4482943,77.9305618 64.6922351,78.7504835 64.4495019,79.2546508 Z M73.3079571,75.3705877 C72.8643467,76.3264284 71.7982508,76.897 70.4554946,76.897 C69.5026862,76.897 68.5057553,76.6103811 67.5732195,76.0704711 C67.0866791,75.7878515 66.6585712,75.4412426 66.2733934,75.0693046 C66.1768008,74.9706544 66.0814007,74.8733373 65.9788456,74.7773533 C64.735067,73.4162468 64.192479,71.6872016 64.7779971,70.4220792 C65.2216074,69.4675716 66.2865109,68.897 67.6280746,68.897 C68.5808829,68.897 69.5790063,69.1836189 70.5139271,69.7261951 C71.7159682,70.4220792 72.691434,71.4912343 73.188707,72.6590397 C73.4355547,73.2376099 73.7778025,74.3560902 73.3079571,75.3705877 Z M84.2729562,68.3271348 C83.7562713,69.3096518 82.4535919,69.897 80.7889893,69.897 C79.4631564,69.897 78.0581149,69.5366637 76.7249705,68.8544269 C73.6187684,67.267746 71.8274318,64.3418152 72.8132762,62.4668652 C73.3311797,61.4843482 74.6338592,60.897 76.2996804,60.897 C77.6242946,60.897 79.0305547,61.2573363 80.3636991,61.9383719 C80.7889893,62.1557749 81.1838145,62.4032058 81.556705,62.6638491 C81.7492432,62.8235982 81.9466558,62.980945 82.1525986,63.129884 C84.0938225,64.7417885 85.0467649,66.8545604 84.2729562,68.3271348 Z M93.127233,58.731341 C92.4072795,60.0868428 90.8127434,60.897 88.8619417,60.897 C87.6842858,60.897 86.469519,60.5971209 85.3487667,60.0275925 C85.0456935,59.8740254 84.7698351,59.6950653 84.4976877,59.5124776 C84.2638884,59.3214256 84.0226669,59.1340012 83.769075,58.9538319 C81.8034289,57.279104 80.9770905,54.9018368 81.9518729,53.0638682 C82.6718264,51.7071572 84.2675995,50.897 86.2184012,50.897 C87.3960571,50.897 88.6095869,51.1968791 89.7303392,51.7664075 C92.8130265,53.3274716 94.3358146,56.4520181 93.127233,58.731341 Z M91.8710363,48.7278513 C91.6379079,48.5879403 91.4035193,48.4480292 91.1577894,48.3218594 C89.4805249,47.4611565 87.6419608,47.0039471 85.8399412,47.0039471 C82.4123234,47.0039471 79.5328724,48.5966847 78.1378824,51.2649887 C77.2608155,52.9426723 77.1108572,54.8289733 77.5544312,56.652814 C76.8966311,56.5428839 76.2388309,56.4666823 75.5898518,56.4666823 C72.4293865,56.4666823 69.8271694,57.8333137 68.6287633,60.121859 C67.880232,61.5546982 67.7504362,63.1599279 68.1410838,64.7476687 C67.8613297,64.7214354 67.5803155,64.6939529 67.3018215,64.6939529 C64.4450533,64.6939529 62.0646232,65.9843826 60.9342654,68.1455089 C60.2865464,69.3834721 60.1391085,70.7700907 60.4024806,72.1429681 C58.3345685,72.209176 56.6094182,73.1823074 55.7676356,74.7937831 C55.3643865,75.5657924 55.2219891,76.3977636 55.2673546,77.2334824 C50.0805624,79.8543165 47.8576514,80.1578736 45.7771379,79.7456356 C44.2649535,79.4458262 43.833981,78.3889979 43.7432499,77.5045601 C46.0430303,76.8274904 48.6691904,75.696959 51.6330716,74.0842341 L49.81467,70.7975732 C40.454249,75.890586 37.7827234,74.3603087 37.3517509,74.0067834 C36.7556982,73.464628 35.7652175,71.2372937 35.4615205,69.8331862 C37.5647168,69.1298833 40.0623413,67.9006646 43.0148812,65.810743 L40.8171733,62.7614312 C32.5833296,68.5927247 29.2918084,66.5914967 29.1557118,66.5040523 C28.4727086,66.0618334 28.1097843,64.3279355 28.0278744,62.8338852 C30.444849,61.58343 34.7797774,58.8988864 36.2768398,57.9632311 L34.2605941,54.7939955 C30.6956195,57.0213298 26.343049,59.5984417 25.5327702,59.8720178 C24.3557868,60.2605209 21.5166607,60.1768241 21.0062985,59.163718 L20.731585,58.6228118 C20.3245554,57.8245692 19.6780966,56.555376 19.542,55.9232777 C22.5147023,53.5160578 40.035878,36.5543392 48.2861037,28.5406829 C49.3786568,28.5181971 50.2519433,28.5431813 50.7534844,28.5669162 L67.8134439,40.1108286 L68.0516129,40.1932761 C68.1612463,40.2295031 69.4667654,40.6642268 71.178054,40.6642268 C72.998976,40.6642268 75.2785938,40.1720396 77.0617112,38.1858022 C80.0747385,34.8266873 78.3546288,31.2901852 77.0251667,29.8898253 L76.8537858,29.7299269 C76.2413512,29.2277461 64.7966362,19.8574521 58.0384324,14.4833681 C65.0675692,12.3622163 75.3100977,16.599523 77.6514631,17.64261 L93.542,44.9702398 C93.1626938,46.2844045 92.4532273,47.730985 91.8710363,48.7278513 Z M99.2133112,45.897 L78.542,10.6216168 L86.8719635,5.897 L107.542,41.1723832 L99.2133112,45.897 Z" id="Shape"></path>
                        </g>
                    </g>
                </g>
            </g>
        </g>
    </g>
</svg>