<?xml version="1.0" encoding="UTF-8"?>
<svg width="111px" height="105px" viewBox="0 0 111 105" version="1.1" xmlns="http://www.w3.org/2000/svg" xmlns:xlink="http://www.w3.org/1999/xlink">
    <!-- Generator: Sketch 61.2 (89653) - https://sketch.com -->
    <title>noun_schedule_1491208</title>
    <desc>Created with Sketch.</desc>
    <g id="Page-1" stroke="none" stroke-width="1" fill="none" fill-rule="evenodd">
        <g id="NEED-HELP" transform="translate(-879.000000, -328.000000)" fill="#333F48" fill-rule="nonzero">
            <g id="HEADER-SIDE" transform="translate(-3.000000, 109.000000)">
                <g id="SEARCH-SIDE" transform="translate(347.000000, 165.000000)">
                    <g id="SCHEDULE-CALL" transform="translate(420.000000, 0.000000)">
                        <g id="noun_schedule_1491208" transform="translate(115.000000, 54.000000)">
                            <g id="Group">
                                <path d="M14.1104651,0.525 L14.1104651,8.26875 L0.0511627907,8.26875 L0.0511627907,84.91875 L51.9523256,84.91875 C56.6527289,97.039947 68.5378816,104.844086 81.5415761,104.347918 C94.5452707,103.85175 105.799792,95.1646944 109.560808,82.7206439 C113.321824,70.2765934 108.759914,56.8198442 98.2034884,49.21875 L98.2034884,8.4 L84.144186,8.4 L84.144186,0.525 L81.5162791,0.525 L81.5162791,8.26875 L67.3255814,8.26875 L67.3255814,0.525 L64.6976744,0.525 L64.6976744,8.26875 L50.5069767,8.26875 L50.5069767,0.525 L47.8790698,0.525 L47.8790698,8.26875 L33.5569767,8.26875 L33.5569767,0.525 L30.9290698,0.525 L30.9290698,8.26875 L16.7383721,8.26875 L16.7383721,0.525 L14.1104651,0.525 Z M108.32093,73.89375 C108.32093,89.2439502 95.8758887,101.694385 80.5087083,101.718441 C65.1415278,101.742428 52.6577074,89.3309619 52.6092994,73.9808374 C52.5611721,58.630713 64.9666926,46.1411566 80.3337209,46.06875 C95.7394618,46.06875 108.248603,58.5052205 108.32093,73.89375 Z M31.0604651,10.89375 L31.0604651,17.325 L33.6883721,17.325 L33.6883721,11.025 L47.8790698,11.025 L47.8790698,17.45625 L50.5069767,17.45625 L50.5069767,11.025 L64.6976744,11.025 L64.6976744,17.45625 L67.3255814,17.45625 L67.3255814,11.025 L81.5162791,11.025 L81.5162791,17.45625 L84.144186,17.45625 L84.144186,11.025 L95.5755814,11.025 L95.5755814,47.5125 C84.9600091,41.3945632 71.7087228,42.2218525 61.9383721,49.6125 L61.9383721,48.5625 L54.7116279,48.5625 L54.7116279,51.1875 L60.0988372,51.1875 C51.3471862,58.9566613 47.823543,71.0462215 51.0325581,82.29375 L2.67906977,82.29375 L2.67906977,11.025 L14.1104651,11.025 L14.1104651,17.45625 L16.7383721,17.45625 L16.7383721,11.025 L31.0604651,10.89375 Z" id="Shape"></path>
                                <rect id="Rectangle" x="36.3162791" y="33.20625" width="7.22674419" height="2.625"></rect>
                                <rect id="Rectangle" x="17.9209302" y="33.20625" width="7.22674419" height="2.625"></rect>
                                <rect id="Rectangle" x="54.7116279" y="33.20625" width="7.22674419" height="2.625"></rect>
                                <rect id="Rectangle" x="73.1069767" y="33.20625" width="7.22674419" height="2.625"></rect>
                                <rect id="Rectangle" x="36.3162791" y="48.5625" width="7.22674419" height="2.625"></rect>
                                <rect id="Rectangle" x="17.9209302" y="48.5625" width="7.22674419" height="2.625"></rect>
                                <rect id="Rectangle" x="36.3162791" y="63.7875" width="7.22674419" height="2.625"></rect>
                                <rect id="Rectangle" x="17.9209302" y="63.7875" width="7.22674419" height="2.625"></rect>
                            </g>
                            <g id="noun_call_1322485" transform="translate(67.000000, 58.000000)" stroke="#333F48">
                                <path d="M22.2226834,33 C23.773988,33 25.8128454,32.6006176 27.6744109,30.8699605 C27.8960259,30.736833 28.6495167,30.1599473 28.9154546,29.1393034 C29.1370695,28.2961627 28.9154546,27.4530221 28.3392558,26.5211298 L24.2615408,21.4622859 C23.862634,20.8854002 22.6215903,19.9978838 20.8486708,20.8410244 L18.0119995,23.0598156 C16.7266329,22.1722991 11.2305823,17.9122201 9.19172487,12.0102355 L11.2749053,10.3683301 C11.3192283,10.3239543 12.427303,9.56956526 12.604595,8.23829056 C12.7375639,7.43952574 12.471626,6.5963851 11.8511042,5.79762028 L7.77338925,0.783152239 L7.72906626,0.738776416 C7.10854443,0.206266535 5.55723984,-0.548122462 3.91728928,0.605648946 C3.73999733,0.738776416 -0.559332527,3.66758076 0.0611893075,9.56956526 C0.0168663193,10.1908268 -0.071779657,16.0484355 8.74849499,25.6336133 C8.97010993,25.8554924 13.8456386,31.0474638 19.829242,32.6449934 C19.917888,32.6893692 20.8929937,33 22.2226834,33 Z M9.36901682,25.0567276 C0.548742177,15.4271739 0.947649071,9.65831691 0.947649071,9.56956526 L0.947649071,9.52518944 L0.947649071,9.48081362 C0.327127236,4.11133899 4.2275502,1.44878959 4.40484215,1.31566212 C4.89239502,1.00503136 5.3356249,0.871903886 5.73453179,0.871903886 C6.48802259,0.871903886 7.01989845,1.2712863 7.10854443,1.36003794 L11.1419363,6.33013016 C11.6294892,6.95139169 11.8067812,7.52827739 11.7181352,8.10516309 C11.5851662,9.03705538 10.7430295,9.61394109 10.7430295,9.65831691 L8.17229614,11.6996048 L8.26094212,12.0102355 C10.5214145,19.1103673 17.4801237,23.8142046 17.7460616,23.9917079 L18.0119995,24.1692112 L21.2475777,21.6397892 C22.7102363,20.9741519 23.4194041,21.8616683 23.552373,21.9947958 L27.6300879,27.0092638 C28.0733178,27.719277 28.2062868,28.3405385 28.0733178,28.9174243 C27.8960259,29.7161891 27.2311811,30.1155715 27.1868581,30.1155715 L27.0982121,30.1599473 C24.0399259,33.0887516 20.2281489,31.8462286 20.050857,31.8018528 C14.2888685,30.2930748 9.41333981,25.1011034 9.36901682,25.0567276 Z" id="Shape"></path>
                            </g>
                        </g>
                    </g>
                </g>
            </g>
        </g>
    </g>
</svg>