<?xml version="1.0" encoding="UTF-8"?>
<svg width="167px" height="82px" viewBox="0 0 167 82" version="1.1" xmlns="http://www.w3.org/2000/svg" xmlns:xlink="http://www.w3.org/1999/xlink">
    <!-- Generator: Sketch 61.2 (89653) - https://sketch.com -->
    <title>noun_Email_2820270</title>
    <desc>Created with Sketch.</desc>
    <g id="Page-1" stroke="none" stroke-width="1" fill="none" fill-rule="evenodd">
        <g id="NEED-HELP" transform="translate(-431.000000, -338.000000)" fill="#333F48" fill-rule="nonzero">
            <g id="HEADER-SIDE" transform="translate(-3.000000, 109.000000)">
                <g id="SEARCH-SIDE" transform="translate(347.000000, 165.000000)">
                    <g id="CONTACT-BY-EMAIL">
                        <g id="noun_Email_2820270" transform="translate(87.000000, 64.000000)">
                            <path d="M164.907963,39 L149.092037,39 C147.936718,39 147,39.8955078 147,41 C147,42.1044922 147.936718,43 149.092037,43 L164.907963,43 C166.063282,43 167,42.1044922 167,41 C167,39.8955078 166.063282,39 164.907963,39 Z" id="Path"></path>
                            <path d="M142.183355,74.8133877 L156.828644,81.7773273 C157.146512,81.9290599 157.486704,82 157.820518,82 C158.611466,82 159.37371,81.5999774 159.759616,80.9033865 C160.308176,79.9121977 159.886125,78.6953801 158.816644,78.1869771 L144.171356,71.2230373 C143.100812,70.713649 141.791071,71.1067746 141.240384,72.0969783 C140.691824,73.0881671 141.113875,74.3049846 142.183355,74.8133877 Z" id="Path"></path>
                            <path d="M143.179482,11 C143.513296,11 143.853488,10.9290725 144.171356,10.7773661 L158.816644,3.81464137 C159.886125,3.30632706 160.308176,2.08972182 159.759616,1.09870591 C159.211055,0.107689989 157.898125,-0.288322442 156.828644,0.224917388 L142.183356,7.18764213 C141.113875,7.69595644 140.691824,8.91256168 141.240384,9.90357759 C141.62629,10.6000472 142.388534,11 143.179482,11 Z" id="Path"></path>
                            <path d="M2.09203739,43 L17.9079626,43 C19.0632821,43 20,42.1044922 20,41 C20,39.8955078 19.0632821,39 17.9079626,39 L2.09203739,39 C0.936717898,39 0,39.8955078 0,41 C0,42.1044922 0.936717898,43 2.09203739,43 Z" id="Path"></path>
                            <path d="M25.7596157,9.90342954 C26.3081761,8.91227981 25.8861249,7.6955103 24.8166445,7.18712734 L10.1713556,0.223462426 C9.10081225,-0.28689108 7.79107097,0.107204272 7.24038427,1.09736893 C6.69182386,2.08851867 7.1138751,3.30528818 8.18335554,3.81367113 L22.8286444,10.7773361 C23.1465118,10.9290627 23.4867043,11 23.8205182,11 C24.611466,11 25.3737098,10.599993 25.7596157,9.90342954 Z" id="Path"></path>
                            <path d="M7.24038437,80.9035529 C7.62629029,81.6000381 8.3885343,82 9.17948184,82 C9.51329574,82 9.85348828,81.9290709 10.1713557,81.7773611 L24.8166445,74.814478 C25.8861247,74.3061521 26.3081762,73.0895193 25.7596158,72.0984808 C25.2110554,71.1064572 23.8981247,70.7124061 22.8286444,71.2246724 L8.18335563,78.1875555 C7.1138752,78.6958815 6.69182374,79.9125144 7.24038437,80.9035529 Z" id="Path"></path>
                            <path d="M130,69.9446377 L130,7.0553625 C130,5.92029657 129.061036,5 127.902947,5 L40.0970528,5 C38.9389636,5 38,5.92029657 38,7.0553625 L38,69.9446375 C38,71.0797034 38.9389636,72 40.0970528,72 L127.902947,72 C129.061036,72 130,71.0797036 130,69.9446377 Z M42.1941056,11.4496032 L70.7475069,37.9697257 L42.1941056,65.4613281 L42.1941056,11.4496032 Z M89.0316981,39.989335 C87.6196689,41.3732924 85.8594961,42.1450569 84.0747486,42.162368 C82.2244682,42.1781756 80.4755589,41.4204615 78.9529429,39.9281156 L45.7747362,9.11072499 L122.485603,9.11072499 L89.0316981,39.989335 Z M73.7936348,40.7988599 L76.0275132,42.8736669 C78.2658713,45.0685291 81.0991452,46.2728431 84.0163832,46.2728431 C84.0491497,46.2728431 84.0819161,46.2728431 84.1157066,46.2728431 C87.0042739,46.245746 89.8037574,45.04645 91.9520079,42.9389006 L94.3812049,40.6967441 L122.623709,67.8892752 L45.6569819,67.8892752 L73.7936348,40.7988599 Z M97.4366764,37.8766423 L125.805894,11.6925986 L125.805894,65.1912356 L97.4366764,37.8766423 Z" id="Shape"></path>
                        </g>
                    </g>
                </g>
            </g>
        </g>
    </g>
</svg>