<?xml version="1.0" encoding="UTF-8"?>
<svg width="147px" height="68px" viewBox="0 0 147 68" version="1.1" xmlns="http://www.w3.org/2000/svg" xmlns:xlink="http://www.w3.org/1999/xlink">
    <!-- Generator: Sketch 61.2 (89653) - https://sketch.com -->
    <title>noun_Shipping_1541531</title>
    <desc>Created with Sketch.</desc>
    <g id="Page-1" stroke="none" stroke-width="1" fill="none" fill-rule="evenodd">
        <g id="NEED-HELP-EMAIL" transform="translate(-647.000000, -300.000000)" fill="#333F48" fill-rule="nonzero">
            <g id="HEADER-SIDE" transform="translate(-3.000000, 107.000000)">
                <g id="SEARCH-SIDE" transform="translate(143.000000, 135.000000)">
                    <g id="LOGISTICS" transform="translate(420.000000, 0.000000)">
                        <g id="noun_Shipping_1541531" transform="translate(87.000000, 58.000000)">
                            <path d="M128.679762,13.3300629 L106.863683,13.3300629 L106.863683,0 L36.8001075,0 L36.8001075,11.3132031 L15.8815075,11.3132031 C14.8410338,11.3132031 14,12.1701768 14,13.2303702 C14,14.2905636 14.8410338,15.1475373 15.8815075,15.1475373 L36.8001075,15.1475373 L36.8001075,38.6328343 L30.7059048,38.6328343 C29.6654312,38.6328343 28.8243974,39.489808 28.8243974,40.5500014 C28.8243974,41.6101948 29.6654312,42.4671685 30.7059048,42.4671685 L36.8001075,42.4671685 L36.8001075,59.8827145 L45.5980364,59.8827145 C46.245275,64.4589924 50.0816687,68 54.7496888,68 C59.4195903,68 63.255984,64.4570752 63.9032226,59.8827145 L103.100668,59.8827145 L106.863683,59.8827145 L116.500764,59.8827145 C117.148002,64.4589924 120.984396,68 125.654298,68 C130.322318,68 134.160593,64.4570752 134.80595,59.8827145 L147,59.8827145 L147,33.7939045 L128.679762,13.3300629 Z M103.100668,3.83433421 L103.100668,13.3300629 L103.100668,43.3720714 L40.5631225,43.3720714 L40.5631225,3.83433421 L103.100668,3.83433421 Z M54.7496888,64.1656658 C51.7054097,64.1656658 49.2274644,61.6426739 49.2274644,58.5406975 C49.2274644,55.436804 51.7035282,52.9118949 54.7496888,52.9118949 C57.7958494,52.9118949 60.2737947,55.4348868 60.2737947,58.5406975 C60.2737947,61.6426739 57.7958494,64.1656658 54.7496888,64.1656658 Z M63.6661527,56.0483803 C62.5842859,52.0453354 59.0169477,49.0794779 54.7496888,49.0794779 C50.4824298,49.0794779 46.9169732,52.0453354 45.8351064,56.0483803 L40.5631225,56.0483803 L40.5631225,47.2083228 L103.100668,47.2083228 L103.100668,56.0483803 L63.6661527,56.0483803 Z M125.656179,64.1656658 C122.610019,64.1656658 120.132073,61.6426739 120.132073,58.5406975 C120.132073,55.436804 122.608137,52.9118949 125.656179,52.9118949 C128.700458,52.9118949 131.178404,55.4348868 131.178404,58.5406975 C131.176522,61.6426739 128.700458,64.1656658 125.656179,64.1656658 L125.656179,64.1656658 Z M143.238867,56.0483803 L134.570762,56.0483803 C133.488895,52.0453354 129.921557,49.0794779 125.656179,49.0794779 C121.387039,49.0794779 117.821582,52.0453354 116.739715,56.0483803 L106.865564,56.0483803 L106.865564,17.1643971 L127.020272,17.1643971 L143.240748,35.279709 L143.240748,56.0483803 L143.238867,56.0483803 Z" id="Shape"></path>
                            <path d="M25,25.5 C25,24.6705 24.1566038,24 23.1132075,24 L1.88679245,24 C0.843396226,24 0,24.6705 0,25.5 C0,26.3295 0.843396226,27 1.88679245,27 L23.1132075,27 C24.1566038,27 25,26.328 25,25.5 Z" id="Path"></path>
                            <path d="M22.4167194,38 L20.5832806,38 C19.7077264,38 19,38.6705 19,39.5 C19,40.3295 19.7077264,41 20.5832806,41 L22.4167194,41 C23.2922736,41 24,40.3295 24,39.5 C24,38.6705 23.2922736,38 22.4167194,38 Z" id="Path"></path>
                        </g>
                    </g>
                </g>
            </g>
        </g>
    </g>
</svg>