<?xml version="1.0" encoding="UTF-8"?>
<svg width="134px" height="134px" viewBox="0 0 134 134" version="1.1" xmlns="http://www.w3.org/2000/svg" xmlns:xlink="http://www.w3.org/1999/xlink">
    <!-- Generator: Sketch 63.1 (92452) - https://sketch.com -->
    <title>Group 33</title>
    <desc>Created with Sketch.</desc>
    <defs>
        <polygon id="path-1" points="0 0.106425806 67.7599652 0.106425806 67.7599652 55.9998452 0 55.9998452"></polygon>
        <polygon id="path-3" points="0.057311194 0.155506489 68.9801754 0.155506489 68.9801754 66.9038729 0.057311194 66.9038729"></polygon>
    </defs>
    <g id="Page-1" stroke="none" stroke-width="1" fill="none" fill-rule="evenodd">
        <g id="REFERRAL-3" transform="translate(-648.000000, -870.000000)">
            <g id="Group-4" transform="translate(265.000000, 870.000000)">
                <g id="Group-33" transform="translate(383.000000, 0.000000)">
                    <g id="Group-3" transform="translate(0.000000, 78.000000)">
                        <mask id="mask-2" fill="white">
                            <use xlink:href="#path-1"></use>
                        </mask>
                        <g id="Clip-2"></g>
                        <path d="M67.7599652,54.4834581 C67.7599652,55.3208774 67.0822833,55.9998452 66.2461924,55.9998452 L32.2487682,55.9998452 C19.6254955,55.9998452 9.35595,46.7727484 9.35595,35.4308129 L9.35595,17.5817806 L1.51379848,17.5817806 C0.958980303,17.5817806 0.448207576,17.2780387 0.183677273,16.7895226 C-0.0813681818,16.3007484 -0.0581863636,15.7059097 0.24395,15.2395871 L9.59987424,0.797264516 C9.87908636,0.366296774 10.357147,0.106425806 10.8697227,0.106425806 C11.3828136,0.106425806 11.8606167,0.366296774 12.1395712,0.797264516 L21.4962682,15.2395871 C21.7984045,15.7059097 21.8210712,16.3007484 21.5565409,16.7895226 C21.291753,17.2780387 20.7809803,17.5817806 20.2261621,17.5817806 L12.3834955,17.5817806 L12.3834955,35.4308129 C12.3834955,45.0999742 21.2948439,52.9668129 32.2487682,52.9668129 L66.2461924,52.9668129 C67.0822833,52.9668129 67.7599652,53.6457806 67.7599652,54.4834581" id="Fill-1" fill="#1E2533" mask="url(#mask-2)"></path>
                    </g>
                    <polygon id="Fill-4" fill="#FFFFFF" points="4 93 17 93 10.4997451 83"></polygon>
                    <path d="M99.6369769,0 C112.304703,0 122.610623,9.24338298 122.610623,20.6050197 L122.610623,39.4940315 L130.480551,39.4940315 C131.037593,39.4940315 131.549916,39.7985596 131.815642,40.2879243 C132.081626,40.777289 132.058362,41.3734194 131.755156,41.840552 L122.366093,56.3077028 C122.08615,56.7394191 121.606138,57 121.091747,57 C120.577097,57 120.097084,56.7394191 119.817142,56.3077028 L110.427562,41.840552 C110.124356,41.3734194 110.101092,40.777289 110.367076,40.2879243 C110.632802,39.7985596 111.145125,39.4940315 111.702167,39.4940315 L119.572612,39.4940315 L119.572612,20.6050197 C119.572612,10.9188043 110.629441,3.03855922 99.6369769,3.03855922 L65.5191345,3.03855922 C64.6800822,3.03855922 64,2.3584121 64,1.51927961 C64,0.680147126 64.6800822,0 65.5191345,0 L99.6369769,0 Z" id="Fill-6" fill="#1E2533"></path>
                    <polygon id="Fill-8" fill="#FFFFFF" points="128 42 115 42 121.500382 52"></polygon>
                    <g id="Group-12" transform="translate(65.000000, 66.000000)">
                        <mask id="mask-4" fill="white">
                            <use xlink:href="#path-3"></use>
                        </mask>
                        <g id="Clip-11"></g>
                        <path d="M68.9803299,33.5296897 C68.9803299,51.9321859 53.5207254,66.9038729 34.5189493,66.9038729 C15.5166582,66.9038729 0.057311194,51.9321859 0.057311194,33.5296897 C0.057311194,15.1271935 15.5166582,0.155506489 34.5189493,0.155506489 C53.5207254,0.155506489 68.9803299,15.1271935 68.9803299,33.5296897" id="Fill-10" fill="#1E2533" mask="url(#mask-4)"></path>
                    </g>
                    <path d="M131,99.5001284 C131,82.6827447 116.869284,69 99.500258,69 C82.1309737,69 68,82.6827447 68,99.5001284 C68,116.317512 82.1309737,130 99.500258,130 C116.869284,130 131,116.317512 131,99.5001284" id="Fill-13" fill="#FFFFFF"></path>
                    <path d="M97,97 L97,82 C92.4901663,82.5007784 89,85.6600934 89,89.4807992 C89,93.2189933 92.5397757,96.4229372 97,97" id="Fill-17" fill="#FFFFFF"></path>
                    <path d="M110,109.00025 C110,104.925015 106.077396,101.553313 101,101 L101,117 C106.077396,116.446437 110,113.074985 110,109.00025" id="Fill-19" fill="#FFFFFF"></path>
                    <path d="M70,34.5001289 C70,53.5233862 54.5235018,69 35.4998711,69 C16.476756,69 1,53.5233862 1,34.5001289 C1,15.4766138 16.476756,0 35.4998711,0 C54.5235018,0 70,15.4766138 70,34.5001289" id="Fill-21" fill="#1E2533"></path>
                    <path d="M67,34.500258 C67,17.1309737 52.869142,3 35.499742,3 C18.130858,3 4,17.1309737 4,34.500258 C4,51.8690263 18.130858,66 35.499742,66 C52.869142,66 67,51.8690263 67,34.500258" id="Fill-23" fill="#FFFFFF"></path>
                    <path d="M25,20 C25,14.4860098 29.4864094,10 35.0001309,10 C40.5138524,10 45,14.4860098 45,20 C45,25.5139902 40.5138524,30 35.0001309,30 C29.4864094,30 25,25.5139902 25,20" id="Fill-25" fill="#1E2533"></path>
                    <path d="M28,20 C28,23.8598297 31.1405134,27 35,27 C38.8594866,27 42,23.8598297 42,20 C42,16.1401703 38.8594866,13 35,13 C31.1405134,13 28,16.1401703 28,20" id="Fill-27" fill="#FFFFFF"></path>
                    <path d="M51.9989811,50.6867831 C51.9994906,50.7048085 52,50.7233489 52,50.7416318 C52,54.4471357 41.3486913,55 34.9999356,55 C28.65118,55 18,54.4471357 18,50.7416318 C17.9957957,49.9956384 18.0370611,32.2859563 29.5559617,32.0598665 C32.6783757,31.9970351 36.1054404,31.9566068 40.0045097,32.0807244 C51.0412166,32.4275843 51.9645933,49.8254273 51.9982169,50.5660131 C52,50.6064414 52,50.6468698 51.9989811,50.6867831" id="Fill-29" fill="#1E2533"></path>
                    <path d="M29.6192674,35.0580353 C21.845866,35.2112242 21.0757149,47.7701275 21,50.3113059 C22.2116941,50.9715938 27.0023854,52 35.009305,52 C42.9759453,52 47.7589886,50.9816687 49,50.3216391 C48.8062513,47.8791422 47.4413428,35.3153306 39.9246583,35.078185 C36.0891991,34.9575455 32.7052252,34.9975864 29.6192674,35.0580353" id="Fill-31" fill="#FFFFFF"></path>
                    <g id="noun_cart_2066962" transform="translate(81.000000, 85.000000)" fill="#000000" fill-rule="nonzero">
                        <g id="Group">
                            <path d="M1.07142857,2.14482391 C2.41071429,2.14482391 3.75357143,2.14482391 5.09285714,2.14482391 C5.28571429,2.14482391 5.47857143,2.14482391 5.67142857,2.14482391 C5.32857143,1.88772679 4.98214286,1.62710779 4.63928571,1.37001067 C4.81428571,2.08495197 4.98571429,2.79989328 5.16071429,3.51835646 C5.39285714,4.46574173 5.62142857,5.413127 5.85357143,6.36403415 C5.91428571,6.61056564 5.975,6.85709712 6.03571429,7.10715048 C6.21071429,7.82561366 6.38571429,8.54055496 6.55714286,9.25901814 C6.81071429,10.3014941 7.06428571,11.3439701 7.31785714,12.3864461 C7.59285714,13.5204909 7.87142857,14.6580576 8.14642857,15.7921025 C8.38928571,16.7923159 8.63214286,17.7960512 8.87857143,18.7962647 C9.03214286,19.4196371 9.18214286,20.0465315 9.33571429,20.6699039 C9.41785714,21.0009605 9.49642857,21.335539 9.57857143,21.6665955 C9.82142857,22.6597652 10.0642857,23.6564568 10.3035714,24.6496265 C10.3214286,24.7235859 10.3392857,24.7940235 10.3571429,24.8679829 C10.4678571,25.3152615 10.9321429,25.6427962 11.3892857,25.6427962 C12.0214286,25.6427962 12.6535714,25.6427962 13.2857143,25.6427962 C14.7892857,25.6427962 16.2964286,25.6427962 17.8,25.6427962 C19.6321429,25.6427962 21.4642857,25.6427962 23.2964286,25.6427962 C24.8714286,25.6427962 26.4428571,25.6427962 28.0178571,25.6427962 C28.7857143,25.6427962 29.5571429,25.6568837 30.3285714,25.6427962 C30.3392857,25.6427962 30.35,25.6427962 30.3607143,25.6427962 C30.9214286,25.6427962 31.4571429,25.1567769 31.4321429,24.5862327 C31.4071429,24.0121665 30.9607143,23.5296692 30.3607143,23.5296692 C29.7285714,23.5296692 29.0964286,23.5296692 28.4642857,23.5296692 C26.9607143,23.5296692 25.4535714,23.5296692 23.95,23.5296692 C22.1178571,23.5296692 20.2857143,23.5296692 18.4535714,23.5296692 C16.8785714,23.5296692 15.3071429,23.5296692 13.7321429,23.5296692 C12.9642857,23.5296692 12.1892857,23.5085379 11.4214286,23.5296692 C11.4107143,23.5296692 11.4,23.5296692 11.3892857,23.5296692 C11.7321429,23.7867663 12.0785714,24.0473853 12.4214286,24.3044824 C12.2214286,23.4874066 12.025,22.666809 11.825,21.8497332 C11.7,21.3390608 11.575,20.8283885 11.45,20.3141942 C11.3285714,19.8140875 11.2071429,19.3175027 11.0857143,18.8173959 C10.8607143,17.8911419 10.6357143,16.9648879 10.4107143,16.0386339 C10.1392857,14.9151547 9.86428571,13.7916756 9.59285714,12.6681964 C9.32857143,11.579936 9.06428571,10.4951974 8.8,9.40693703 C8.6,8.5828175 8.4,7.76221985 8.2,6.93810032 C8.12142857,6.62113127 8.04642857,6.30416222 7.96785714,5.98719317 C7.78928571,5.25464248 7.61071429,4.52209178 7.43214286,3.78954109 C7.20357143,2.85272145 6.975,1.91237994 6.74642857,0.975560299 C6.73214286,0.919210245 6.71785714,0.862860192 6.70714286,0.806510139 C6.59642857,0.35923159 6.13214286,0.031696905 5.675,0.031696905 C4.33571429,0.031696905 2.99285714,0.031696905 1.65357143,0.031696905 C1.46071429,0.031696905 1.26785714,0.031696905 1.075,0.031696905 C0.514285714,0.031696905 -0.0214285714,0.517716115 0.00357142857,1.08826041 C0.025,1.6588047 0.471428571,2.14482391 1.07142857,2.14482391 L1.07142857,2.14482391 Z" id="Path"></path>
                            <path d="M32.8964286,5.98367129 C32.7785714,6.46264674 32.6607143,6.93810032 32.5428571,7.41707577 C32.2571429,8.56520811 31.975,9.70981857 31.6892857,10.8579509 C31.3464286,12.245571 31,13.633191 30.6571429,15.0208111 C30.3607143,16.2217716 30.0607143,17.4227321 29.7642857,18.6236926 C29.6178571,19.2083244 29.4571429,19.7894344 29.3285714,20.377588 C29.325,20.3846318 29.325,20.3951974 29.3214286,20.4022412 C29.6642857,20.1451441 30.0107143,19.8845251 30.3535714,19.627428 C29.6892857,19.627428 29.025,19.627428 28.3607143,19.627428 C26.7785714,19.627428 25.1928571,19.627428 23.6107143,19.627428 C21.6964286,19.627428 19.7821429,19.627428 17.8678571,19.627428 C16.2071429,19.627428 14.55,19.627428 12.8892857,19.627428 C12.0857143,19.627428 11.275,19.6062967 10.4714286,19.627428 C10.4607143,19.627428 10.45,19.627428 10.4392857,19.627428 C10.7821429,19.8845251 11.1285714,20.1451441 11.4714286,20.4022412 C11.3535714,19.9232657 11.2392857,19.4442903 11.1214286,18.9653148 C10.8428571,17.8171825 10.5607143,16.6655283 10.2821429,15.5173959 C9.94642857,14.1332978 9.60714286,12.7491996 9.27142857,11.3651014 C8.97857143,10.1641409 8.68571429,8.95965848 8.39285714,7.75869797 C8.25,7.17758805 8.125,6.58591249 7.96785714,6.00832444 C7.96428571,6.00128068 7.96428571,5.99071505 7.96071429,5.98367129 C7.61785714,6.43094984 7.27142857,6.87470651 6.92857143,7.32198506 C7.17142857,7.32198506 7.41071429,7.32198506 7.65357143,7.32198506 C8.30714286,7.32198506 8.96071429,7.32198506 9.61428571,7.32198506 C10.5821429,7.32198506 11.5464286,7.32198506 12.5142857,7.32198506 C13.7,7.32198506 14.8821429,7.32198506 16.0678571,7.32198506 C17.3607143,7.32198506 18.65,7.32198506 19.9428571,7.32198506 C21.2464286,7.32198506 22.55,7.32198506 23.8535714,7.32198506 C25.075,7.32198506 26.2964286,7.32198506 27.5178571,7.32198506 C28.5464286,7.32198506 29.5714286,7.32198506 30.6,7.32198506 C31.3392857,7.32198506 32.0785714,7.32198506 32.8178571,7.32198506 C33.1714286,7.32198506 33.5214286,7.32550694 33.875,7.32198506 C33.8892857,7.32198506 33.9035714,7.32198506 33.9214286,7.32198506 C34.4821429,7.32198506 35.0178571,6.83596585 34.9928571,6.26542156 C34.9678571,5.69135539 34.5214286,5.20885806 33.9214286,5.20885806 C33.6785714,5.20885806 33.4392857,5.20885806 33.1964286,5.20885806 C32.5428571,5.20885806 31.8892857,5.20885806 31.2357143,5.20885806 C30.2678571,5.20885806 29.3035714,5.20885806 28.3357143,5.20885806 C27.15,5.20885806 25.9678571,5.20885806 24.7821429,5.20885806 C23.4892857,5.20885806 22.2,5.20885806 20.9071429,5.20885806 C19.6035714,5.20885806 18.3,5.20885806 16.9964286,5.20885806 C15.775,5.20885806 14.5535714,5.20885806 13.3321429,5.20885806 C12.3035714,5.20885806 11.2785714,5.20885806 10.25,5.20885806 C9.51071429,5.20885806 8.77142857,5.20885806 8.03214286,5.20885806 C7.67857143,5.20885806 7.32857143,5.20533618 6.975,5.20885806 C6.96071429,5.20885806 6.94642857,5.20885806 6.92857143,5.20885806 C6.21428571,5.20885806 5.73571429,5.88153682 5.89642857,6.54717182 C6.01428571,7.02614728 6.12857143,7.50512273 6.24642857,7.98409819 C6.525,9.13223052 6.80714286,10.2838847 7.08571429,11.4320171 C7.42142857,12.8161153 7.76071429,14.2002134 8.09642857,15.5843116 C8.38928571,16.7852721 8.68214286,17.9897545 8.975,19.190715 C9.11785714,19.771825 9.23571429,20.3635005 9.4,20.9410886 C9.40357143,20.9481323 9.40357143,20.958698 9.40714286,20.9657417 C9.51785714,21.4130203 9.98214286,21.740555 10.4392857,21.740555 C11.1035714,21.740555 11.7678571,21.740555 12.4321429,21.740555 C14.0142857,21.740555 15.6,21.740555 17.1821429,21.740555 C19.0964286,21.740555 21.0107143,21.740555 22.925,21.740555 C24.5857143,21.740555 26.2428571,21.740555 27.9035714,21.740555 C28.7071429,21.740555 29.5178571,21.7616862 30.3214286,21.740555 C30.3321429,21.740555 30.3428571,21.740555 30.3535714,21.740555 C30.8107143,21.740555 31.275,21.4130203 31.3857143,20.9657417 C31.5035714,20.4867663 31.6214286,20.0113127 31.7392857,19.5323372 C32.025,18.3842049 32.3071429,17.2395945 32.5928571,16.0914621 C32.9357143,14.703842 33.2821429,13.316222 33.625,11.9286019 C33.9214286,10.7276414 34.2214286,9.5266809 34.5178571,8.32572038 C34.6642857,7.74108858 34.8178571,7.15645678 34.9535714,6.57182497 C34.9571429,6.56478122 34.9571429,6.55421558 34.9607143,6.54717182 C35.0928571,6.01184632 34.7892857,5.37790822 34.2107143,5.24759872 C33.6607143,5.12433298 33.0392857,5.40960512 32.8964286,5.98367129 Z" id="Path"></path>
                            <path d="M15.7964286,29.6683031 C15.7964286,29.7669157 15.7892857,29.8655283 15.7785714,29.960619 C15.7928571,29.8655283 15.8035714,29.7739594 15.8178571,29.6788687 C15.7892857,29.8831377 15.7357143,30.0803629 15.6535714,30.2740662 C15.6892857,30.1895411 15.725,30.105016 15.7607143,30.0204909 C15.7035714,30.1472785 15.6392857,30.2705443 15.5607143,30.3867663 C15.5428571,30.4114194 15.525,30.4360726 15.5071429,30.4642476 C15.4142857,30.598079 15.6571429,30.2881537 15.575,30.3762006 C15.5285714,30.4255069 15.4821429,30.481857 15.4321429,30.5276414 C15.3892857,30.5699039 15.3392857,30.6121665 15.2964286,30.6509072 C15.1642857,30.770651 15.475,30.5276414 15.3857143,30.5875133 C15.3607143,30.6051227 15.3357143,30.6227321 15.3107143,30.6403415 C15.1857143,30.7213447 15.0535714,30.7917823 14.9178571,30.8516542 C15.0035714,30.8164354 15.0892857,30.7812166 15.175,30.7459979 C14.9821429,30.8234792 14.7821429,30.8763074 14.5714286,30.9080043 C14.6678571,30.8939168 14.7607143,30.8833511 14.8571429,30.8692636 C14.6571429,30.8939168 14.4607143,30.8939168 14.2607143,30.8692636 C14.3571429,30.8833511 14.45,30.8939168 14.5464286,30.9080043 C14.3392857,30.8798292 14.1392857,30.8270011 13.9428571,30.7459979 C14.0285714,30.7812166 14.1142857,30.8164354 14.2,30.8516542 C14.0714286,30.7953042 13.9464286,30.7319104 13.8285714,30.654429 C13.8035714,30.6368196 13.7785714,30.6192102 13.75,30.6016009 C13.6142857,30.510032 13.9285714,30.7495197 13.8392857,30.6685165 C13.7892857,30.6227321 13.7321429,30.5769477 13.6857143,30.5276414 C13.6428571,30.4853789 13.6,30.4360726 13.5607143,30.39381 C13.4392857,30.2635005 13.6857143,30.5699039 13.625,30.481857 C13.6071429,30.4572038 13.5892857,30.4325507 13.5714286,30.4078975 C13.4892857,30.2846318 13.4178571,30.1543223 13.3571429,30.0204909 C13.3928571,30.105016 13.4285714,30.1895411 13.4642857,30.2740662 C13.3857143,30.0838847 13.3321429,29.8866596 13.3,29.6788687 C13.3142857,29.7739594 13.325,29.8655283 13.3392857,29.960619 C13.3142857,29.7633938 13.3142857,29.5696905 13.3392857,29.3724653 C13.325,29.467556 13.3142857,29.5591249 13.3,29.6542156 C13.3285714,29.4499466 13.3821429,29.2527215 13.4642857,29.0590181 C13.4285714,29.1435432 13.3928571,29.2280683 13.3571429,29.3125934 C13.4142857,29.1858058 13.4785714,29.06254 13.5571429,28.946318 C13.575,28.9216649 13.5928571,28.8970117 13.6107143,28.8688367 C13.7035714,28.7350053 13.4607143,29.0449306 13.5428571,28.9568837 C13.5892857,28.9075774 13.6357143,28.8512273 13.6857143,28.8054429 C13.7285714,28.7631804 13.7785714,28.7209178 13.8214286,28.6821772 C13.9535714,28.5624333 13.6428571,28.8054429 13.7321429,28.745571 C13.7571429,28.7279616 13.7821429,28.7103522 13.8071429,28.6927428 C13.9321429,28.6117396 14.0642857,28.541302 14.2,28.4814301 C14.1142857,28.5166489 14.0285714,28.5518677 13.9428571,28.5870864 C14.1357143,28.5096051 14.3357143,28.4567769 14.5464286,28.42508 C14.45,28.4391676 14.3571429,28.4497332 14.2607143,28.4638207 C14.4607143,28.4391676 14.6571429,28.4391676 14.8571429,28.4638207 C14.7607143,28.4497332 14.6678571,28.4391676 14.5714286,28.42508 C14.7785714,28.4532551 14.9785714,28.5060832 15.175,28.5870864 C15.0892857,28.5518677 15.0035714,28.5166489 14.9178571,28.4814301 C15.0464286,28.5377801 15.1714286,28.601174 15.2892857,28.6786553 C15.3142857,28.6962647 15.3392857,28.7138741 15.3678571,28.7314835 C15.5035714,28.8230523 15.1892857,28.5835646 15.2785714,28.6645678 C15.3285714,28.7103522 15.3857143,28.7561366 15.4321429,28.8054429 C15.475,28.8477054 15.5178571,28.8970117 15.5571429,28.9392743 C15.6785714,29.0695838 15.4321429,28.7631804 15.4928571,28.8512273 C15.5107143,28.8758805 15.5285714,28.9005336 15.5464286,28.9251868 C15.6285714,29.0484525 15.7,29.178762 15.7607143,29.3125934 C15.725,29.2280683 15.6892857,29.1435432 15.6535714,29.0590181 C15.7321429,29.2491996 15.7857143,29.4464248 15.8178571,29.6542156 C15.8035714,29.5591249 15.7928571,29.467556 15.7785714,29.3724653 C15.7892857,29.4745998 15.7964286,29.5696905 15.7964286,29.6683031 C15.8035714,30.221238 16.2857143,30.7495197 16.8678571,30.7248666 C17.4428571,30.7002134 17.9464286,30.2599787 17.9392857,29.6683031 C17.9321429,29.0202775 17.7464286,28.3370331 17.3571429,27.8052295 C16.9142857,27.2029883 16.3607143,26.776841 15.6535714,26.516222 C14.4071429,26.0548559 12.8571429,26.4739594 12.0107143,27.4812166 C11.5214286,28.0623266 11.25,28.7209178 11.1857143,29.4710779 C11.1285714,30.1191035 11.3142857,30.8199573 11.6535714,31.3764141 C11.9857143,31.9187834 12.4892857,32.3942369 13.075,32.6583778 C13.7857143,32.9788687 14.5178571,33.0669157 15.2857143,32.9225187 C16.8285714,32.6302028 17.925,31.1827108 17.9428571,29.6647812 C17.95,29.1118463 17.4464286,28.5835646 16.8714286,28.6082177 C16.2857143,28.6399146 15.8035714,29.0766275 15.7964286,29.6683031 Z" id="Path"></path>
                            <path d="M28.2607143,29.6683031 C28.2607143,29.7669157 28.2535714,29.8655283 28.2428571,29.960619 C28.2571429,29.8655283 28.2678571,29.7739594 28.2821429,29.6788687 C28.2535714,29.8831377 28.2,30.0803629 28.1178571,30.2740662 C28.1535714,30.1895411 28.1892857,30.105016 28.225,30.0204909 C28.1678571,30.1472785 28.1035714,30.2705443 28.025,30.3867663 C28.0071429,30.4114194 27.9892857,30.4360726 27.9714286,30.4642476 C27.8785714,30.598079 28.1214286,30.2881537 28.0392857,30.3762006 C27.9928571,30.4255069 27.9464286,30.481857 27.8964286,30.5276414 C27.8535714,30.5699039 27.8035714,30.6121665 27.7607143,30.6509072 C27.6285714,30.770651 27.9392857,30.5276414 27.85,30.5875133 C27.825,30.6051227 27.8,30.6227321 27.775,30.6403415 C27.65,30.7213447 27.5178571,30.7917823 27.3821429,30.8516542 C27.4678571,30.8164354 27.5535714,30.7812166 27.6392857,30.7459979 C27.4464286,30.8234792 27.2464286,30.8763074 27.0357143,30.9080043 C27.1321429,30.8939168 27.225,30.8833511 27.3214286,30.8692636 C27.1214286,30.8939168 26.925,30.8939168 26.725,30.8692636 C26.8214286,30.8833511 26.9142857,30.8939168 27.0107143,30.9080043 C26.8035714,30.8798292 26.6035714,30.8270011 26.4071429,30.7459979 C26.4928571,30.7812166 26.5785714,30.8164354 26.6642857,30.8516542 C26.5357143,30.7953042 26.4107143,30.7319104 26.2928571,30.654429 C26.2678571,30.6368196 26.2428571,30.6192102 26.2142857,30.6016009 C26.0785714,30.510032 26.3928571,30.7495197 26.3035714,30.6685165 C26.2535714,30.6227321 26.1964286,30.5769477 26.15,30.5276414 C26.1071429,30.4853789 26.0642857,30.4360726 26.025,30.39381 C25.9035714,30.2635005 26.15,30.5699039 26.0892857,30.481857 C26.0714286,30.4572038 26.0535714,30.4325507 26.0357143,30.4078975 C25.9535714,30.2846318 25.8821429,30.1543223 25.8214286,30.0204909 C25.8571429,30.105016 25.8928571,30.1895411 25.9285714,30.2740662 C25.85,30.0838847 25.7964286,29.8866596 25.7642857,29.6788687 C25.7785714,29.7739594 25.7892857,29.8655283 25.8035714,29.960619 C25.7785714,29.7633938 25.7785714,29.5696905 25.8035714,29.3724653 C25.7892857,29.467556 25.7785714,29.5591249 25.7642857,29.6542156 C25.7928571,29.4499466 25.8464286,29.2527215 25.9285714,29.0590181 C25.8928571,29.1435432 25.8571429,29.2280683 25.8214286,29.3125934 C25.8785714,29.1858058 25.9428571,29.06254 26.0214286,28.946318 C26.0392857,28.9216649 26.0571429,28.8970117 26.075,28.8688367 C26.1678571,28.7350053 25.925,29.0449306 26.0071429,28.9568837 C26.0535714,28.9075774 26.1,28.8512273 26.15,28.8054429 C26.1928571,28.7631804 26.2428571,28.7209178 26.2857143,28.6821772 C26.4178571,28.5624333 26.1071429,28.8054429 26.1964286,28.745571 C26.2214286,28.7279616 26.2464286,28.7103522 26.2714286,28.6927428 C26.3964286,28.6117396 26.5285714,28.541302 26.6642857,28.4814301 C26.5785714,28.5166489 26.4928571,28.5518677 26.4071429,28.5870864 C26.6,28.5096051 26.8,28.4567769 27.0107143,28.42508 C26.9142857,28.4391676 26.8214286,28.4497332 26.725,28.4638207 C26.925,28.4391676 27.1214286,28.4391676 27.3214286,28.4638207 C27.225,28.4497332 27.1321429,28.4391676 27.0357143,28.42508 C27.2428571,28.4532551 27.4428571,28.5060832 27.6392857,28.5870864 C27.5535714,28.5518677 27.4678571,28.5166489 27.3821429,28.4814301 C27.5107143,28.5377801 27.6357143,28.601174 27.7535714,28.6786553 C27.7785714,28.6962647 27.8035714,28.7138741 27.8321429,28.7314835 C27.9678571,28.8230523 27.6535714,28.5835646 27.7428571,28.6645678 C27.7928571,28.7103522 27.85,28.7561366 27.8964286,28.8054429 C27.9392857,28.8477054 27.9821429,28.8970117 28.0214286,28.9392743 C28.1428571,29.0695838 27.8964286,28.7631804 27.9571429,28.8512273 C27.975,28.8758805 27.9928571,28.9005336 28.0107143,28.9251868 C28.0928571,29.0484525 28.1642857,29.178762 28.225,29.3125934 C28.1892857,29.2280683 28.1535714,29.1435432 28.1178571,29.0590181 C28.1964286,29.2491996 28.25,29.4464248 28.2821429,29.6542156 C28.2678571,29.5591249 28.2571429,29.467556 28.2428571,29.3724653 C28.2535714,29.4745998 28.2607143,29.5696905 28.2607143,29.6683031 C28.2678571,30.221238 28.75,30.7495197 29.3321429,30.7248666 C29.9071429,30.7002134 30.4107143,30.2599787 30.4035714,29.6683031 C30.3964286,29.0202775 30.2107143,28.3370331 29.8214286,27.8052295 C29.3785714,27.2029883 28.825,26.776841 28.1178571,26.516222 C26.8714286,26.0548559 25.3214286,26.4739594 24.475,27.4812166 C23.9857143,28.0623266 23.7142857,28.7209178 23.65,29.4710779 C23.5928571,30.1191035 23.7785714,30.8199573 24.1178571,31.3764141 C24.45,31.9187834 24.9535714,32.3942369 25.5392857,32.6583778 C26.25,32.9788687 26.9821429,33.0669157 27.75,32.9225187 C29.2928571,32.6302028 30.3892857,31.1827108 30.4071429,29.6647812 C30.4142857,29.1118463 29.9107143,28.5835646 29.3357143,28.6082177 C28.75,28.6399146 28.2678571,29.0766275 28.2607143,29.6683031 Z" id="Path"></path>
                        </g>
                    </g>
                </g>
            </g>
        </g>
    </g>
</svg>