<?xml version="1.0" encoding="UTF-8"?>
<svg width="221px" height="45px" viewBox="0 0 221 45" version="1.1" xmlns="http://www.w3.org/2000/svg" xmlns:xlink="http://www.w3.org/1999/xlink">
    <!-- Generator: Sketch 61.2 (89653) - https://sketch.com -->
    <title>nywd-brands</title>
    <desc>Created with Sketch.</desc>
    <g id="Page-1" stroke="none" stroke-width="1" fill="none" fill-rule="evenodd">
        <g id="nywd-brands" transform="translate(-1.000000, 0.000000)" fill="#FFFFFF" fill-rule="nonzero">
            <path d="M165.89,2.57 C165.611998,1.85527798 165.051099,1.28714217 164.34,1 C163.646431,0.689834184 162.853569,0.689834184 162.16,1 C161.456001,1.29431947 160.900684,1.8604543 160.62,2.57 L148.42,38.76 C148.481539,38.8115755 148.538425,38.8684611 148.59,38.93 C149.88,40.66 151.23,42.34 152.54,44.05 L165.87,4.78 C166.175392,4.07498419 166.175392,3.27501581 165.87,2.57" id="Path" fill-opacity="0.595580201"></path>
            <path d="M73.61,27.61 L89.39,6.61 C90.318437,5.34328001 90.0653115,3.56696083 88.82,2.61 C88.2210186,2.14750398 87.4564377,1.95545285 86.71,2.08 C85.9579928,2.19850762 85.2827424,2.60796796 84.83,3.22 L69.59,23.48 C71.0516431,24.7263242 72.3910448,26.1092565 73.59,27.61" id="Path" fill-opacity="0.595580201"></path>
            <path d="M6.73,5.13 L5.17,4.58 L1,3.21 L1.12,40.68 C1.12776112,41.4368533 1.44160097,42.1583242 1.99,42.68 C2.5341259,43.2196166 3.27382845,43.5154976 4.04,43.5 C4.7998585,43.5066546 5.52682144,43.1904257 6.04,42.63 C6.55350477,42.0922368 6.83384031,41.3734278 6.82,40.63 L6.73,5.13 Z" id="Path" fill-opacity="0.604977054"></path>
            <path d="M189.42,5.13 L187.86,4.58 L183.69,3.21 L183.85,40.68 C183.857761,41.4368533 184.171601,42.1583242 184.72,42.68 C185.264126,43.2196166 186.003828,43.5154976 186.77,43.5 C187.529859,43.5066546 188.256821,43.1904257 188.77,42.63 C189.283505,42.0922368 189.56384,41.3734278 189.55,40.63 L189.42,5.13 Z" id="Path" fill-opacity="0.595580201"></path>
            <path d="M138.96,2.57 C138.681998,1.85527798 138.121099,1.28714217 137.41,1 C136.716431,0.689834184 135.923569,0.689834184 135.23,1 C134.526001,1.29431947 133.970684,1.8604543 133.69,2.57 L121.49,38.76 C121.551539,38.8115755 121.608425,38.8684611 121.66,38.93 C122.95,40.66 124.3,42.34 125.66,44.05 L138.98,4.78 C139.285392,4.07498419 139.285392,3.27501581 138.98,2.57" id="Path" fill-opacity="0.595580201"></path>
            <path d="M75.47,24.55 C75.94,26.11 75.61,32.08 75.61,34 L75.61,41.73 C75.6181122,42.4830203 75.3225581,43.2075648 74.7900615,43.7400615 C74.2575648,44.2725581 73.5330203,44.5681122 72.78,44.560319 C72.0310956,44.5620653 71.3119065,44.2671978 70.78,43.74 C70.2237759,43.2255055 69.9143847,42.4975263 69.93,41.74 L69.93,25.74 L54.93,4.74 C54.5834641,4.17510691 54.4064479,3.52257654 54.42,2.86 C54.3847393,2.14277651 54.6366404,1.44105208 55.12,0.91 C55.6884113,0.338508135 56.4755353,0.0396925314 57.28,0.09 C58.2691953,0.11708772 59.1688086,0.669816242 59.64,1.54 C59.64,1.54 74.69,22.65 75.24,23.91 C75.3313463,24.1074916 75.4082155,24.3113622 75.47,24.52" id="Path"></path>
            <path d="M35.23,0.91 C34.7045892,0.370720376 33.9829099,0.0676150896 33.23,0.07 C32.4747434,0.0556238876 31.7484915,0.360649655 31.23,0.91 C30.7037281,1.44251937 30.4090243,2.16130915 30.41,2.91 L30.41,36.91 L8.71,5.62 L8.71,5.62 L5.89,1.55 C5.46512475,0.912074517 4.79572325,0.477868141 4.04,0.35 C3.28427878,0.17888507 2.49263394,0.387998803 1.92,0.91 C0.833432255,1.97159021 0.672767443,3.66279876 1.54,4.91 L23.54,36.73 L23.6,36.8 L27.85,42.91 C28.6105698,43.9924827 29.8571702,44.6288853 31.18,44.6108004 L31.93,44.6108004 C33.0267172,44.6222369 34.0823964,44.1934799 34.86,43.42 C35.6799748,42.6644767 36.1383968,41.5948254 36.12,40.48 L36.12,2.97 C36.1186152,2.21585324 35.8119927,1.4943884 35.27,0.97" id="Path"></path>
            <path d="M109.04,0.16 C110.549825,-0.335894305 112.17752,0.475723798 112.69,1.98 L126.25,41.06 C126.509781,41.772884 126.451529,42.5629268 126.09,43.23 C125.749452,43.9106235 125.146517,44.423298 124.42,44.65 C123.71615,44.9006409 122.941037,44.8574168 122.269418,44.530073 C121.597799,44.2027292 121.086213,43.6188229 120.85,42.91 L107.29,3.79 C107.028173,3.0744042 107.071554,2.28270409 107.41,1.6 C107.722249,0.908872635 108.315645,0.384645592 109.04,0.16" id="Path"></path>
            <path d="M135.57,0.16 C137.08202,-0.330731788 138.708796,0.478211615 139.23,1.98 L152.79,41.06 C153.044647,41.7735879 152.986553,42.5614775 152.63,43.23 C152.289452,43.9106235 151.686517,44.423298 150.96,44.65 C150.253364,44.9097008 149.470388,44.8625773 148.8,44.52 C148.128094,44.1978759 147.615665,43.6168833 147.38,42.91 L133.82,3.79 C133.568485,3.07290195 133.61164,2.28532409 133.94,1.6 C134.257425,0.912709528 134.848814,0.390255678 135.57,0.16" id="Path"></path>
            <path d="M219.92,14.43 C217.308482,6.93998164 210.664253,1.58736267 202.79,0.63 L202.79,0.63 L201.79,0.47 C200.851168,0.351642001 199.906227,0.288200714 198.96,0.28 L196.46,0.28 L186.46,0.21 L186.46,0.21 C185.436122,0.148285919 184.462475,0.659472167 183.931885,1.53731551 C183.401295,2.41515886 183.401295,3.51484114 183.931885,4.39268449 C184.462475,5.27052783 185.436122,5.78171408 186.46,5.72 L196.46,5.65 L198.96,5.65 C199.685243,5.63953692 200.410333,5.67963408 201.13,5.77 C201.53,5.77 201.93,5.88 202.33,5.96 L202.33,5.96 C202.67,6.02 203.01,6.09 203.33,6.17 C204.008029,6.34604497 204.675729,6.55970905 205.33,6.81 L205.33,6.81 C205.443384,6.85390293 205.560536,6.88737486 205.68,6.91 C207.632724,7.69901695 209.415192,8.8567727 210.93,10.32 C213.993753,13.4118831 215.665584,17.6185436 215.56,21.97 C215.662845,26.3180147 213.99122,30.520544 210.93,33.61 C209.415192,35.0732273 207.632724,36.2309831 205.68,37.02 C205.560536,37.0426251 205.443384,37.0760971 205.33,37.12 L205.33,37.12 C204.675729,37.370291 204.008029,37.583955 203.33,37.76 C203,37.84 202.66,37.91 202.33,37.97 L202.33,37.97 C201.93,38.05 201.53,38.12 201.13,38.16 C200.410333,38.2503659 199.685243,38.2904631 198.96,38.28 L196.46,38.28 L186.46,38.21 C185.436122,38.1482859 184.462475,38.6594722 183.931885,39.5373155 C183.401295,40.4151589 183.401295,41.5148411 183.931885,42.3926845 C184.462475,43.2705278 185.436122,43.7817141 186.46,43.72 L186.46,43.72 L196.46,43.65 L198.96,43.65 C199.906227,43.6417993 200.851168,43.578358 201.79,43.46 L202.79,43.3 L202.79,43.3 C210.664253,42.3426373 217.308482,36.9900184 219.92,29.5 C220.764755,27.0776904 221.21384,24.5351293 221.25,21.97 C221.214564,19.4015413 220.765474,16.8555739 219.92,14.43" id="Path"></path>
        </g>
    </g>
</svg>