<?xml version="1.0" encoding="UTF-8"?>
<svg width="16px" height="16px" viewBox="0 0 16 16" version="1.1" xmlns="http://www.w3.org/2000/svg" xmlns:xlink="http://www.w3.org/1999/xlink">
    <title>PLUS</title>
    <g id="Page-1" stroke="none" stroke-width="1" fill="none" fill-rule="evenodd">
        <g id="CARRER" transform="translate(-1054.000000, -783.000000)" fill="#231F20" fill-rule="nonzero">
            <g id="FAQS-QUESTION-OPEN" transform="translate(332.000000, 745.000000)">
                <g id="PLUS" transform="translate(722.000000, 38.000000)">
                    <path d="M8,16 C7.81004824,16 7.65606191,15.8459971 7.65606191,15.6560249 L7.65606191,8.34311512 L0.343938091,8.34311512 C0.153986329,8.34311512 0,8.18911224 0,7.99914006 C0,7.80916788 0.153986329,7.655165 0.343938091,7.655165 L7.65606191,7.655165 L7.65606191,0.343975062 C7.65606191,0.154002881 7.81004824,0 8,0 C8.18995176,0 8.34393809,0.154002881 8.34393809,0.343975062 L8.34393809,7.655165 L15.6560619,7.655165 C15.8460137,7.655165 16,7.80916788 16,7.99914006 C16,8.18911224 15.8460137,8.34311512 15.6560619,8.34311512 L8.34393809,8.34311512 L8.34393809,15.6560249 C8.34393809,15.8459971 8.18995176,16 8,16 Z" id="Path"></path>
                </g>
            </g>
        </g>
    </g>
</svg>