<?xml version="1.0" encoding="UTF-8"?>
<svg width="145px" height="113px" viewBox="0 0 145 113" version="1.1" xmlns="http://www.w3.org/2000/svg" xmlns:xlink="http://www.w3.org/1999/xlink">
    <!-- Generator: Sketch 63.1 (92452) - https://sketch.com -->
    <title>Group 3</title>
    <desc>Created with Sketch.</desc>
    <defs>
        <polygon id="path-1" points="0 0 145 0 145 113 0 113"></polygon>
    </defs>
    <g id="Page-1" stroke="none" stroke-width="1" fill="none" fill-rule="evenodd">
        <g id="REFERRAL-3" transform="translate(-265.000000, -881.000000)">
            <g id="Group-4" transform="translate(265.000000, 870.000000)">
                <g id="Group-3" transform="translate(72.500000, 67.500000) scale(-1, 1) translate(-72.500000, -67.500000) translate(0.000000, 11.000000)">
                    <mask id="mask-2" fill="white">
                        <use xlink:href="#path-1"></use>
                    </mask>
                    <g id="Clip-2"></g>
                    <path d="M100.057816,89.1047101 C99.1182389,88.8357066 98.1405481,89.3795017 97.8732021,90.3166043 C97.4232986,91.8901098 97.1239153,93.4547956 96.8322652,95.0525556 C96.657717,96.011432 97.2943208,96.929517 98.2548882,97.1042591 C98.3617713,97.1235523 98.4683783,97.1329234 98.5733281,97.1329234 C99.4112699,97.1329234 100.155033,96.5362095 100.310801,95.6848242 C100.585604,94.1763646 100.866483,92.7048379 101.272197,91.2848518 C101.540371,90.3483004 100.996289,89.37206 100.057816,89.1047101 L100.057816,89.1047101 Z M101.911286,101.651136 C101.924267,101.651412 101.937524,101.651412 101.950504,101.651412 C102.90831,101.651412 103.695986,100.886846 103.7167,99.9257648 C103.749842,98.4073829 103.945932,96.8322237 104.133737,95.4913401 C104.269068,94.5261244 103.594627,93.63505 102.628259,93.5002726 C101.660787,93.3654952 100.767885,94.0380042 100.632831,95.0026686 C100.430941,96.4449798 100.219384,98.1488529 100.182375,99.8494185 C100.161385,100.823454 100.935252,101.629913 101.911286,101.651136 L101.911286,101.651136 Z M105.896343,105.723123 C105.954065,105.723123 106.012064,105.720366 106.070615,105.71513 C107.041953,105.620317 107.752851,104.75708 107.658119,103.787454 C107.491581,102.089369 107.434411,100.677376 107.476943,99.3436587 C107.508704,98.3701744 106.743122,97.555722 105.767089,97.5240259 C104.799341,97.4840612 103.974932,98.2560684 103.943723,99.2306551 C103.895667,100.720097 103.957808,102.277065 104.138985,104.130875 C104.228745,105.041794 104.997641,105.723123 105.896343,105.723123 L105.896343,105.723123 Z M111.643452,104.751016 C111.500942,104.0085 111.380525,103.28197 111.281652,102.571977 C111.146598,101.607313 110.257562,100.934253 109.286776,101.068203 C108.320408,101.202429 107.645415,102.093779 107.779917,103.058719 C107.887076,103.826317 108.016882,104.612105 108.171821,105.418013 C108.327037,106.219236 108.530032,106.955413 108.745179,107.734035 L108.775007,107.844282 C108.991259,108.627589 109.702708,109.141342 110.478785,109.141342 C110.633724,109.141342 110.791425,109.120671 110.948298,109.07795 C111.889532,108.81942 112.443005,107.848416 112.18422,106.909384 L112.15384,106.798034 C111.957473,106.086663 111.772154,105.414981 111.643452,104.751016 L111.643452,104.751016 Z M115.664413,111.681166 C115.950263,111.681166 116.240532,111.611986 116.508983,111.465632 C117.366258,110.999562 117.681936,109.927957 117.215185,109.072713 C116.553725,107.861095 115.989481,106.521038 115.538473,105.090027 C115.245994,104.160366 114.255047,103.64303 113.322098,103.936288 C112.390806,104.228168 111.873237,105.218741 112.166268,106.147851 C112.68577,107.796876 113.34005,109.348883 114.111155,110.761152 C114.432081,111.348494 115.03858,111.681166 115.664413,111.681166 L115.664413,111.681166 Z M120.044965,112.417343 C120.394337,112.80376 120.875174,113 121.358495,113 C121.780504,113 122.203618,112.850615 122.541391,112.546608 C123.266926,111.893943 123.324372,110.778516 122.671197,110.055017 C122.075745,109.396289 121.62087,108.853321 121.273431,108.393038 C120.771328,107.679186 120.413118,107.128225 120.111525,106.605377 C119.624337,105.761158 118.54363,105.470105 117.697402,105.957398 C116.851451,106.443865 116.560906,107.52236 117.04837,108.366579 C117.404647,108.983688 117.81478,109.616233 118.412995,110.465413 C118.859308,111.058268 119.377705,111.67841 120.044965,112.417343 L120.044965,112.417343 Z M127.264411,112.668707 C127.891348,112.668707 128.498952,112.334657 128.819326,111.746212 C129.284695,110.889865 128.967084,109.818812 128.109533,109.35412 C126.9062,108.702282 125.788484,107.864678 124.787318,106.864734 C124.09741,106.175688 122.977485,106.175412 122.287578,106.863356 C121.596842,107.552126 121.59629,108.668932 122.286197,109.357703 C123.528196,110.598537 124.920162,111.640374 126.42205,112.454551 C126.690501,112.600078 126.979389,112.668707 127.264411,112.668707 L127.264411,112.668707 Z M132.809077,110.53101 C133.6426,110.53101 134.38443,109.940084 134.544064,109.093109 C134.724965,108.135886 134.093608,107.213391 133.134422,107.033413 C131.683904,106.760275 130.363469,106.316805 129.210678,105.714578 C128.345394,105.261462 127.277944,105.595787 126.824726,106.459024 C126.372061,107.322261 126.705967,108.388077 127.570975,108.840091 C129.033644,109.604105 130.685224,110.162784 132.480419,110.500141 C132.590892,110.521364 132.700537,110.53101 132.809077,110.53101 L132.809077,110.53101 Z M137.545078,106.843511 C138.51835,106.767165 139.245818,105.917985 139.169039,104.946981 C139.093641,103.975702 138.242995,103.252755 137.268618,103.326345 C136.510217,103.385603 135.754302,103.416196 135.104718,103.418401 C134.383602,103.385603 133.66939,103.322211 132.981416,103.230154 C132.02002,103.104472 131.124632,103.779461 130.995378,104.745504 C130.866124,105.710995 131.545536,106.598211 132.513561,106.727476 C133.302342,106.832762 134.119846,106.904974 135.024624,106.944663 C135.847928,106.944112 136.695536,106.909935 137.545078,106.843511 L137.545078,106.843511 Z M142.523292,99.8758779 C142.229708,98.947595 141.238485,98.4299836 140.305812,98.7243441 C139.476155,98.9853547 138.787905,99.180217 138.195491,99.3249166 C137.475203,99.4756799 136.753535,99.6013619 136.050371,99.6989308 C135.083175,99.833157 134.408734,100.724231 134.542683,101.689171 C134.665861,102.571426 135.423158,103.210585 136.29148,103.210585 C136.372401,103.210585 136.454428,103.204797 136.537283,103.193497 C137.320264,103.084903 138.122026,102.945165 138.97571,102.765461 C139.701798,102.589617 140.462408,102.374359 141.369396,102.088818 C142.300411,101.796111 142.817151,100.804988 142.523292,99.8758779 L142.523292,99.8758779 Z M144.781923,94.3701244 C144.312411,93.5162585 143.239713,93.2028804 142.381609,93.6722585 C141.767653,94.008513 141.103983,94.3287816 140.415181,94.6220396 L139.994553,94.8006403 C139.454337,95.0313329 138.945054,95.2490715 138.428038,95.4130644 C137.497574,95.7085274 136.983044,96.7007537 137.278837,97.6287609 C137.518288,98.3795455 138.213719,98.8588459 138.963006,98.8588459 C139.140316,98.8588459 139.320664,98.8318353 139.499079,98.7756091 C140.179319,98.5597999 140.792724,98.2974112 141.386243,98.0438422 L141.795271,97.869927 C142.597033,97.5287114 143.366757,97.1571778 144.08235,96.7652484 C144.938243,96.2964215 145.25116,95.2239902 144.781923,94.3701244 L144.781923,94.3701244 Z M3.5351532,92.5477354 L7.35394721,91.2142935 L7.35394721,5.62595531 L3.5351532,4.26605404 L3.5351532,92.5477354 Z M10.8891004,89.9800742 L80.01405,65.8458232 L80.01405,31.4996342 L10.8891004,6.88470462 L10.8891004,89.9800742 Z M83.5492032,65.3334485 L118.201714,65.3334485 L118.201714,32.0200017 L83.5492032,32.0200017 L83.5492032,65.3334485 Z M121.736315,65.3334485 L128.352851,65.3334485 L128.352851,32.0200017 L121.736315,32.0200017 L121.736315,65.3334485 Z M105.682853,75.2705949 L107.938998,68.8610887 L89.7545018,68.8610887 C89.7553304,68.9627919 89.7661015,69.0636682 89.7553304,69.165647 C89.6738561,69.9489545 89.2595804,70.6606013 88.6180053,71.1186791 L84.8028017,73.8448209 C84.209835,74.2681708 84.0651146,75.0721497 84.4730382,75.6752028 L85.8788139,77.7533656 C86.9087035,79.2758818 86.9675306,81.2799033 86.0287818,82.859748 L77.4955295,97.222775 C76.5692089,98.7819484 77.0389976,100.773567 78.5651896,101.756974 L81.7252851,103.792967 C82.5132376,104.30038 83.4489485,104.455278 84.3575933,104.231751 C85.2667905,104.007122 86.021601,103.435214 86.4814471,102.620486 L100.015008,78.6587721 C100.812903,77.2456765 102.318657,76.3678319 103.944275,76.3678319 L104.158042,76.3678319 C104.850987,76.3678319 105.463839,75.9265668 105.682853,75.2705949 L105.682853,75.2705949 Z M138.273651,35.4395994 L131.888004,35.4395994 L131.888004,63.3729747 L134.945912,63.3729747 C135.347759,63.3729747 135.689123,63.072275 135.739388,62.6745577 L139.066851,36.3378399 C139.106069,36.0263911 138.962177,35.8105818 138.87297,35.7094299 C138.784039,35.6088292 138.587396,35.4395994 138.273651,35.4395994 L138.273651,35.4395994 Z M118.95542,28.492086 L130.120704,28.492086 C131.097014,28.492086 131.888004,29.282284 131.888004,30.2560439 L131.888004,31.9119593 L138.273651,31.9119593 C139.517031,31.9119593 140.701859,32.445281 141.524335,33.37632 C142.34681,34.3070834 142.729877,35.5470906 142.57411,36.7785537 L139.246647,63.1160984 C139.000843,65.0603107 137.471889,66.5616042 135.578373,66.8421838 C135.490823,70.0445941 137.226638,75.6060225 138.658099,80.1909349 C140.189262,85.0961159 141.512183,89.3323709 141.302007,91.9510215 C141.227713,92.8740676 140.454399,93.5741384 139.541611,93.5741384 C139.494384,93.5741384 139.446604,93.5724847 139.3991,93.5689016 C138.425828,93.4911772 137.700017,92.6406188 137.777625,91.6698907 C137.933669,89.7306396 136.585892,85.4144551 135.28258,81.2404898 C133.665247,76.0588636 132.006763,70.7355695 132.054267,66.9006149 L131.888004,66.9006149 L131.888004,67.0974064 C131.888004,68.0714419 131.097014,68.8610887 130.120704,68.8610887 L111.685985,68.8610887 L109.027715,76.4130333 C108.335598,78.4854081 106.374969,79.895472 104.158042,79.895472 L103.944275,79.895472 C103.592969,79.895472 103.267625,80.0853731 103.094734,80.3907583 L89.5611731,104.353023 C88.6315383,105.999292 87.0440336,107.203193 85.2054777,107.656861 C84.6630526,107.789985 84.1101326,107.856133 83.5585935,107.856133 C82.238987,107.856133 80.9301518,107.479639 79.8080169,106.756692 L76.6470928,104.720698 C73.5184822,102.704825 72.5551529,98.6212628 74.4544692,95.4238136 L82.9877214,81.0602354 C83.2329727,80.6476346 83.2172302,80.1247865 82.9487795,79.7276204 L81.5430038,77.6491819 C80.0563061,75.4516762 80.5840935,72.52075 82.7444035,70.97646 L85.7045419,68.8610887 L82.0821146,68.8610887 L2.35115306,96.6988244 C2.16113858,96.7652484 1.96366713,96.7974958 1.76730042,96.7974958 C1.40577577,96.7974958 1.04756532,96.6866972 0.744591643,96.472266 C0.277564763,96.1415239 0,95.6051705 0,95.0335379 L0,1.76343882 C0,1.18987689 0.27949805,0.651869743 0.749286769,0.321403261 C1.2187993,-0.00851198335 1.82143245,-0.0895437979 2.36137187,0.102011002 L82.0879145,28.492086 L113.990739,28.492086 L118.95542,28.492086 Z" id="Fill-1" fill="#333F48" mask="url(#mask-2)"></path>
                </g>
            </g>
        </g>
    </g>
</svg>