<?xml version="1.0" encoding="UTF-8"?>
<svg width="53px" height="103px" viewBox="0 0 53 103" version="1.1" xmlns="http://www.w3.org/2000/svg" xmlns:xlink="http://www.w3.org/1999/xlink">
    <!-- Generator: Sketch 61.2 (89653) - https://sketch.com -->
    <title>Shape</title>
    <desc>Created with Sketch.</desc>
    <g id="Page-1" stroke="none" stroke-width="1" fill="none" fill-rule="evenodd">
        <g id="HOME---NEW" transform="translate(-1121.000000, -2034.000000)" fill="#333F48" fill-rule="nonzero">
            <g id="SERVICE" transform="translate(131.000000, 1888.000000)">
                <g id="sevice-4" transform="translate(888.000000, 146.000000)">
                    <path d="M147.181837,55.6016726 L146.872499,55.3579181 L136.761916,55.3579181 L136.761916,49.2732206 C142.484679,46.540605 146.664432,41.0790391 147.634797,34.5618149 C147.736069,34.1897687 147.813403,33.799395 147.890738,33.4108541 C148.286618,33.6032918 148.723006,33.7224199 149.192538,33.7224199 L150.418844,33.7224199 C152.063125,33.7224199 153.396227,32.3936833 153.396227,30.758879 L153.396227,21.9012456 C153.396227,20.5486833 152.475577,19.4178826 151.230857,19.0641637 C150.280746,8.41044484 140.481344,0 128.553398,0 C116.62361,0 106.826049,8.4086121 105.877779,19.062331 C104.631219,19.4160498 103.710568,20.5468505 103.710568,21.8994128 L103.710568,30.7570463 C103.710568,32.3918505 105.045511,33.7205872 106.687952,33.7205872 L107.916099,33.7205872 C108.381948,33.7205872 108.818337,33.6051246 109.212375,33.4126868 C109.834735,40.4339146 114.176522,46.3793238 120.234401,49.2713879 L120.234401,55.3560854 L110.123819,55.3560854 L109.81448,55.5998399 C109.013514,56.226637 102,61.842153 102,66.0372954 L102,103 L127.645636,103 L129.354364,103 L155,103 L155,66.0409609 C154.998159,61.8458185 147.982803,56.2284698 147.181837,55.6016726 Z M151,30.3159493 C151,30.6928023 150.640167,31 150.196653,31 L148.803347,31 C148.359833,31 148,30.6928023 148,30.3159493 L148,21.6840507 C148,21.3071977 148.359833,21 148.803347,21 L150.196653,21 C150.640167,21 151,21.3071977 151,21.6840507 L151,30.3159493 Z M128.5,2 C139.185757,2 147.991561,9.25183687 149,18.4967522 C148.459699,18.5383878 147.958254,18.7121712 147.536375,19 C145.761892,10.1786817 137.879411,3.50793313 128.442639,3.50793313 C119.029921,3.50793313 111.158543,10.1460973 109.360005,18.9348312 C108.96033,18.6850176 108.497743,18.5347673 108,18.494942 C109.008439,9.25183687 117.814243,2 128.5,2 Z M109,30.3159493 C109,30.6928023 108.639916,31 108.198186,31 L106.801814,31 C106.360084,31 106,30.6928023 106,30.3159493 L106,21.6840507 C106,21.3071977 106.360084,21 106.801814,21 L108.198186,21 C108.639916,21 109,21.3071977 109,21.6840507 L109,30.3159493 Z M111,31.7113212 L111,23.2831593 C111,13.7529523 118.626562,6 128,6 C137.375269,6 145,13.7529523 145,23.2831593 L145,31.7113212 C145,32.5613127 144.919431,33.3910662 144.804072,34.2097809 C143.650474,38.2775971 140.526605,41.8928205 133.247953,42.4098066 L133.247953,41.2875235 L128.510879,41.2875235 L128.510879,43.5560072 L131.418677,43.5560072 L131.418677,44.748203 C135.465424,44.748203 138.823675,43.8890125 141.423847,42.28102 C138.310965,46.3598751 133.458531,49 128,49 C118.626562,49 111,41.2452079 111,31.7113212 Z M127.999077,50.986533 C130.094139,50.986533 132.107983,50.6332603 134,50 L134,55.8928907 L127.999077,62 L122,55.8928907 L122,50 C123.890171,50.6351394 125.904015,50.986533 127.999077,50.986533 Z M104,101 L104,92 L113,92 L113,101 L104,101 Z M128.847531,101 L127.154294,101 L115.294332,101 L115.294332,82.8968537 L113.035466,82.8968537 L113.035466,89.6850765 L104,89.6850765 L104,66.3934099 C104,64.1465136 107.913787,60.1701105 110.579542,58.0018282 L120.551032,58.0018282 L127.9407,65.406165 L128.000912,65.3458333 L128.0593,65.4043367 L135.450793,58 C139.256517,58 142.11081,58 144.013672,58 C144.326697,58 144.796234,58 145.422283,58 C148.088037,60.1682823 152,64.1446854 152,66.3915816 L152,89.6832483 L142.966359,89.6832483 L142.966359,82.8968537 L140.707492,82.8968537 L140.707492,101 L128.847531,101 Z M144,101 L144,92 L153,92 L153,101 L144,101 Z" id="Shape"></path>
                </g>
            </g>
        </g>
    </g>
</svg>