<?xml version="1.0" encoding="UTF-8"?>
<svg width="54px" height="25px" viewBox="0 0 54 25" version="1.1" xmlns="http://www.w3.org/2000/svg" xmlns:xlink="http://www.w3.org/1999/xlink">
    <!-- Generator: Sketch 61.1 (89650) - https://sketch.com -->
    <title>noun_Shipping_1541531</title>
    <desc>Created with Sketch.</desc>
    <g id="Page-1" stroke="none" stroke-width="1" fill="none" fill-rule="evenodd">
        <g id="MY-ACCOUNT" transform="translate(-30.000000, -212.000000)" fill="#333F48" fill-rule="nonzero">
            <g id="HEADER-SIDE" transform="translate(-6.000000, 108.000000)">
                <g id="SEARCH-SIDE" transform="translate(6.000000, 73.000000)">
                    <g id="SHIPPING-ADDERES">
                        <g id="noun_Shipping_1541531" transform="translate(30.000000, 31.000000)">
                            <path d="M47.2504385,4.90075841 L39.2129357,4.90075841 L39.2129357,0 L13.4000396,0 L13.4000396,4.15926584 L5.69318696,4.15926584 C5.30985457,4.15926584 5,4.4743297 5,4.86410668 C5,5.25388367 5.30985457,5.56894753 5.69318696,5.56894753 L13.4000396,5.56894753 L13.4000396,14.2032479 L11.154807,14.2032479 C10.7714746,14.2032479 10.4616201,14.5183118 10.4616201,14.9080888 C10.4616201,15.2978657 10.7714746,15.6129296 11.154807,15.6129296 L13.4000396,15.6129296 L13.4000396,22.0157039 L16.6413818,22.0157039 C16.8798382,23.698159 18.2932464,25 20.0130432,25 C21.7335333,25 23.1469415,23.6974541 23.3853978,22.0157039 L37.8265618,22.0157039 L39.2129357,22.0157039 L42.7634393,22.0157039 C43.0018957,23.698159 44.4153039,25 46.1357939,25 C47.8555908,25 49.2696922,23.6974541 49.5074553,22.0157039 L54,22.0157039 L54,12.4242296 L47.2504385,4.90075841 Z M37.8265618,1.40968169 L37.8265618,4.90075841 L37.8265618,15.9456145 L14.7864135,15.9456145 L14.7864135,1.40968169 L37.8265618,1.40968169 Z M20.0130432,23.5903183 C18.8914667,23.5903183 17.9785395,22.6627478 17.9785395,21.5223153 C17.9785395,20.3811779 18.8907735,19.4529025 20.0130432,19.4529025 C21.1353129,19.4529025 22.0482402,20.3804731 22.0482402,21.5223153 C22.0482402,22.6627478 21.1353129,23.5903183 20.0130432,23.5903183 Z M23.2980562,20.6060222 C22.8994737,19.1343145 21.5851913,18.0439257 20.0130432,18.0439257 C18.4408952,18.0439257 17.1273059,19.1343145 16.7287234,20.6060222 L14.7864135,20.6060222 L14.7864135,17.356001 L37.8265618,17.356001 L37.8265618,20.6060222 L23.2980562,20.6060222 Z M46.1364871,23.5903183 C45.0142174,23.5903183 44.1012902,22.6627478 44.1012902,21.5223153 C44.1012902,20.3811779 45.0135242,19.4529025 46.1364871,19.4529025 C47.2580636,19.4529025 48.1709908,20.3804731 48.1709908,21.5223153 C48.1702976,22.6627478 47.2580636,23.5903183 46.1364871,23.5903183 L46.1364871,23.5903183 Z M52.6143193,20.6060222 L49.4208069,20.6060222 C49.0222244,19.1343145 47.7079419,18.0439257 46.1364871,18.0439257 C44.5636459,18.0439257 43.2500566,19.1343145 42.8514741,20.6060222 L39.2136289,20.6060222 L39.2136289,6.3104401 L46.6390476,6.3104401 L52.6150124,12.9704813 L52.6150124,20.6060222 L52.6143193,20.6060222 Z" id="Shape"></path>
                            <path d="M9,9.5 C9,9.2235 8.69637736,9 8.32075472,9 L0.679245283,9 C0.303622642,9 0,9.2235 0,9.5 C0,9.7765 0.303622642,10 0.679245283,10 L8.32075472,10 C8.69637736,10 9,9.776 9,9.5 Z" id="Path"></path>
                            <path d="M8.36668778,14 L7.63331222,14 C7.28309056,14 7,14.2235 7,14.5 C7,14.7765 7.28309056,15 7.63331222,15 L8.36668778,15 C8.71690944,15 9,14.7765 9,14.5 C9,14.2235 8.71690944,14 8.36668778,14 Z" id="Path"></path>
                        </g>
                    </g>
                </g>
            </g>
        </g>
    </g>
</svg>