<?xml version="1.0" encoding="UTF-8"?>
<svg width="18px" height="15px" viewBox="0 0 18 15" version="1.1" xmlns="http://www.w3.org/2000/svg" xmlns:xlink="http://www.w3.org/1999/xlink">
    <!-- Generator: Sketch 62 (91390) - https://sketch.com -->
    <title>noun_update_333656</title>
    <desc>Created with Sketch.</desc>
    <g id="Page-1" stroke="none" stroke-width="1" fill="none" fill-rule="evenodd">
        <g id="CART" transform="translate(-1364.000000, -526.000000)" fill="#FFFFFF" fill-rule="nonzero">
            <g id="noun_update_3085394" transform="translate(1364.000000, 524.000000)">
                <g id="noun_update_333656" transform="translate(0.000000, 2.000000)">
                    <path d="M11.5660369,12.5994194 C10.7166359,13.0008111 9.82476498,13.1919263 8.94351152,13.1919263 C7.79466359,13.1919263 6.66713364,12.8670138 5.69670968,12.266129 C4.72628571,11.6652442 3.91512442,10.7882212 3.38847926,9.67752995 C2.99563134,8.84513364 2.80451613,7.97018433 2.79812903,7.10809217 C2.84275576,7.15263594 3.25045161,7.56041475 3.66453456,7.97872811 C4.10408295,8.42043318 4.87493088,7.8895576 4.87493088,7.8895576 L2.24178802,5.24795392 L0.0312718894,8.24847926 C0.0312718894,8.24847926 0.872129032,8.66040553 1.2416682,8.15715207 C1.55596313,7.73037788 1.86387097,7.31198157 1.95088479,7.19303226 C1.96996313,8.15076498 2.18662673,9.11903226 2.61978802,10.0385253 L2.61978802,10.0385253 C3.21652535,11.2977788 4.14447926,12.3000553 5.24654378,12.9859631 C6.35076498,13.6697143 7.63125346,14.0391705 8.94143779,14.0391705 C9.94371429,14.0391705 10.9629954,13.8225899 11.9270323,13.3660369 C12.8910691,12.9094839 13.7043871,12.259659 14.3372074,11.4867373 L13.6809954,10.9474009 C13.1268111,11.6290783 12.4154378,12.1981106 11.5659539,12.5995023 L11.5660369,12.5994194 Z" id="Path"></path>
                    <path d="M16.7643871,6.91482028 C16.3906175,7.25035023 16.0253917,7.57733641 15.8959078,7.69628571 C15.9171429,7.48186175 15.9299171,7.26519816 15.9299171,7.04646083 C15.9299171,6.04418433 15.7133364,5.02490323 15.2567834,4.06086636 C14.6600461,2.79945622 13.7320922,1.79933641 12.6300276,1.11342857 C11.5258065,0.429677419 10.245318,0.0602211982 8.93513364,0.0602211982 C7.93285714,0.0602211982 6.91357604,0.276801843 5.94953917,0.733354839 C4.71790783,1.31731797 3.732553,2.21557604 3.04888479,3.28578802 L3.76448848,3.74234101 C4.36545622,2.8016129 5.22754839,2.01384332 6.31269124,1.4998894 C7.16209217,1.09858065 8.05396313,0.907465438 8.93521659,0.907465438 C10.0840645,0.907465438 11.2115945,1.23237788 12.1820184,1.83334562 C13.1524424,2.43431336 13.9636037,3.31125346 14.4902488,4.42186175 C14.8916406,5.27126267 15.0827558,6.16520737 15.0827558,7.0443871 C15.0827558,7.24404608 15.0699816,7.44146544 15.0509032,7.63896774 L15.038129,7.63689401 C15.038129,7.63689401 14.6983687,7.12086636 14.3586083,6.59845161 C14.0167742,6.07611982 13.1545991,6.44134562 13.1545991,6.44134562 L15.195318,9.56289401 L17.9707189,7.07200922 C17.9707189,7.07408295 17.2295668,6.49866359 16.764553,6.91490323 L16.7643871,6.91482028 Z" id="Path"></path>
                </g>
            </g>
        </g>
    </g>
</svg>