<?xml version="1.0" encoding="UTF-8"?>
<svg width="19px" height="21px" viewBox="0 0 19 21" version="1.1" xmlns="http://www.w3.org/2000/svg" xmlns:xlink="http://www.w3.org/1999/xlink">
    <!-- Generator: Sketch 61 (89581) - https://sketch.com -->
    <title>user-icon</title>
    <desc>Created with Sketch.</desc>
    <g id="Page-1" stroke="none" stroke-width="1" fill="none" fill-rule="evenodd">
        <g id="user-icon" fill="#FFFFFF" fill-rule="nonzero">
            <path d="M13.0557935,3.84089352 C12.596936,2.28097466 11.1454815,1.13810786 9.43110209,1.13810786 C7.34909958,1.13810786 5.65534588,2.82319714 5.65534588,4.89390429 L5.65534588,8.08067571 C5.65534588,10.1516722 7.34909958,11.8364721 9.43110209,11.8364721 C11.5128138,11.8364721 13.2068583,10.1516722 13.2068583,8.08067571 L13.2068583,5.04719775 C12.7132827,5.28464867 12.2519214,5.41594928 11.7201998,5.41594928 C11.1577479,5.41594928 10.5170646,5.26928143 9.67629505,4.94586001 C8.19949539,4.37712429 7.47679999,4.9151957 7.44684522,4.93833858 C7.20051807,5.12724215 6.84280567,5.09108141 6.6467909,4.85126358 C6.45077613,4.61086713 6.47811351,4.26343501 6.71484348,4.06295998 C6.76399261,4.02159215 7.93949953,3.05769214 10.088973,3.88418142 C11.6606267,4.48828068 12.2049534,4.33282874 13.0557935,3.84089352 Z M0.586270274,20.8218311 C0.291084835,20.8218311 0.0409769738,20.5964775 0.016547834,20.2988025 C0.00869561051,20.1995775 -0.169869769,17.8505775 0.861388922,16.2218989 C2.34982152,13.8702954 5.04109844,12.9272239 5.15510108,12.8881704 C5.35024339,12.8210561 5.56777904,12.8650275 5.7219153,13.0018596 C5.7399463,13.0174811 7.51338554,14.5680525 9.36941852,14.5680525 L9.4610278,14.5680525 C11.3182241,14.5680525 13.1082402,13.0157454 13.1256896,13.0001239 C13.2748819,12.8696561 13.4822387,12.8248168 13.6721462,12.8823847 C13.7878938,12.9173882 16.5222125,13.7707811 18.0170432,16.1322204 C19.0427763,17.7527989 18.9316818,20.1599454 18.9264471,20.2617739 C18.9107426,20.5753596 18.6507467,20.8180703 18.326479,20.8010025 C18.0112268,20.7850918 17.7683895,20.5180811 17.7838031,20.2042061 C17.7849664,20.1830882 17.8797747,18.0516311 17.0486023,16.7385632 C16.0406095,15.1454668 14.2924719,14.3366239 13.6157265,14.0713489 C12.9782423,14.5640025 11.3016472,15.7061025 9.4610278,15.7061025 L9.36941852,15.7061025 C7.53985043,15.7061025 5.88244965,14.5781775 5.23973059,14.0797382 C4.56007702,14.3727846 2.8369502,15.2365918 1.829539,16.8282418 C0.99952989,18.1398632 1.15541107,20.1862704 1.15715601,20.2068096 C1.18274844,20.5201061 0.948054203,20.7946382 0.633092793,20.8200953 C0.617388347,20.8212525 0.601974724,20.8218311 0.586270274,20.8218311 Z M9.43110209,12.9748114 C6.71801346,12.9748114 4.51095702,10.7794221 4.51095702,8.08067571 L4.51095702,4.89390429 C4.51095702,2.19544714 6.71801346,5.78571427e-05 9.43110209,5.78571427e-05 C12.1438999,5.78571427e-05 14.3509564,2.19544714 14.3509564,4.89390429 L14.3509564,8.08067571 C14.3509564,10.7794221 12.1438999,12.9748114 9.43110209,12.9748114 Z" id="Shape"></path>
        </g>
    </g>
</svg>