<?xml version="1.0" encoding="UTF-8"?>
<svg width="153px" height="113px" viewBox="0 0 153 113" version="1.1" xmlns="http://www.w3.org/2000/svg" xmlns:xlink="http://www.w3.org/1999/xlink">
    <!-- Generator: Sketch 63.1 (92452) - https://sketch.com -->
    <title>Group 12</title>
    <desc>Created with Sketch.</desc>
    <defs>
        <polygon id="path-1" points="0.219532673 0.210422619 31.9923644 0.210422619 31.9923644 52.850906 0.219532673 52.850906"></polygon>
    </defs>
    <g id="Page-1" stroke="none" stroke-width="1" fill="none" fill-rule="evenodd">
        <g id="REFERRAL-3" transform="translate(-1020.000000, -879.000000)">
            <g id="Group-4" transform="translate(265.000000, 870.000000)">
                <g id="Group-12" transform="translate(755.000000, 9.000000)">
                    <path d="M95.5971366,54.5904114 C98.8456874,52.8955016 102.49553,52 106.152577,52 L130.019244,52 C142.690785,52 153,62.4021059 153,75.1888444 L153,85.2773825 C153,90.6759958 149.590745,95.4506345 144.515863,97.157556 L102.58575,111.259256 C99.1395293,112.418698 95.5636173,113 91.9826931,113 C89.1031677,113 86.2201964,112.624793 83.396432,111.870587 L51.4027491,103.330922 C49.3796883,102.790713 47.4393292,101.974868 45.6368065,100.905513 L6.35941541,77.6155178 C3.50025215,76.0167013 1.40044156,73.3526394 0.486336332,70.1376212 C-0.427142363,66.9216547 -0.0455864475,63.5397375 1.56177267,60.6139476 C3.16913179,57.6881578 5.8093233,55.5693625 8.99616101,54.6469927 C12.1447805,53.7360024 15.4562974,54.1017261 18.3320636,55.6762031 L61.7551944,73.4351406 C63.0380117,71.8508646 64.7653511,70.5223107 66.8836443,69.5721244 L95.5971366,54.5904114 Z" id="Fill-1" fill="#1E2533"></path>
                    <path d="M97.1969524,58.1522899 L68.5592918,73.0003382 C68.5249828,73.0181645 68.4906739,73.034427 68.4554293,73.0497514 C66.5222773,73.9032241 65.0535433,75.1201029 64.1031861,76.5737274 C64.0461085,76.6931948 63.9774906,76.8035927 63.8985801,76.9042956 C62.6394425,79.054709 62.4700812,81.680803 63.5558027,84.4019704 C65.3355003,88.8629212 70.4001216,91.0417942 74.8531083,89.2572888 L106.558611,74.4173718 C107.475283,73.9895409 108.566619,74.3857849 108.994545,75.3061844 C109.42247,76.2259583 109.026358,77.3193041 108.108439,77.7486988 L76.3087425,92.6295849 C69.8904781,95.2062656 62.6821727,92.1104333 60.1520454,85.7674017 C58.9028886,82.636855 58.8941554,79.4903585 59.9511822,76.7394806 L17.1083785,59.3278868 C17.0397607,59.29974 16.9733261,59.2675276 16.9081392,59.2321878 C15.601281,58.5053755 14.1621775,58.1354018 12.7077909,58.1354018 C11.9034025,58.1354018 11.0943357,58.2486144 10.2996162,58.476916 C8.06797649,59.1183497 6.21934917,60.5929279 5.0937045,62.6291905 C3.96805982,64.6648277 3.70076209,67.0185234 4.34077952,69.2555664 C4.98048504,71.4932348 6.45109037,73.3468562 8.481555,74.4755418 L47.6274159,97.5415096 C49.1348254,98.4296966 50.7567019,99.1077211 52.4484439,99.5568185 L84.3020985,108.005854 C89.920653,109.494193 95.8015148,109.308737 101.310905,107.467313 L143.059253,93.5149573 C146.612723,92.3271635 149,89.0052188 149,85.2482501 L149,75.2667789 C149,64.6429358 140.38035,56 129.784818,56 L106.022456,56 C102.964595,56 99.9132837,56.7446385 97.1969524,58.1522899" id="Fill-3" fill="#FFFFFF"></path>
                    <g id="Group-7" transform="translate(45.000000, 0.000000)">
                        <mask id="mask-2" fill="white">
                            <use xlink:href="#path-1"></use>
                        </mask>
                        <g id="Clip-6"></g>
                        <path d="M0.219532673,36.4767452 C0.219532673,35.0940131 1.34523564,33.9728107 2.73422574,33.9728107 C4.12258218,33.9728107 5.24860198,35.0940131 5.24860198,36.4767452 C5.24860198,40.3015786 8.81517624,43.508394 13.5917307,44.3595488 L13.5917307,28.1775131 C6.52543366,27.1907036 1.1237703,22.1408762 1.1237703,16.0619655 C1.1237703,9.96601905 6.53937426,4.91209048 13.5917307,3.99058452 L13.5917307,2.71416786 C13.5917307,1.33143571 14.7177505,0.210233333 16.1064238,0.210233333 C17.4947802,0.210233333 18.6208,1.33143571 18.6208,2.71416786 L18.6208,4.04358452 C25.4688,5.10610833 30.6711762,10.0859 30.6711762,16.0619655 C30.6711762,17.4446976 29.5457901,18.5655845 28.1568,18.5655845 C26.7681267,18.5655845 25.6421069,17.4446976 25.6421069,16.0619655 C25.6421069,12.7775429 22.6711762,10.0029298 18.6208,9.12622143 L18.6208,23.5381202 C26.1867406,24.5384952 31.9923644,29.9504893 31.9923644,36.4767452 C31.9923644,43.0023702 26.1867406,48.4143643 18.6208,49.4147393 L18.6208,50.3469714 C18.6208,51.730019 17.4947802,52.850906 16.1064238,52.850906 C14.7177505,52.850906 13.5917307,51.730019 13.5917307,50.3469714 L13.5917307,49.4147393 C6.02515644,48.4143643 0.219532673,43.0023702 0.219532673,36.4767452" id="Fill-5" fill="#1E2533" mask="url(#mask-2)"></path>
                    </g>
                    <path d="M64,28 L64,44 C68.5798488,43.1365283 72,39.8817809 72,36.0004802 C72,32.1182191 68.5798488,28.8634717 64,28" id="Fill-8" fill="#FFFFFF"></path>
                    <path d="M59,23 L59,9 C54.9894374,9.76831568 52,12.6052702 52,15.9874304 C52,19.2941731 55.0264066,22.1616089 59,23" id="Fill-10" fill="#FFFFFF"></path>
                </g>
            </g>
        </g>
    </g>
</svg>